STARTFONT 2.1
FONT -Baekmuk-Batang-Medium-R-Normal--20-200-75-75-M-200-ksx1001.1997-0
SIZE 20 75 75
FONTBOUNDINGBOX 20 20 0 -4
STARTPROPERTIES 18
FOUNDRY "Baekmuk"
FAMILY_NAME "Batang"
WEIGHT_NAME "Medium"
SLANT "R"
SETWIDTH_NAME "Normal"
ADD_STYLE_NAME ""
PIXEL_SIZE 20
POINT_SIZE 200
RESOLUTION_X 75
RESOLUTION_Y 75
SPACING "M"
AVERAGE_WIDTH 200
CHARSET_REGISTRY "ksx1001.1997"
CHARSET_ENCODING "0"
DEFAULT_CHAR 8481
FONT_ASCENT 16
FONT_DESCENT 4
COPYRIGHT "(c)Hwan Design Inc. and Mizi Research Inc."
ENDPROPERTIES
CHARS 8224
STARTCHAR 3000
ENCODING 8481
SWIDTH 2000 0
DWIDTH 20 0
BBX 0 0 0 0
BITMAP
ENDCHAR
STARTCHAR 3001
ENCODING 8482
SWIDTH 2000 0
DWIDTH 20 0
BBX 3 3 15 12
BITMAP
C0
60
60
ENDCHAR
STARTCHAR 3002
ENCODING 8483
SWIDTH 2000 0
DWIDTH 20 0
BBX 5 4 13 11
BITMAP
70
88
88
70
ENDCHAR
STARTCHAR 00B7
ENCODING 8484
SWIDTH 2000 0
DWIDTH 20 0
BBX 3 2 9 5
BITMAP
E0
E0
ENDCHAR
STARTCHAR 2025
ENCODING 8485
SWIDTH 2000 0
DWIDTH 20 0
BBX 12 2 4 5
BITMAP
E010
E010
ENDCHAR
STARTCHAR 2026
ENCODING 8486
SWIDTH 2000 0
DWIDTH 20 0
BBX 12 2 4 5
BITMAP
8210
8210
ENDCHAR
STARTCHAR 00A8
ENCODING 8487
SWIDTH 2000 0
DWIDTH 20 0
BBX 7 2 6 5
BITMAP
82
82
ENDCHAR
STARTCHAR 3003
ENCODING 8488
SWIDTH 2000 0
DWIDTH 20 0
BBX 6 6 7 3
BITMAP
6C
48
48
48
90
90
ENDCHAR
STARTCHAR 00AD
ENCODING 8489
SWIDTH 2000 0
DWIDTH 20 0
BBX 6 1 7 5
BITMAP
FC
ENDCHAR
STARTCHAR 2015
ENCODING 8490
SWIDTH 2000 0
DWIDTH 20 0
BBX 18 1 1 5
BITMAP
FFFFC0
ENDCHAR
STARTCHAR 2225
ENCODING 8491
SWIDTH 2000 0
DWIDTH 20 0
BBX 5 16 7 -2
BITMAP
88
88
88
88
88
88
88
88
88
88
88
88
88
88
88
88
ENDCHAR
STARTCHAR FF3C
ENCODING 8492
SWIDTH 2000 0
DWIDTH 20 0
BBX 17 16 2 -2
BITMAP
800000
400000
200000
100000
080000
040000
020000
010000
008000
004000
002000
001800
000C00
000600
000300
000180
ENDCHAR
STARTCHAR 223C
ENCODING 8493
SWIDTH 2000 0
DWIDTH 20 0
BBX 12 4 4 4
BITMAP
3800
CC00
8730
01E0
ENDCHAR
STARTCHAR 2018
ENCODING 8494
SWIDTH 2000 0
DWIDTH 20 0
BBX 2 4 14 11
BITMAP
80
80
C0
C0
ENDCHAR
STARTCHAR 2019
ENCODING 8495
SWIDTH 2000 0
DWIDTH 20 0
BBX 2 5 4 11
BITMAP
C0
C0
40
40
80
ENDCHAR
STARTCHAR 201C
ENCODING 8496
SWIDTH 2000 0
DWIDTH 20 0
BBX 7 5 11 11
BITMAP
20
44
44
E6
66
ENDCHAR
STARTCHAR 201D
ENCODING 8497
SWIDTH 2000 0
DWIDTH 20 0
BBX 7 5 2 11
BITMAP
0C
CE
C4
44
88
ENDCHAR
STARTCHAR 3014
ENCODING 8498
SWIDTH 2000 0
DWIDTH 20 0
BBX 4 18 14 -3
BITMAP
30
C0
80
80
80
80
80
80
80
80
80
80
80
80
80
80
C0
30
ENDCHAR
STARTCHAR 3015
ENCODING 8499
SWIDTH 2000 0
DWIDTH 20 0
BBX 4 18 2 -3
BITMAP
C0
30
10
10
10
10
10
10
10
10
10
10
10
10
10
10
70
80
ENDCHAR
STARTCHAR 3008
ENCODING 8500
SWIDTH 2000 0
DWIDTH 20 0
BBX 7 17 12 -3
BITMAP
02
04
08
08
10
20
40
80
80
C0
40
20
10
08
0C
04
02
ENDCHAR
STARTCHAR 3009
ENCODING 8501
SWIDTH 2000 0
DWIDTH 20 0
BBX 7 17 1 -3
BITMAP
80
40
20
20
10
08
04
06
02
02
04
08
10
30
20
40
80
ENDCHAR
STARTCHAR 300A
ENCODING 8502
SWIDTH 2000 0
DWIDTH 20 0
BBX 8 17 11 -3
BITMAP
05
0A
0C
14
28
28
50
60
A0
50
50
28
24
14
0A
0A
05
ENDCHAR
STARTCHAR 300B
ENCODING 8503
SWIDTH 2000 0
DWIDTH 20 0
BBX 7 17 1 -3
BITMAP
A0
90
50
28
28
14
12
0A
06
0A
14
14
28
30
50
A0
A0
ENDCHAR
STARTCHAR 300C
ENCODING 8504
SWIDTH 2000 0
DWIDTH 20 0
BBX 7 10 12 6
BITMAP
FE
80
80
80
80
80
80
80
80
80
ENDCHAR
STARTCHAR 300D
ENCODING 8505
SWIDTH 2000 0
DWIDTH 20 0
BBX 7 10 1 -4
BITMAP
02
02
02
02
02
02
02
02
02
FE
ENDCHAR
STARTCHAR 300E
ENCODING 8506
SWIDTH 2000 0
DWIDTH 20 0
BBX 7 10 12 6
BITMAP
FE
82
FE
C0
C0
C0
C0
C0
C0
C0
ENDCHAR
STARTCHAR 300F
ENCODING 8507
SWIDTH 2000 0
DWIDTH 20 0
BBX 7 9 1 -4
BITMAP
06
06
06
06
06
06
FE
82
FE
ENDCHAR
STARTCHAR 3010
ENCODING 8508
SWIDTH 2000 0
DWIDTH 20 0
BBX 6 18 13 -3
BITMAP
F8
F8
F0
F0
F0
E0
E0
E0
E0
E0
E0
E0
E0
F0
F0
F0
F8
FC
ENDCHAR
STARTCHAR 3011
ENCODING 8509
SWIDTH 2000 0
DWIDTH 20 0
BBX 5 18 2 -3
BITMAP
F8
F8
78
78
78
38
38
38
38
38
38
38
38
78
78
78
F8
F8
ENDCHAR
STARTCHAR 00B1
ENCODING 8510
SWIDTH 2000 0
DWIDTH 20 0
BBX 13 13 4 0
BITMAP
0200
0200
0200
0200
0200
FFF8
0200
0200
0200
0200
0200
0000
FFF0
ENDCHAR
STARTCHAR 00D7
ENCODING 8511
SWIDTH 2000 0
DWIDTH 20 0
BBX 12 12 4 0
BITMAP
8010
4020
2040
1080
0900
0600
0600
0900
1080
2040
4020
8010
ENDCHAR
STARTCHAR 00F7
ENCODING 8512
SWIDTH 2000 0
DWIDTH 20 0
BBX 14 12 3 0
BITMAP
0200
0200
0000
0000
0000
0000
FFFC
0000
0000
0000
0200
0200
ENDCHAR
STARTCHAR 2260
ENCODING 8513
SWIDTH 2000 0
DWIDTH 20 0
BBX 14 12 3 0
BITMAP
0400
0400
0200
0200
FFFC
0200
0100
FFFC
0100
0080
0080
0080
ENDCHAR
STARTCHAR 2264
ENCODING 8514
SWIDTH 2000 0
DWIDTH 20 0
BBX 14 11 3 0
BITMAP
0018
00E0
0300
1C00
6000
3000
0E00
01C0
0030
0008
FFFC
ENDCHAR
STARTCHAR 2265
ENCODING 8515
SWIDTH 2000 0
DWIDTH 20 0
BBX 12 11 4 0
BITMAP
6000
1800
0600
01C0
0030
0060
0380
1C00
6000
0000
FFF0
ENDCHAR
STARTCHAR 221E
ENCODING 8516
SWIDTH 2000 0
DWIDTH 20 0
BBX 16 8 2 2
BITMAP
181C
6662
8181
8181
8081
8181
4242
3C3C
ENDCHAR
STARTCHAR 2234
ENCODING 8517
SWIDTH 2000 0
DWIDTH 20 0
BBX 12 10 4 1
BITMAP
0E00
0E00
0000
0000
0000
0000
0000
0000
E070
E070
ENDCHAR
STARTCHAR 00B0
ENCODING 8518
SWIDTH 2000 0
DWIDTH 20 0
BBX 5 5 2 11
BITMAP
60
90
88
90
70
ENDCHAR
STARTCHAR 2032
ENCODING 8519
SWIDTH 2000 0
DWIDTH 20 0
BBX 4 5 2 11
BITMAP
30
60
40
80
80
ENDCHAR
STARTCHAR 2033
ENCODING 8520
SWIDTH 2000 0
DWIDTH 20 0
BBX 7 4 2 12
BITMAP
26
64
4C
88
ENDCHAR
STARTCHAR 2103
ENCODING 8521
SWIDTH 2000 0
DWIDTH 20 0
BBX 14 15 3 0
BITMAP
F000
91E0
9714
E40C
0C04
0804
0800
0800
0800
0800
0800
0C04
0408
0610
01E0
ENDCHAR
STARTCHAR 212B
ENCODING 8522
SWIDTH 2000 0
DWIDTH 20 0
BBX 16 16 2 0
BITMAP
03C0
0240
0240
0180
0180
0180
02C0
02C0
0460
0460
0FF0
0830
1018
1018
300C
F83F
ENDCHAR
STARTCHAR FFE0
ENCODING 8523
SWIDTH 2000 0
DWIDTH 20 0
BBX 18 16 2 -1
BITMAP
000040
03F980
043E00
181C00
100800
201000
202000
204000
208000
210000
220000
140200
180400
1E1800
23E000
C00000
ENDCHAR
STARTCHAR FFE1
ENCODING 8524
SWIDTH 2000 0
DWIDTH 20 0
BBX 12 14 4 0
BITMAP
01C0
0630
0430
0C30
0C00
0C00
0C00
7FC0
0C00
0C00
7C00
9C10
97E0
A1C0
ENDCHAR
STARTCHAR FFE5
ENCODING 8525
SWIDTH 2000 0
DWIDTH 20 0
BBX 12 14 4 0
BITMAP
FC00
3070
3040
1840
0C80
7FF0
0500
0600
7FF0
0200
0200
0200
0200
0F80
ENDCHAR
STARTCHAR 2642
ENCODING 8526
SWIDTH 2000 0
DWIDTH 20 0
BBX 9 17 6 -3
BITMAP
0800
1C00
2A00
2A00
4900
8880
0800
0800
0800
0800
3E00
4300
8100
8100
8100
C300
3C00
ENDCHAR
STARTCHAR 2640
ENCODING 8527
SWIDTH 2000 0
DWIDTH 20 0
BBX 13 17 4 -3
BITMAP
0F80
10C0
2040
2040
2040
10C0
0F00
0200
0200
FFF8
0200
0200
0200
0200
0200
0200
0200
ENDCHAR
STARTCHAR 2220
ENCODING 8528
SWIDTH 2000 0
DWIDTH 20 0
BBX 13 11 3 0
BITMAP
0010
0020
00C0
0180
0200
0400
0800
1000
2000
4000
FFF8
ENDCHAR
STARTCHAR 22A5
ENCODING 8529
SWIDTH 2000 0
DWIDTH 20 0
BBX 13 11 4 0
BITMAP
0200
0200
0200
0200
0200
0200
0200
0200
0200
0200
FFF8
ENDCHAR
STARTCHAR 2312
ENCODING 8530
SWIDTH 2000 0
DWIDTH 20 0
BBX 12 3 4 12
BITMAP
3FC0
4020
8010
ENDCHAR
STARTCHAR 2202
ENCODING 8531
SWIDTH 2000 0
DWIDTH 20 0
BBX 8 14 6 0
BITMAP
1C
3E
43
01
01
01
39
65
42
82
86
84
8C
78
ENDCHAR
STARTCHAR 2207
ENCODING 8532
SWIDTH 2000 0
DWIDTH 20 0
BBX 16 12 2 0
BITMAP
FFFF
4002
4002
2004
1008
1008
0810
0420
0420
0240
0180
0180
ENDCHAR
STARTCHAR 2261
ENCODING 8533
SWIDTH 2000 0
DWIDTH 20 0
BBX 14 7 3 2
BITMAP
FFFC
0000
0000
FFFC
0000
0000
FFFC
ENDCHAR
STARTCHAR 2252
ENCODING 8534
SWIDTH 2000 0
DWIDTH 20 0
BBX 14 11 3 0
BITMAP
2000
2000
0000
FFFC
0000
0000
FFFC
0000
0000
0010
0010
ENDCHAR
STARTCHAR 00A7
ENCODING 8535
SWIDTH 2000 0
DWIDTH 20 0
BBX 7 17 6 -3
BITMAP
78
8C
8E
C4
E0
70
78
C4
C2
E2
7C
78
1C
0E
C6
C6
7C
ENDCHAR
STARTCHAR 203B
ENCODING 8536
SWIDTH 2000 0
DWIDTH 20 0
BBX 12 12 4 0
BITMAP
8710
4720
2740
1080
0900
E670
E670
E970
1080
2740
4720
8710
ENDCHAR
STARTCHAR 2606
ENCODING 8537
SWIDTH 2000 0
DWIDTH 20 0
BBX 16 14 2 -1
BITMAP
0180
0180
0280
0240
FE7F
4002
2004
1018
0810
0810
0990
1250
1C28
1018
ENDCHAR
STARTCHAR 2605
ENCODING 8538
SWIDTH 2000 0
DWIDTH 20 0
BBX 15 14 3 -1
BITMAP
0100
0300
0300
0780
0780
FFFE
7FF8
3FF0
1FE0
1FE0
1FE0
1FE0
3870
3030
ENDCHAR
STARTCHAR 25CB
ENCODING 8539
SWIDTH 2000 0
DWIDTH 20 0
BBX 16 16 2 -2
BITMAP
07E0
1818
300C
6006
4002
8001
8001
8001
8001
8001
8001
4002
6006
300C
1818
07E0
ENDCHAR
STARTCHAR 25CF
ENCODING 8540
SWIDTH 2000 0
DWIDTH 20 0
BBX 16 16 2 -2
BITMAP
07E0
1FF8
3FFC
7FFE
7FFF
FFFF
FFFF
FFFF
FFFF
FFFF
FFFF
7FFF
7FFE
3FFC
1FF8
07E0
ENDCHAR
STARTCHAR 25CE
ENCODING 8541
SWIDTH 2000 0
DWIDTH 20 0
BBX 16 16 2 -2
BITMAP
07E0
1818
300C
67C6
4822
9011
A009
A009
A009
A009
B019
5012
6C66
37CC
1818
07E0
ENDCHAR
STARTCHAR 25C7
ENCODING 8542
SWIDTH 2000 0
DWIDTH 20 0
BBX 18 18 1 -3
BITMAP
004000
01E000
033000
061800
0C0C00
180600
300300
600180
C000C0
800040
400080
200100
100200
080400
040800
021000
012000
00C000
ENDCHAR
STARTCHAR 25C6
ENCODING 8543
SWIDTH 2000 0
DWIDTH 20 0
BBX 18 18 1 -3
BITMAP
008000
01E000
03F000
07F800
0FFC00
1FFE00
3FFF00
7FFF80
FFFFC0
FFFFC0
7FFF80
3FFF00
1FFE00
0FF800
07F000
03E000
01C000
008000
ENDCHAR
STARTCHAR 25A1
ENCODING 8544
SWIDTH 2000 0
DWIDTH 20 0
BBX 16 16 2 -2
BITMAP
FFFF
8001
8001
8001
8001
8001
8001
8001
8001
8001
8001
8001
8001
8001
8001
FFFF
ENDCHAR
STARTCHAR 25A0
ENCODING 8545
SWIDTH 2000 0
DWIDTH 20 0
BBX 16 15 2 -2
BITMAP
FFFF
FFFF
FFFF
FFFF
FFFF
FFFF
FFFF
FFFF
FFFF
FFFF
FFFF
FFFF
FFFF
FFFF
FFFF
ENDCHAR
STARTCHAR 25B3
ENCODING 8546
SWIDTH 2000 0
DWIDTH 20 0
BBX 16 12 2 0
BITMAP
0180
0240
0240
0420
0810
0810
1008
2008
2004
4002
8002
FFFF
ENDCHAR
STARTCHAR 25B2
ENCODING 8547
SWIDTH 2000 0
DWIDTH 20 0
BBX 16 12 2 0
BITMAP
0180
03C0
03C0
07E0
0FF0
0FF0
1FF8
1FF8
3FFC
7FFE
7FFE
FFFF
ENDCHAR
STARTCHAR 25BD
ENCODING 8548
SWIDTH 2000 0
DWIDTH 20 0
BBX 16 12 2 0
BITMAP
FFFF
8002
4002
2004
2008
1008
0810
0810
0420
0240
0240
0180
ENDCHAR
STARTCHAR 25BC
ENCODING 8549
SWIDTH 2000 0
DWIDTH 20 0
BBX 16 11 2 0
BITMAP
FFFF
7FFE
7FFE
3FFC
1FF8
0FF0
0FF0
07E0
03C0
03C0
0180
ENDCHAR
STARTCHAR 2192
ENCODING 8550
SWIDTH 2000 0
DWIDTH 20 0
BBX 16 6 2 3
BITMAP
0008
0006
0003
FFFF
0006
0008
ENDCHAR
STARTCHAR 2190
ENCODING 8551
SWIDTH 2000 0
DWIDTH 20 0
BBX 17 6 1 3
BITMAP
080000
300000
E00000
7FFF80
300000
080000
ENDCHAR
STARTCHAR 2191
ENCODING 8552
SWIDTH 2000 0
DWIDTH 20 0
BBX 6 18 8 -3
BITMAP
20
30
70
F8
A4
20
20
20
20
20
20
20
20
20
20
20
20
20
ENDCHAR
STARTCHAR 2193
ENCODING 8553
SWIDTH 2000 0
DWIDTH 20 0
BBX 7 18 6 -3
BITMAP
10
10
10
10
10
10
10
10
10
10
10
10
10
92
7C
38
30
10
ENDCHAR
STARTCHAR 2194
ENCODING 8554
SWIDTH 2000 0
DWIDTH 20 0
BBX 16 4 2 4
BITMAP
2006
C003
FFFF
2006
ENDCHAR
STARTCHAR 3013
ENCODING 8555
SWIDTH 2000 0
DWIDTH 20 0
BBX 14 4 3 4
BITMAP
FFFC
0000
0000
FFFC
ENDCHAR
STARTCHAR 226A
ENCODING 8556
SWIDTH 2000 0
DWIDTH 20 0
BBX 15 14 3 -1
BITMAP
0042
008C
0310
0C60
1080
6300
8400
8C00
6300
1080
0C60
0210
018C
0042
ENDCHAR
STARTCHAR 226B
ENCODING 8557
SWIDTH 2000 0
DWIDTH 20 0
BBX 15 14 2 -1
BITMAP
8400
6200
1180
0C60
0210
018C
0042
0042
018C
0210
0C60
1080
6300
8400
ENDCHAR
STARTCHAR 221A
ENCODING 8558
SWIDTH 2000 0
DWIDTH 20 0
BBX 19 18 1 -3
BITMAP
003FE0
002000
002000
004000
004000
008000
008000
008000
010000
010000
220000
720000
F20000
140000
1C0000
0C0000
080000
080000
ENDCHAR
STARTCHAR 223D
ENCODING 8559
SWIDTH 2000 0
DWIDTH 20 0
BBX 16 8 2 2
BITMAP
3C3C
4042
8081
8081
8101
8101
4602
3C3C
ENDCHAR
STARTCHAR 221D
ENCODING 8560
SWIDTH 2000 0
DWIDTH 20 0
BBX 14 8 3 2
BITMAP
3C1C
4260
8180
8180
8180
8180
4240
3C3C
ENDCHAR
STARTCHAR 2235
ENCODING 8561
SWIDTH 2000 0
DWIDTH 20 0
BBX 10 10 6 1
BITMAP
8040
8040
0000
0000
0000
0000
0000
0000
1C00
1C00
ENDCHAR
STARTCHAR 222B
ENCODING 8562
SWIDTH 2000 0
DWIDTH 20 0
BBX 4 17 8 -3
BITMAP
30
F0
80
C0
C0
40
40
60
60
20
30
30
10
10
10
E0
E0
ENDCHAR
STARTCHAR 222C
ENCODING 8563
SWIDTH 2000 0
DWIDTH 20 0
BBX 9 17 5 -3
BITMAP
3380
F400
8400
C600
C200
4200
4300
6300
6100
2100
3180
3180
1080
1080
1080
E700
E200
ENDCHAR
STARTCHAR 2208
ENCODING 8564
SWIDTH 2000 0
DWIDTH 20 0
BBX 14 11 3 0
BITMAP
0FFC
3000
4000
8000
8000
FFFC
8000
8000
4000
2000
1FFC
ENDCHAR
STARTCHAR 220B
ENCODING 8565
SWIDTH 2000 0
DWIDTH 20 0
BBX 14 11 3 0
BITMAP
FFC0
0030
0008
0004
0004
FFFC
0004
0004
000C
0018
FFE0
ENDCHAR
STARTCHAR 2286
ENCODING 8566
SWIDTH 2000 0
DWIDTH 20 0
BBX 13 11 4 0
BITMAP
3FF0
4000
8000
8000
8000
4000
6000
1FF8
0000
0000
FFF0
ENDCHAR
STARTCHAR 2287
ENCODING 8567
SWIDTH 2000 0
DWIDTH 20 0
BBX 13 11 4 0
BITMAP
7FE0
0010
0008
0008
0008
0010
0030
FFC0
0000
0000
FFF0
ENDCHAR
STARTCHAR 2282
ENCODING 8568
SWIDTH 2000 0
DWIDTH 20 0
BBX 15 11 3 0
BITMAP
0FFE
3000
4000
4000
8000
8000
8000
8000
4000
2000
1FFE
ENDCHAR
STARTCHAR 2283
ENCODING 8569
SWIDTH 2000 0
DWIDTH 20 0
BBX 15 11 2 0
BITMAP
FFE0
0018
0004
0002
0002
0002
0002
0002
0004
000C
FFF0
ENDCHAR
STARTCHAR 222A
ENCODING 8570
SWIDTH 2000 0
DWIDTH 20 0
BBX 12 14 4 -1
BITMAP
8010
8010
8010
8010
8010
8010
8010
8010
8010
8010
C030
4020
30C0
1F00
ENDCHAR
STARTCHAR 2229
ENCODING 8571
SWIDTH 2000 0
DWIDTH 20 0
BBX 12 14 4 -1
BITMAP
0F80
30C0
4020
C030
8010
8010
8010
8010
8010
8010
8010
8010
8010
8010
ENDCHAR
STARTCHAR 2227
ENCODING 8572
SWIDTH 2000 0
DWIDTH 20 0
BBX 12 11 4 0
BITMAP
0600
0600
0900
1080
1080
2040
2040
4020
4020
8010
0010
ENDCHAR
STARTCHAR 2228
ENCODING 8573
SWIDTH 2000 0
DWIDTH 20 0
BBX 14 12 3 0
BITMAP
8004
4008
4008
2010
2010
1020
0840
0840
0480
0480
0300
0300
ENDCHAR
STARTCHAR FFE2
ENCODING 8574
SWIDTH 2000 0
DWIDTH 20 0
BBX 13 9 4 0
BITMAP
FFF8
0008
0008
0008
0008
0008
0008
0008
0008
ENDCHAR
STARTCHAR 21D2
ENCODING 8737
SWIDTH 2000 0
DWIDTH 20 0
BBX 18 10 1 1
BITMAP
000800
000600
000300
FFFF80
000040
000040
FFFF80
000100
000200
000400
ENDCHAR
STARTCHAR 21D4
ENCODING 8738
SWIDTH 2000 0
DWIDTH 20 0
BBX 16 10 2 1
BITMAP
0810
1008
2004
5FFA
8001
8001
7FFE
2004
1008
0810
ENDCHAR
STARTCHAR 2200
ENCODING 8739
SWIDTH 2000 0
DWIDTH 20 0
BBX 14 14 3 0
BITMAP
8004
4008
4008
2010
3FF0
1020
1020
0840
0840
0840
0480
0480
0300
0300
ENDCHAR
STARTCHAR 2203
ENCODING 8740
SWIDTH 2000 0
DWIDTH 20 0
BBX 10 13 5 0
BITMAP
7FC0
0040
0040
0040
0040
0040
FFC0
0040
0040
0040
0040
0040
FFC0
ENDCHAR
STARTCHAR 00B4
ENCODING 8741
SWIDTH 2000 0
DWIDTH 20 0
BBX 4 3 8 13
BITMAP
70
C0
80
ENDCHAR
STARTCHAR FF5E
ENCODING 8742
SWIDTH 2000 0
DWIDTH 20 0
BBX 8 3 6 13
BITMAP
60
FC
1F
ENDCHAR
STARTCHAR 02C7
ENCODING 8743
SWIDTH 2000 0
DWIDTH 20 0
BBX 8 3 6 13
BITMAP
81
66
3C
ENDCHAR
STARTCHAR 02D8
ENCODING 8744
SWIDTH 2000 0
DWIDTH 20 0
BBX 8 3 6 13
BITMAP
81
82
7E
ENDCHAR
STARTCHAR 02DD
ENCODING 8745
SWIDTH 2000 0
DWIDTH 20 0
BBX 6 3 7 13
BITMAP
6C
90
20
ENDCHAR
STARTCHAR 02DA
ENCODING 8746
SWIDTH 2000 0
DWIDTH 20 0
BBX 4 4 8 12
BITMAP
60
90
90
60
ENDCHAR
STARTCHAR 02D9
ENCODING 8747
SWIDTH 2000 0
DWIDTH 20 0
BBX 3 2 9 5
BITMAP
E0
E0
ENDCHAR
STARTCHAR 00B8
ENCODING 8748
SWIDTH 2000 0
DWIDTH 20 0
BBX 4 4 8 -3
BITMAP
20
70
20
E0
ENDCHAR
STARTCHAR 02DB
ENCODING 8749
SWIDTH 2000 0
DWIDTH 20 0
BBX 3 3 8 -3
BITMAP
40
80
60
ENDCHAR
STARTCHAR 00A1
ENCODING 8750
SWIDTH 2000 0
DWIDTH 20 0
BBX 3 14 8 0
BITMAP
20
20
00
00
40
40
40
40
40
40
40
E0
E0
E0
ENDCHAR
STARTCHAR 00BF
ENCODING 8751
SWIDTH 2000 0
DWIDTH 20 0
BBX 6 14 7 0
BITMAP
10
10
00
00
08
08
08
78
E0
80
80
80
4C
3C
ENDCHAR
STARTCHAR 02D0
ENCODING 8752
SWIDTH 2000 0
DWIDTH 20 0
BBX 2 8 9 2
BITMAP
C0
C0
00
00
00
00
C0
C0
ENDCHAR
STARTCHAR 222E
ENCODING 8753
SWIDTH 2000 0
DWIDTH 20 0
BBX 7 15 6 -1
BITMAP
06
08
08
08
08
18
7C
5C
5C
38
10
10
20
20
C0
ENDCHAR
STARTCHAR 2211
ENCODING 8754
SWIDTH 2000 0
DWIDTH 20 0
BBX 16 16 2 -2
BITMAP
FFFF
7001
3801
1C01
0E01
0701
0381
00C0
0080
0100
0200
0C01
1801
3001
7FFF
FFFF
ENDCHAR
STARTCHAR 220F
ENCODING 8755
SWIDTH 2000 0
DWIDTH 20 0
BBX 14 16 4 -2
BITMAP
FFFC
2010
2010
2010
2010
2010
2010
2010
2010
2010
2010
2010
2010
2010
2010
F87C
ENDCHAR
STARTCHAR 00A4
ENCODING 8756
SWIDTH 2000 0
DWIDTH 20 0
BBX 14 14 3 -1
BITMAP
8000
4F84
3878
2010
2010
4008
4008
4008
4008
6010
2010
3870
6788
C004
ENDCHAR
STARTCHAR 2109
ENCODING 8757
SWIDTH 2000 0
DWIDTH 20 0
BBX 17 14 1 -1
BITMAP
03FF00
708300
908180
D08080
708400
008400
00FC00
008C00
008400
008000
008000
008000
008000
03E000
ENDCHAR
STARTCHAR 2030
ENCODING 8758
SWIDTH 2000 0
DWIDTH 20 0
BBX 18 17 1 -2
BITMAP
1C0800
240800
421000
422000
424000
424000
428000
250000
3EE380
05B6C0
051440
091440
111440
211440
211440
40A280
80E380
ENDCHAR
STARTCHAR 25C1
ENCODING 8759
SWIDTH 2000 0
DWIDTH 20 0
BBX 12 16 4 -2
BITMAP
0010
0030
00D0
0310
0410
1810
2010
C010
C010
2010
1810
0410
0310
00D0
0030
0010
ENDCHAR
STARTCHAR 25C0
ENCODING 8760
SWIDTH 2000 0
DWIDTH 20 0
BBX 12 16 4 -2
BITMAP
0010
0070
00F0
03F0
0FF0
1FF0
7FF0
FFF0
FFF0
7FF0
1FF0
0FF0
03F0
00F0
0070
0010
ENDCHAR
STARTCHAR 25B7
ENCODING 8761
SWIDTH 2000 0
DWIDTH 20 0
BBX 12 16 4 -2
BITMAP
8000
C000
B000
8800
8600
8180
8040
8030
8010
8060
8180
8200
8C00
B000
C000
8000
ENDCHAR
STARTCHAR 25B6
ENCODING 8762
SWIDTH 2000 0
DWIDTH 20 0
BBX 11 14 5 -1
BITMAP
C000
E000
F800
FE00
FF00
FFC0
FFE0
FFE0
FFC0
FF00
FE00
F800
E000
C000
ENDCHAR
STARTCHAR 2664
ENCODING 8763
SWIDTH 2000 0
DWIDTH 20 0
BBX 14 17 3 -2
BITMAP
0200
0500
0880
0840
1020
2020
4010
4008
8008
8004
8004
8004
C48C
7CF8
0880
0880
0FC0
ENDCHAR
STARTCHAR 2660
ENCODING 8764
SWIDTH 2000 0
DWIDTH 20 0
BBX 14 16 3 -2
BITMAP
0300
0780
0FC0
1FE0
1FF0
3FF0
7FF8
7FFC
FFFC
FFFC
FFFC
FFFC
7B78
0300
0780
0F80
ENDCHAR
STARTCHAR 2661
ENCODING 8765
SWIDTH 2000 0
DWIDTH 20 0
BBX 15 16 2 -2
BITMAP
1E78
2244
4182
4002
8002
4002
4002
4002
2004
2004
1008
1010
0820
0420
0240
0180
ENDCHAR
STARTCHAR 2665
ENCODING 8766
SWIDTH 2000 0
DWIDTH 20 0
BBX 16 17 2 -3
BITMAP
3C3C
7E7E
FFFF
FFFF
FFFF
FFFF
FFFF
7FFE
7FFE
3FFC
1FFC
1FF8
0FF0
07E0
03C0
03C0
0180
ENDCHAR
STARTCHAR 2667
ENCODING 8767
SWIDTH 2000 0
DWIDTH 20 0
BBX 18 17 1 -2
BITMAP
01E000
021000
040800
040800
040800
040800
021000
7F3F80
4000C0
800040
800040
800040
C17080
672B80
192400
022000
03F000
ENDCHAR
STARTCHAR 2663
ENCODING 8768
SWIDTH 2000 0
DWIDTH 20 0
BBX 17 17 1 -2
BITMAP
01E000
03F000
07F800
07F800
07F800
03F000
1BE000
3FFF00
7FFF80
FFFF80
FFFF80
7FFF80
7EDF80
3CCF00
01C000
01E000
01E000
ENDCHAR
STARTCHAR 2299
ENCODING 8769
SWIDTH 2000 0
DWIDTH 20 0
BBX 16 16 2 -2
BITMAP
07E0
1818
2184
67E2
4FF2
9FF9
9FF9
9FF9
9FF9
9FF9
9FF9
4FF2
47E2
2004
1818
07E0
ENDCHAR
STARTCHAR 25C8
ENCODING 8770
SWIDTH 2000 0
DWIDTH 20 0
BBX 18 18 1 -3
BITMAP
008000
016000
021000
04C800
09E400
13F200
27F900
4FFC80
9FFE40
CFFCC0
67F980
33F300
19E600
0CCC00
061800
033000
01E000
008000
ENDCHAR
STARTCHAR 25A3
ENCODING 8771
SWIDTH 2000 0
DWIDTH 20 0
BBX 16 16 2 -2
BITMAP
FFFF
8001
8001
8001
8FF1
8FF1
8FF1
8FF1
8FF1
8FF1
8FF1
8FF1
8001
8001
8001
FFFF
ENDCHAR
STARTCHAR 25D0
ENCODING 8772
SWIDTH 2000 0
DWIDTH 20 0
BBX 17 16 1 -2
BITMAP
03F000
0F1C00
1F0600
3F0300
7F0100
7F0080
7F0080
FF0080
FF0080
7F0080
7F0080
7F0100
3F0300
1F0600
0F1C00
03F000
ENDCHAR
STARTCHAR 25D1
ENCODING 8773
SWIDTH 2000 0
DWIDTH 20 0
BBX 16 16 2 -2
BITMAP
07E0
1C78
307C
607E
407F
807F
807F
807F
807F
807F
C07F
407F
607E
307C
1C78
07E0
ENDCHAR
STARTCHAR 2592
ENCODING 8774
SWIDTH 2000 0
DWIDTH 20 0
BBX 16 16 2 -2
BITMAP
FFFF
A493
8001
C929
A493
C929
8001
A493
C929
A493
8001
C929
A493
8001
C929
FFFF
ENDCHAR
STARTCHAR 25A4
ENCODING 8775
SWIDTH 2000 0
DWIDTH 20 0
BBX 16 16 2 -2
BITMAP
FFFF
8001
8001
8001
FFFF
8001
8001
FFFF
8001
8001
8001
FFFF
8001
8001
8001
FFFF
ENDCHAR
STARTCHAR 25A5
ENCODING 8776
SWIDTH 2000 0
DWIDTH 20 0
BBX 16 16 2 -2
BITMAP
FFFF
8891
8891
8891
8891
8891
8891
8891
8891
8891
8891
8891
8891
8891
8891
FFFF
ENDCHAR
STARTCHAR 25A8
ENCODING 8777
SWIDTH 2000 0
DWIDTH 20 0
BBX 16 16 2 -2
BITMAP
FFFF
8103
8205
8409
8811
9021
A041
C081
8103
8205
8409
8811
9021
A041
C081
FFFF
ENDCHAR
STARTCHAR 25A7
ENCODING 8778
SWIDTH 2000 0
DWIDTH 20 0
BBX 16 16 2 -2
BITMAP
FFFF
C081
A041
9021
8811
8409
8205
8103
C081
A041
9021
8811
8409
8205
8103
FFFF
ENDCHAR
STARTCHAR 25A6
ENCODING 8779
SWIDTH 2000 0
DWIDTH 20 0
BBX 16 16 2 -2
BITMAP
FFFF
8891
8891
8891
FFFF
8891
8891
FFFF
8891
8891
8891
FFFF
8891
8891
8891
FFFF
ENDCHAR
STARTCHAR 25A9
ENCODING 8780
SWIDTH 2000 0
DWIDTH 20 0
BBX 16 16 2 -2
BITMAP
FFFF
C283
A445
9829
8819
B425
C243
8181
C283
A445
9829
8811
B429
E245
C183
FFFF
ENDCHAR
STARTCHAR 2668
ENCODING 8781
SWIDTH 2000 0
DWIDTH 20 0
BBX 16 16 2 -2
BITMAP
0080
04A0
05A0
0D20
0D20
0DA0
0DB0
05B0
06D0
24B4
45A3
8D21
8903
E00E
7FFC
1FF0
ENDCHAR
STARTCHAR 260F
ENCODING 8782
SWIDTH 2000 0
DWIDTH 20 0
BBX 17 13 1 0
BITMAP
07F000
380E00
4DF900
961880
95F880
B61780
CC0800
140C00
240C00
440A00
421200
81E200
7FFE00
ENDCHAR
STARTCHAR 260E
ENCODING 8783
SWIDTH 2000 0
DWIDTH 20 0
BBX 18 13 1 0
BITMAP
03F000
1FFE00
7FFF80
F61BC0
FFFFC0
F61BC0
0C1C00
1C0E00
180E00
3C0F00
3C1F00
7E1F00
7FFF00
ENDCHAR
STARTCHAR 261C
ENCODING 8784
SWIDTH 2000 0
DWIDTH 20 0
BBX 20 9 0 2
BITMAP
03F800
7C3F70
80C0D0
7F7050
05B850
03D450
01F0D0
00A720
005800
ENDCHAR
STARTCHAR 261E
ENCODING 8785
SWIDTH 2000 0
DWIDTH 20 0
BBX 18 8 1 2
BITMAP
07FE00
D841C0
E03FC0
C3F400
C57C00
C1C800
F8B000
0FE000
ENDCHAR
STARTCHAR 00B6
ENCODING 8786
SWIDTH 2000 0
DWIDTH 20 0
BBX 11 17 4 -3
BITMAP
3E20
4220
8220
8220
8220
4220
3E20
0220
0220
0220
0220
0220
0220
0220
0220
0220
0020
ENDCHAR
STARTCHAR 2020
ENCODING 8787
SWIDTH 2000 0
DWIDTH 20 0
BBX 11 18 5 -3
BITMAP
0400
0400
0400
0400
0400
FFE0
0400
0400
0400
0400
0400
0400
0400
0400
0400
0400
0400
0400
ENDCHAR
STARTCHAR 2021
ENCODING 8788
SWIDTH 2000 0
DWIDTH 20 0
BBX 11 18 4 -3
BITMAP
0400
0400
0400
FFE0
0400
0400
7FC0
0400
0400
0400
0400
0400
0400
0400
0400
0400
0400
0400
ENDCHAR
STARTCHAR 2195
ENCODING 8789
SWIDTH 2000 0
DWIDTH 20 0
BBX 5 14 8 -1
BITMAP
60
D0
40
40
40
40
40
40
40
40
40
40
D8
60
ENDCHAR
STARTCHAR 2197
ENCODING 8790
SWIDTH 2000 0
DWIDTH 20 0
BBX 13 12 3 0
BITMAP
01F8
0030
0070
0090
0100
0200
0400
0800
1000
2000
4000
8000
ENDCHAR
STARTCHAR 2199
ENCODING 8791
SWIDTH 2000 0
DWIDTH 20 0
BBX 12 12 4 0
BITMAP
0010
0020
0040
0080
0100
0200
0400
8800
9000
E000
C000
F800
ENDCHAR
STARTCHAR 2196
ENCODING 8792
SWIDTH 2000 0
DWIDTH 20 0
BBX 13 11 4 0
BITMAP
7C00
6000
5000
8800
0400
0200
0100
0080
0040
0030
0008
ENDCHAR
STARTCHAR 2198
ENCODING 8793
SWIDTH 2000 0
DWIDTH 20 0
BBX 12 12 4 0
BITMAP
8000
4000
2000
1000
0800
0400
0200
0110
0090
0050
0030
01F0
ENDCHAR
STARTCHAR 266D
ENCODING 8794
SWIDTH 2000 0
DWIDTH 20 0
BBX 6 13 7 0
BITMAP
80
80
80
80
B8
CC
84
84
84
88
90
A0
C0
ENDCHAR
STARTCHAR 2669
ENCODING 8795
SWIDTH 2000 0
DWIDTH 20 0
BBX 5 16 7 -2
BITMAP
08
08
08
08
08
08
08
08
08
08
08
08
08
38
78
F0
ENDCHAR
STARTCHAR 266A
ENCODING 8796
SWIDTH 2000 0
DWIDTH 20 0
BBX 10 16 4 -2
BITMAP
0800
0C00
0E00
0F80
09C0
08C0
0840
0840
0840
0840
0880
0800
0800
7800
F000
6000
ENDCHAR
STARTCHAR 266C
ENCODING 8797
SWIDTH 2000 0
DWIDTH 20 0
BBX 14 15 3 -2
BITMAP
0FFC
0FFC
0804
0FFC
0FFC
0804
0804
0804
0804
0804
0804
381C
703C
F078
4000
ENDCHAR
STARTCHAR 327F
ENCODING 8798
SWIDTH 2000 0
DWIDTH 20 0
BBX 16 16 2 -2
BITMAP
07F0
1C1C
3006
6432
4463
C4C0
C580
F78F
0681
0441
0463
C432
6006
300C
1838
07E0
ENDCHAR
STARTCHAR 321C
ENCODING 8799
SWIDTH 2000 0
DWIDTH 20 0
BBX 18 15 1 -1
BITMAP
200100
4FF900
443080
406080
808040
837C40
8C0240
900440
BFFE40
808040
808040
808080
408080
408080
208100
ENDCHAR
STARTCHAR 2116
ENCODING 8800
SWIDTH 2000 0
DWIDTH 20 0
BBX 18 15 1 -1
BITMAP
838000
610000
610000
610000
510000
510E00
491100
492080
452080
452080
432080
432080
411140
E11140
000E00
ENDCHAR
STARTCHAR 33C7
ENCODING 8801
SWIDTH 2000 0
DWIDTH 20 0
BBX 17 15 2 -1
BITMAP
1E0000
620000
420000
810000
800000
803C00
802600
804200
804200
804200
814200
C14200
624480
3C2480
001800
ENDCHAR
STARTCHAR 2122
ENCODING 8802
SWIDTH 2000 0
DWIDTH 20 0
BBX 17 14 2 0
BITMAP
FEC380
926300
126300
106300
106500
106500
105500
105500
105500
105900
104900
104900
104900
78EB80
ENDCHAR
STARTCHAR 33C2
ENCODING 8803
SWIDTH 2000 0
DWIDTH 20 0
BBX 18 10 1 -1
BITMAP
707F00
884900
C84900
084900
384900
C84900
884900
8A4900
FDEB40
000080
ENDCHAR
STARTCHAR 33D8
ENCODING 8804
SWIDTH 2000 0
DWIDTH 20 0
BBX 18 12 1 -3
BITMAP
F87F00
484900
444900
444900
444900
444900
444900
444900
6BC940
500080
400000
400000
ENDCHAR
STARTCHAR 2121
ENCODING 8805
SWIDTH 2000 0
DWIDTH 20 0
BBX 18 15 1 -1
BITMAP
7F8000
C88180
884080
084080
081880
082480
084480
084480
084680
087880
084080
084080
086280
3C35C0
000800
ENDCHAR
STARTCHAR FF01
ENCODING 8993
SWIDTH 2000 0
DWIDTH 20 0
BBX 2 14 9 0
BITMAP
C0
C0
C0
40
40
40
40
40
40
40
00
00
40
40
ENDCHAR
STARTCHAR FF02
ENCODING 8994
SWIDTH 2000 0
DWIDTH 20 0
BBX 6 4 7 12
BITMAP
6C
48
58
90
ENDCHAR
STARTCHAR FF03
ENCODING 8995
SWIDTH 2000 0
DWIDTH 20 0
BBX 8 16 6 -2
BITMAP
10
12
12
22
22
FF
22
24
24
24
44
FF
44
48
48
48
ENDCHAR
STARTCHAR FF04
ENCODING 8996
SWIDTH 2000 0
DWIDTH 20 0
BBX 11 18 4 -3
BITMAP
0900
0F00
39C0
4940
4920
4900
4900
3900
1F80
0BE0
0960
0920
8920
4920
6940
1F80
0900
0900
ENDCHAR
STARTCHAR FF05
ENCODING 8997
SWIDTH 2000 0
DWIDTH 20 0
BBX 16 17 2 -3
BITMAP
3C01
4202
4204
4208
4210
4220
4240
2480
1900
023C
0642
0C42
1842
3042
6042
C064
003C
ENDCHAR
STARTCHAR FF06
ENCODING 8998
SWIDTH 2000 0
DWIDTH 20 0
BBX 13 14 3 -1
BITMAP
1F80
1080
1080
1180
1F00
0C00
3C38
4610
C610
8320
C1A0
C0C0
71C0
3E78
ENDCHAR
STARTCHAR FF07
ENCODING 8999
SWIDTH 2000 0
DWIDTH 20 0
BBX 2 5 9 11
BITMAP
C0
C0
C0
80
80
ENDCHAR
STARTCHAR FF08
ENCODING 9000
SWIDTH 2000 0
DWIDTH 20 0
BBX 3 16 15 -2
BITMAP
20
40
40
80
80
80
80
80
80
80
80
80
80
40
40
20
ENDCHAR
STARTCHAR FF09
ENCODING 9001
SWIDTH 2000 0
DWIDTH 20 0
BBX 4 17 1 -3
BITMAP
40
20
20
20
10
10
10
10
10
10
10
10
10
20
20
40
80
ENDCHAR
STARTCHAR FF0A
ENCODING 9002
SWIDTH 2000 0
DWIDTH 20 0
BBX 7 8 7 2
BITMAP
10
10
94
78
38
D6
10
10
ENDCHAR
STARTCHAR FF0B
ENCODING 9003
SWIDTH 2000 0
DWIDTH 20 0
BBX 11 12 4 0
BITMAP
0400
0400
0400
0400
0400
0400
FFE0
0400
0400
0400
0400
0400
ENDCHAR
STARTCHAR FF0C
ENCODING 9004
SWIDTH 2000 0
DWIDTH 20 0
BBX 2 5 1 -3
BITMAP
C0
C0
40
40
80
ENDCHAR
STARTCHAR FF0D
ENCODING 9005
SWIDTH 2000 0
DWIDTH 20 0
BBX 11 1 5 5
BITMAP
FFE0
ENDCHAR
STARTCHAR FF0E
ENCODING 9006
SWIDTH 2000 0
DWIDTH 20 0
BBX 1 2 1 0
BITMAP
80
80
ENDCHAR
STARTCHAR FF0F
ENCODING 9007
SWIDTH 2000 0
DWIDTH 20 0
BBX 18 18 1 -3
BITMAP
000040
000080
000100
000200
000400
000800
001000
002000
004000
008000
010000
020000
040000
080000
100000
200000
400000
800000
ENDCHAR
STARTCHAR FF10
ENCODING 9008
SWIDTH 2000 0
DWIDTH 20 0
BBX 8 15 6 -1
BITMAP
3C
62
42
81
81
81
81
81
81
81
81
82
42
44
38
ENDCHAR
STARTCHAR FF11
ENCODING 9009
SWIDTH 2000 0
DWIDTH 20 0
BBX 7 14 7 0
BITMAP
30
50
10
10
10
10
10
10
10
10
10
10
10
FE
ENDCHAR
STARTCHAR FF12
ENCODING 9010
SWIDTH 2000 0
DWIDTH 20 0
BBX 8 14 6 0
BITMAP
3C
42
43
C1
43
02
06
04
08
10
20
41
42
FE
ENDCHAR
STARTCHAR FF13
ENCODING 9011
SWIDTH 2000 0
DWIDTH 20 0
BBX 7 15 7 -1
BITMAP
30
C8
84
84
04
04
08
38
04
02
02
82
82
C4
78
ENDCHAR
STARTCHAR FF14
ENCODING 9012
SWIDTH 2000 0
DWIDTH 20 0
BBX 7 14 6 0
BITMAP
04
04
0C
14
14
24
24
44
44
84
7E
04
04
0E
ENDCHAR
STARTCHAR FF15
ENCODING 9013
SWIDTH 2000 0
DWIDTH 20 0
BBX 7 14 7 -1
BITMAP
FC
80
80
80
80
F8
84
02
02
02
82
86
C4
38
ENDCHAR
STARTCHAR FF16
ENCODING 9014
SWIDTH 2000 0
DWIDTH 20 0
BBX 8 14 6 0
BITMAP
1E
26
42
80
80
8C
F2
81
81
81
81
41
42
3C
ENDCHAR
STARTCHAR FF17
ENCODING 9015
SWIDTH 2000 0
DWIDTH 20 0
BBX 8 14 6 -1
BITMAP
7F
42
82
04
04
08
08
08
10
10
30
30
30
30
ENDCHAR
STARTCHAR FF18
ENCODING 9016
SWIDTH 2000 0
DWIDTH 20 0
BBX 8 14 6 0
BITMAP
3C
66
42
42
42
64
3C
46
43
C1
C1
C1
42
3C
ENDCHAR
STARTCHAR FF19
ENCODING 9017
SWIDTH 2000 0
DWIDTH 20 0
BBX 8 15 6 -1
BITMAP
3C
46
C2
81
81
81
81
43
3D
01
02
02
64
2C
10
ENDCHAR
STARTCHAR FF1A
ENCODING 9018
SWIDTH 2000 0
DWIDTH 20 0
BBX 1 9 9 0
BITMAP
80
80
00
00
00
00
00
80
80
ENDCHAR
STARTCHAR FF1B
ENCODING 9019
SWIDTH 2000 0
DWIDTH 20 0
BBX 2 11 9 -2
BITMAP
40
40
00
00
00
00
00
C0
C0
40
80
ENDCHAR
STARTCHAR FF1C
ENCODING 9020
SWIDTH 2000 0
DWIDTH 20 0
BBX 12 12 4 0
BITMAP
0010
0060
0380
0C00
3000
C000
C000
3000
0C00
0300
00C0
0030
ENDCHAR
STARTCHAR FF1D
ENCODING 9021
SWIDTH 2000 0
DWIDTH 20 0
BBX 14 4 3 4
BITMAP
FFFC
0000
0000
FFFC
ENDCHAR
STARTCHAR FF1E
ENCODING 9022
SWIDTH 2000 0
DWIDTH 20 0
BBX 12 12 4 0
BITMAP
8000
6000
1800
0600
0180
0070
0030
00C0
0300
0C00
3000
C000
ENDCHAR
STARTCHAR FF1F
ENCODING 9023
SWIDTH 2000 0
DWIDTH 20 0
BBX 8 14 6 -1
BITMAP
3C
42
C3
C3
02
06
0C
08
10
10
00
00
08
08
ENDCHAR
STARTCHAR FF20
ENCODING 9024
SWIDTH 2000 0
DWIDTH 20 0
BBX 12 13 4 -1
BITMAP
0780
1860
2020
4150
86D0
88D0
9090
9090
9BA0
4CC0
4010
3020
0FC0
ENDCHAR
STARTCHAR FF21
ENCODING 9025
SWIDTH 2000 0
DWIDTH 20 0
BBX 14 13 3 0
BITMAP
0300
0500
0580
0480
0880
08C0
1040
1FE0
1020
2020
2030
2010
F07C
ENDCHAR
STARTCHAR FF22
ENCODING 9026
SWIDTH 2000 0
DWIDTH 20 0
BBX 12 14 4 0
BITMAP
FE00
21C0
2020
2020
2020
2040
2180
3E40
2020
2010
2010
2010
2020
FDC0
ENDCHAR
STARTCHAR FF23
ENCODING 9027
SWIDTH 2000 0
DWIDTH 20 0
BBX 12 14 4 0
BITMAP
0F40
30E0
4020
4000
8000
8000
8000
8000
8000
8000
C010
4020
3040
1F80
ENDCHAR
STARTCHAR FF24
ENCODING 9028
SWIDTH 2000 0
DWIDTH 20 0
BBX 13 14 4 0
BITMAP
FF80
2060
2010
2010
2008
2008
2008
2008
2008
2008
2010
2010
2060
FF80
ENDCHAR
STARTCHAR FF25
ENCODING 9029
SWIDTH 2000 0
DWIDTH 20 0
BBX 12 14 4 0
BITMAP
FFC0
2060
2020
2000
2000
2100
2100
3F00
2100
2100
2010
2020
20E0
FFC0
ENDCHAR
STARTCHAR FF26
ENCODING 9030
SWIDTH 2000 0
DWIDTH 20 0
BBX 11 14 5 0
BITMAP
FFC0
20E0
2020
2000
2000
2100
2300
3F00
2100
2000
2000
2000
2000
F800
ENDCHAR
STARTCHAR FF27
ENCODING 9031
SWIDTH 2000 0
DWIDTH 20 0
BBX 13 15 4 -1
BITMAP
0600
19E0
2020
4000
8000
8000
8000
8000
80F8
8020
8020
4020
2020
1060
0F80
ENDCHAR
STARTCHAR FF28
ENCODING 9032
SWIDTH 2000 0
DWIDTH 20 0
BBX 14 14 3 0
BITMAP
F87C
2010
2010
2010
2010
2010
3FF0
2010
2010
2010
2010
2010
2010
F87C
ENDCHAR
STARTCHAR FF29
ENCODING 9033
SWIDTH 2000 0
DWIDTH 20 0
BBX 5 14 8 0
BITMAP
F8
20
20
20
20
20
20
20
20
20
20
20
20
F8
ENDCHAR
STARTCHAR FF2A
ENCODING 9034
SWIDTH 2000 0
DWIDTH 20 0
BBX 7 16 7 -2
BITMAP
7E
08
08
08
08
08
08
08
08
08
08
08
08
08
D0
F0
ENDCHAR
STARTCHAR FF2B
ENCODING 9035
SWIDTH 2000 0
DWIDTH 20 0
BBX 14 14 3 0
BITMAP
F8F8
2060
2040
2080
2100
2200
2600
3B00
2100
2080
20C0
2040
2020
F8FC
ENDCHAR
STARTCHAR FF2C
ENCODING 9036
SWIDTH 2000 0
DWIDTH 20 0
BBX 11 14 5 0
BITMAP
F800
2000
2000
2000
2000
2000
2000
2000
2000
2000
2020
2020
20C0
FFC0
ENDCHAR
STARTCHAR FF2D
ENCODING 9037
SWIDTH 2000 0
DWIDTH 20 0
BBX 17 14 1 0
BITMAP
F00780
300600
280A00
280A00
281200
241200
241200
222200
222200
224200
214200
214200
208200
F88F80
ENDCHAR
STARTCHAR FF2E
ENCODING 9038
SWIDTH 2000 0
DWIDTH 20 0
BBX 14 14 3 0
BITMAP
E07C
3010
3010
2810
2410
2410
2210
2110
2090
2090
2050
2030
2010
F810
ENDCHAR
STARTCHAR FF2F
ENCODING 9039
SWIDTH 2000 0
DWIDTH 20 0
BBX 12 14 4 0
BITMAP
1F80
30C0
4020
4020
8010
8010
8010
8010
8010
8010
4020
4020
30C0
1F80
ENDCHAR
STARTCHAR FF30
ENCODING 9040
SWIDTH 2000 0
DWIDTH 20 0
BBX 11 14 5 0
BITMAP
FF80
20C0
2020
2020
2020
2020
20C0
3F80
2000
2000
2000
2000
2000
FC00
ENDCHAR
STARTCHAR FF31
ENCODING 9041
SWIDTH 2000 0
DWIDTH 20 0
BBX 12 16 4 -2
BITMAP
1F80
30C0
6020
C030
C010
8010
8010
8010
8010
8010
8010
BE20
6140
3080
0FC0
00F0
ENDCHAR
STARTCHAR FF32
ENCODING 9042
SWIDTH 2000 0
DWIDTH 20 0
BBX 12 14 4 0
BITMAP
FF80
2040
2020
2020
2020
2040
2080
3F00
2300
2100
2180
20C0
2040
F870
ENDCHAR
STARTCHAR FF33
ENCODING 9043
SWIDTH 2000 0
DWIDTH 20 0
BBX 10 15 5 -1
BITMAP
3D00
4380
8080
8000
8000
4000
3C00
0700
0180
00C0
0040
8040
C080
7100
0E00
ENDCHAR
STARTCHAR FF34
ENCODING 9044
SWIDTH 2000 0
DWIDTH 20 0
BBX 13 14 4 0
BITMAP
5DC0
E230
8208
0200
0200
0200
0200
0200
0200
0200
0200
0200
0200
0F80
ENDCHAR
STARTCHAR FF35
ENCODING 9045
SWIDTH 2000 0
DWIDTH 20 0
BBX 14 14 3 0
BITMAP
F03C
2010
2010
2010
2010
2010
2010
2010
2010
2010
2010
2010
1060
0FC0
ENDCHAR
STARTCHAR FF36
ENCODING 9046
SWIDTH 2000 0
DWIDTH 20 0
BBX 14 13 3 1
BITMAP
F87C
2010
1010
1020
1020
0840
0840
0C40
0480
0480
0280
0300
0300
ENDCHAR
STARTCHAR FF37
ENCODING 9047
SWIDTH 2000 0
DWIDTH 20 0
BBX 20 14 0 0
BITMAP
F9F1F0
206040
302080
106080
106080
18B100
089100
089100
0D1A00
050A00
050A00
060C00
020400
020400
ENDCHAR
STARTCHAR FF38
ENCODING 9048
SWIDTH 2000 0
DWIDTH 20 0
BBX 13 14 3 0
BITMAP
7C78
1020
0840
0880
0480
0300
0200
0300
0480
0880
1040
1040
3020
F8F8
ENDCHAR
STARTCHAR FF39
ENCODING 9049
SWIDTH 2000 0
DWIDTH 20 0
BBX 13 14 4 0
BITMAP
F8F8
6020
2040
1040
1880
0880
0500
0600
0200
0200
0200
0200
0200
0FC0
ENDCHAR
STARTCHAR FF3A
ENCODING 9050
SWIDTH 2000 0
DWIDTH 20 0
BBX 10 14 5 0
BITMAP
0F80
70C0
4080
8100
0300
0200
0400
0800
0800
1000
2000
2040
40C0
FF80
ENDCHAR
STARTCHAR FF3B
ENCODING 9051
SWIDTH 2000 0
DWIDTH 20 0
BBX 4 18 15 -3
BITMAP
F0
80
80
80
80
80
80
80
80
80
80
80
80
80
80
80
80
F0
ENDCHAR
STARTCHAR FFE6
ENCODING 9052
SWIDTH 2000 0
DWIDTH 20 0
BBX 18 13 1 0
BITMAP
E1C1C0
408080
60C100
20C100
FFFFC0
214200
112200
FFFFC0
122400
0A3400
0A1800
0C1800
0C1800
ENDCHAR
STARTCHAR FF3D
ENCODING 9053
SWIDTH 2000 0
DWIDTH 20 0
BBX 4 18 1 -3
BITMAP
F0
10
10
10
10
10
10
10
10
10
10
10
10
10
10
10
10
F0
ENDCHAR
STARTCHAR FF3E
ENCODING 9054
SWIDTH 2000 0
DWIDTH 20 0
BBX 6 3 7 12
BITMAP
30
78
84
ENDCHAR
STARTCHAR FF3F
ENCODING 9055
SWIDTH 2000 0
DWIDTH 20 0
BBX 18 1 1 -3
BITMAP
FFFFC0
ENDCHAR
STARTCHAR FF40
ENCODING 9056
SWIDTH 2000 0
DWIDTH 20 0
BBX 4 8 8 8
BITMAP
C0
C0
40
60
20
10
10
10
ENDCHAR
STARTCHAR FF41
ENCODING 9057
SWIDTH 2000 0
DWIDTH 20 0
BBX 9 9 6 0
BITMAP
7C00
C200
C200
0200
3E00
4200
8200
8200
FF80
ENDCHAR
STARTCHAR FF42
ENCODING 9058
SWIDTH 2000 0
DWIDTH 20 0
BBX 10 15 4 -1
BITMAP
2000
E000
2000
2000
2000
2F00
3080
2040
2040
2040
2040
2040
2080
3900
0600
ENDCHAR
STARTCHAR FF43
ENCODING 9059
SWIDTH 2000 0
DWIDTH 20 0
BBX 8 10 6 -1
BITMAP
3E
43
C0
80
80
80
80
41
26
18
ENDCHAR
STARTCHAR FF44
ENCODING 9060
SWIDTH 2000 0
DWIDTH 20 0
BBX 9 14 6 0
BITMAP
0100
0700
0100
0100
0100
3D00
4300
8100
8100
8100
8100
8100
4100
7F80
ENDCHAR
STARTCHAR FF45
ENCODING 9061
SWIDTH 2000 0
DWIDTH 20 0
BBX 8 10 6 0
BITMAP
3C
42
41
81
FF
80
80
80
41
3E
ENDCHAR
STARTCHAR FF46
ENCODING 9062
SWIDTH 2000 0
DWIDTH 20 0
BBX 6 14 7 0
BITMAP
1C
24
20
20
20
FC
20
20
20
20
20
20
20
F8
ENDCHAR
STARTCHAR FF47
ENCODING 9063
SWIDTH 2000 0
DWIDTH 20 0
BBX 10 12 5 -3
BITMAP
3CC0
6300
4100
4100
4100
4200
7C00
7000
4F00
8080
C180
7F00
ENDCHAR
STARTCHAR FF48
ENCODING 9064
SWIDTH 2000 0
DWIDTH 20 0
BBX 9 14 5 0
BITMAP
2000
6000
2000
2000
2000
2E00
3100
2100
2100
2100
2100
2100
2100
FB80
ENDCHAR
STARTCHAR FF49
ENCODING 9065
SWIDTH 2000 0
DWIDTH 20 0
BBX 4 14 7 0
BITMAP
10
10
00
00
20
E0
20
20
20
20
20
20
20
F0
ENDCHAR
STARTCHAR FF4A
ENCODING 9066
SWIDTH 2000 0
DWIDTH 20 0
BBX 4 17 8 -3
BITMAP
10
10
00
00
00
30
10
10
10
10
10
10
10
10
10
D0
E0
ENDCHAR
STARTCHAR FF4B
ENCODING 9067
SWIDTH 2000 0
DWIDTH 20 0
BBX 10 13 4 0
BITMAP
E000
2000
2000
2000
23C0
2100
2200
2400
3C00
2200
2300
2100
71C0
ENDCHAR
STARTCHAR FF4C
ENCODING 9068
SWIDTH 2000 0
DWIDTH 20 0
BBX 3 14 9 0
BITMAP
40
C0
40
40
40
40
40
40
40
40
40
40
40
E0
ENDCHAR
STARTCHAR FF4D
ENCODING 9069
SWIDTH 2000 0
DWIDTH 20 0
BBX 15 10 2 0
BITMAP
2610
E96C
3084
2084
2084
2084
2084
2084
2084
F1DE
ENDCHAR
STARTCHAR FF4E
ENCODING 9070
SWIDTH 2000 0
DWIDTH 20 0
BBX 10 10 5 0
BITMAP
2300
6D80
3080
2080
2080
2080
2080
2080
2080
F1C0
ENDCHAR
STARTCHAR FF4F
ENCODING 9071
SWIDTH 2000 0
DWIDTH 20 0
BBX 8 10 6 -1
BITMAP
3C
42
C3
81
81
81
81
C3
42
3C
ENDCHAR
STARTCHAR FF50
ENCODING 9072
SWIDTH 2000 0
DWIDTH 20 0
BBX 8 12 6 -3
BITMAP
FE
42
41
41
41
41
41
42
64
58
40
E0
ENDCHAR
STARTCHAR FF51
ENCODING 9073
SWIDTH 2000 0
DWIDTH 20 0
BBX 9 13 6 -3
BITMAP
1800
7F00
4100
8100
8100
8100
8100
8100
4100
2700
1900
0100
0780
ENDCHAR
STARTCHAR FF52
ENCODING 9074
SWIDTH 2000 0
DWIDTH 20 0
BBX 6 9 7 0
BITMAP
CC
74
40
40
40
40
40
40
E0
ENDCHAR
STARTCHAR FF53
ENCODING 9075
SWIDTH 2000 0
DWIDTH 20 0
BBX 7 9 7 0
BITMAP
FC
84
80
E0
3C
06
02
84
FC
ENDCHAR
STARTCHAR FF54
ENCODING 9076
SWIDTH 2000 0
DWIDTH 20 0
BBX 6 13 7 -1
BITMAP
20
20
20
FC
20
20
20
20
20
20
20
34
08
ENDCHAR
STARTCHAR FF55
ENCODING 9077
SWIDTH 2000 0
DWIDTH 20 0
BBX 9 9 6 0
BITMAP
C300
4100
4100
4100
4100
4100
4100
4300
3D80
ENDCHAR
STARTCHAR FF56
ENCODING 9078
SWIDTH 2000 0
DWIDTH 20 0
BBX 9 9 6 0
BITMAP
E380
4200
4200
2200
2400
1400
1800
1800
0800
ENDCHAR
STARTCHAR FF57
ENCODING 9079
SWIDTH 2000 0
DWIDTH 20 0
BBX 14 9 3 0
BITMAP
F79C
6108
2108
2290
1490
14A0
0860
0860
0800
ENDCHAR
STARTCHAR FF58
ENCODING 9080
SWIDTH 2000 0
DWIDTH 20 0
BBX 10 9 5 0
BITMAP
F3C0
2100
1200
0C00
0C00
1200
2200
4180
F3C0
ENDCHAR
STARTCHAR FF59
ENCODING 9081
SWIDTH 2000 0
DWIDTH 20 0
BBX 10 12 5 -3
BITMAP
F1C0
6080
2100
3100
1200
1200
1C00
0C00
0800
0800
1000
7000
ENDCHAR
STARTCHAR FF5A
ENCODING 9082
SWIDTH 2000 0
DWIDTH 20 0
BBX 8 9 6 0
BITMAP
3F
42
04
08
08
10
21
42
EE
ENDCHAR
STARTCHAR FF5B
ENCODING 9083
SWIDTH 2000 0
DWIDTH 20 0
BBX 5 19 14 -3
BITMAP
08
10
20
20
20
20
20
20
40
80
40
20
20
20
20
20
20
20
10
ENDCHAR
STARTCHAR FF5C
ENCODING 9084
SWIDTH 2000 0
DWIDTH 20 0
BBX 1 18 9 -3
BITMAP
80
80
80
80
80
80
80
80
80
80
80
80
80
80
80
80
80
80
ENDCHAR
STARTCHAR FF5D
ENCODING 9085
SWIDTH 2000 0
DWIDTH 20 0
BBX 3 18 3 -3
BITMAP
80
40
40
40
40
40
40
40
20
20
40
40
40
40
40
40
40
80
ENDCHAR
STARTCHAR FFE3
ENCODING 9086
SWIDTH 2000 0
DWIDTH 20 0
BBX 8 1 6 13
BITMAP
FF
ENDCHAR
STARTCHAR 3131
ENCODING 9249
SWIDTH 2000 0
DWIDTH 20 0
BBX 12 10 4 1
BITMAP
FFF0
6010
0010
0010
0010
0010
0010
0010
0010
0010
ENDCHAR
STARTCHAR 3132
ENCODING 9250
SWIDTH 2000 0
DWIDTH 20 0
BBX 14 11 3 1
BITMAP
0400
FCFC
4404
0404
0404
0404
0404
0404
0404
0404
0004
ENDCHAR
STARTCHAR 3133
ENCODING 9251
SWIDTH 2000 0
DWIDTH 20 0
BBX 16 11 2 1
BITMAP
0400
FC10
4418
0410
0410
0430
0428
0444
0442
0481
0101
ENDCHAR
STARTCHAR 3134
ENCODING 9252
SWIDTH 2000 0
DWIDTH 20 0
BBX 13 8 4 2
BITMAP
C000
4000
4000
4000
4000
4000
4038
3FF8
ENDCHAR
STARTCHAR 3135
ENCODING 9253
SWIDTH 2000 0
DWIDTH 20 0
BBX 16 11 2 1
BITMAP
0002
C1FF
40D0
4008
4018
4018
4038
4226
4C43
7081
0101
ENDCHAR
STARTCHAR 3136
ENCODING 9254
SWIDTH 2000 0
DWIDTH 20 0
BBX 17 11 2 0
BITMAP
803C00
400380
41FF80
400000
401000
407C00
41C600
468200
788200
40C600
007C00
ENDCHAR
STARTCHAR 3137
ENCODING 9255
SWIDTH 2000 0
DWIDTH 20 0
BBX 13 9 3 2
BITMAP
0030
FFF0
4000
4000
4000
4000
4000
4038
7FF8
ENDCHAR
STARTCHAR 3138
ENCODING 9256
SWIDTH 2000 0
DWIDTH 20 0
BBX 15 11 3 1
BITMAP
010C
C0FC
7C80
4080
4080
4080
4080
4080
4284
4CFE
7000
ENDCHAR
STARTCHAR 3139
ENCODING 9257
SWIDTH 2000 0
DWIDTH 20 0
BBX 13 11 3 1
BITMAP
0030
FFF0
4030
0020
0020
FFF0
4000
4000
4000
4018
7FF8
ENDCHAR
STARTCHAR 313A
ENCODING 9258
SWIDTH 2000 0
DWIDTH 20 0
BBX 16 10 1 1
BITMAP
0201
7F1F
0201
0201
FE01
2001
2001
2001
2781
3801
ENDCHAR
STARTCHAR 313B
ENCODING 9259
SWIDTH 2000 0
DWIDTH 20 0
BBX 15 10 2 1
BITMAP
FEFE
0442
0442
0442
FC42
4042
4044
4044
477E
7840
ENDCHAR
STARTCHAR 313C
ENCODING 9260
SWIDTH 2000 0
DWIDTH 20 0
BBX 15 11 3 1
BITMAP
0002
FF82
0482
0482
04FE
FC82
4082
4082
4082
47FE
7882
ENDCHAR
STARTCHAR 313D
ENCODING 9261
SWIDTH 2000 0
DWIDTH 20 0
BBX 15 11 3 1
BITMAP
FE60
4430
0410
0430
FC20
4020
4050
4048
4784
7906
0102
ENDCHAR
STARTCHAR 313E
ENCODING 9262
SWIDTH 2000 0
DWIDTH 20 0
BBX 16 11 2 1
BITMAP
0082
FE7F
0440
0440
0446
FC7E
4040
4040
4040
4743
787F
ENDCHAR
STARTCHAR 313F
ENCODING 9263
SWIDTH 2000 0
DWIDTH 20 0
BBX 16 10 3 1
BITMAP
FE06
05F8
040C
040C
FC88
4088
40C8
40D0
4C13
73FF
ENDCHAR
STARTCHAR 3140
ENCODING 9264
SWIDTH 2000 0
DWIDTH 20 0
BBX 17 11 2 0
BITMAP
FC7C00
440100
040F80
09F000
CC1000
707C00
40C600
40C200
42C200
5C4600
607C00
ENDCHAR
STARTCHAR 3141
ENCODING 9265
SWIDTH 2000 0
DWIDTH 20 0
BBX 13 10 4 1
BITMAP
FFF8
4010
4010
4010
4010
4010
4020
4020
7FF0
4000
ENDCHAR
STARTCHAR 3142
ENCODING 9266
SWIDTH 2000 0
DWIDTH 20 0
BBX 12 12 3 1
BITMAP
0020
C010
2010
2010
2010
3FF0
2010
2010
2010
2010
3FF0
2010
ENDCHAR
STARTCHAR 3143
ENCODING 9267
SWIDTH 2000 0
DWIDTH 20 0
BBX 15 12 2 0
BITMAP
0046
8622
4222
4222
423E
7E22
4222
4222
4222
4222
7E3E
0222
ENDCHAR
STARTCHAR 3144
ENCODING 9268
SWIDTH 2000 0
DWIDTH 20 0
BBX 14 11 4 1
BITMAP
0840
8860
8860
8860
F840
8840
88A0
8890
8918
FA0C
8004
ENDCHAR
STARTCHAR 3145
ENCODING 9269
SWIDTH 2000 0
DWIDTH 20 0
BBX 14 10 3 1
BITMAP
0300
0180
0300
0300
0680
0C60
1818
300C
4004
8000
ENDCHAR
STARTCHAR 3146
ENCODING 9270
SWIDTH 2000 0
DWIDTH 20 0
BBX 15 9 3 2
BITMAP
0830
0C30
0830
1820
1460
22D0
428C
8104
0206
ENDCHAR
STARTCHAR 3147
ENCODING 9271
SWIDTH 2000 0
DWIDTH 20 0
BBX 10 11 5 1
BITMAP
0400
3F00
6180
C0C0
8040
8040
8040
8040
C0C0
6180
3F00
ENDCHAR
STARTCHAR 3148
ENCODING 9272
SWIDTH 2000 0
DWIDTH 20 0
BBX 13 10 4 2
BITMAP
0030
FFF0
4200
0300
0600
0D00
18C0
3070
6018
8008
ENDCHAR
STARTCHAR 3149
ENCODING 9273
SWIDTH 2000 0
DWIDTH 20 0
BBX 17 10 2 2
BITMAP
010000
7FFF00
2C1800
0C1800
081000
143800
322400
434300
818100
010080
ENDCHAR
STARTCHAR 314A
ENCODING 9274
SWIDTH 2000 0
DWIDTH 20 0
BBX 14 11 3 1
BITMAP
0FC0
0000
0000
FFF8
7100
0300
0300
04C0
0830
3018
4004
ENDCHAR
STARTCHAR 314B
ENCODING 9275
SWIDTH 2000 0
DWIDTH 20 0
BBX 12 11 4 1
BITMAP
0010
7FF0
3810
0010
0010
01F0
FE10
6010
0020
0020
0020
ENDCHAR
STARTCHAR 314C
ENCODING 9276
SWIDTH 2000 0
DWIDTH 20 0
BBX 13 10 4 1
BITMAP
FFF0
4000
4000
4000
7FF0
4000
4000
4000
4018
7FF8
ENDCHAR
STARTCHAR 314D
ENCODING 9277
SWIDTH 2000 0
DWIDTH 20 0
BBX 15 9 3 2
BITMAP
0018
FFF8
2060
0020
1860
0840
0840
0888
FFFE
ENDCHAR
STARTCHAR 314E
ENCODING 9278
SWIDTH 2000 0
DWIDTH 20 0
BBX 15 11 3 0
BITMAP
0FC0
000C
FFFE
4100
0E80
1040
1020
1020
1020
1860
0780
ENDCHAR
STARTCHAR 314F
ENCODING 9279
SWIDTH 2000 0
DWIDTH 20 0
BBX 8 17 7 -2
BITMAP
E0
20
20
20
20
20
20
20
23
3F
20
20
20
20
20
20
20
ENDCHAR
STARTCHAR 3150
ENCODING 9280
SWIDTH 2000 0
DWIDTH 20 0
BBX 7 17 7 -2
BITMAP
0C
06
C2
42
42
42
42
42
42
7E
42
42
42
42
42
42
42
ENDCHAR
STARTCHAR 3151
ENCODING 9281
SWIDTH 2000 0
DWIDTH 20 0
BBX 8 17 7 -2
BITMAP
C0
20
20
20
20
26
3E
20
20
20
22
3F
20
20
20
20
20
ENDCHAR
STARTCHAR 3152
ENCODING 9282
SWIDTH 2000 0
DWIDTH 20 0
BBX 7 17 7 -2
BITMAP
0E
02
C2
42
42
42
7E
42
42
42
7E
42
42
42
42
42
02
ENDCHAR
STARTCHAR 3153
ENCODING 9283
SWIDTH 2000 0
DWIDTH 20 0
BBX 7 17 6 -2
BITMAP
0E
02
02
02
02
02
02
FE
42
02
02
02
02
02
02
02
02
ENDCHAR
STARTCHAR 3154
ENCODING 9284
SWIDTH 2000 0
DWIDTH 20 0
BBX 10 17 4 -2
BITMAP
01C0
0040
0C40
0440
0440
0440
0440
0440
FC40
4440
0440
0440
0440
0440
0440
0440
0040
ENDCHAR
STARTCHAR 3155
ENCODING 9285
SWIDTH 2000 0
DWIDTH 20 0
BBX 7 17 6 -2
BITMAP
0C
02
02
02
02
02
FE
42
02
02
02
FE
02
02
02
02
02
ENDCHAR
STARTCHAR 3156
ENCODING 9286
SWIDTH 2000 0
DWIDTH 20 0
BBX 11 17 4 -2
BITMAP
00C0
0020
0C20
0420
0420
0420
FC20
4420
0420
0420
0420
9C20
6420
0420
0420
0420
0420
ENDCHAR
STARTCHAR 3157
ENCODING 9287
SWIDTH 2000 0
DWIDTH 20 0
BBX 17 9 2 2
BITMAP
018000
008000
008000
008000
008000
008000
008000
008300
FFFF80
ENDCHAR
STARTCHAR 3158
ENCODING 9288
SWIDTH 2000 0
DWIDTH 20 0
BBX 18 17 1 -2
BITMAP
001800
000400
000400
000400
060400
020400
020400
020400
0207C0
020400
023C00
FFC400
300400
000400
000400
000400
000400
ENDCHAR
STARTCHAR 3159
ENCODING 9289
SWIDTH 2000 0
DWIDTH 20 0
BBX 15 16 2 -2
BITMAP
0006
0062
0022
1822
0822
0822
0822
0822
083E
0862
0BA2
FC22
2022
0022
0022
0002
ENDCHAR
STARTCHAR 315A
ENCODING 9290
SWIDTH 2000 0
DWIDTH 20 0
BBX 14 17 2 -2
BITMAP
001C
0004
0004
0804
0404
0404
0404
0404
0404
0404
047C
1F84
E004
0004
0004
0004
0004
ENDCHAR
STARTCHAR 315B
ENCODING 9291
SWIDTH 2000 0
DWIDTH 20 0
BBX 17 9 2 2
BITMAP
003000
081800
041000
041000
041000
041000
041000
041000
FFFF80
ENDCHAR
STARTCHAR 315C
ENCODING 9292
SWIDTH 2000 0
DWIDTH 20 0
BBX 17 13 2 -2
BITMAP
000380
FFFF80
608000
008000
008000
008000
008000
008000
008000
008000
008000
008000
008000
ENDCHAR
STARTCHAR 315D
ENCODING 9293
SWIDTH 2000 0
DWIDTH 20 0
BBX 15 17 1 -2
BITMAP
000C
0002
0002
0002
0002
0062
FF82
2202
0202
023E
0202
0202
0202
0202
0202
0002
0002
ENDCHAR
STARTCHAR 315E
ENCODING 9294
SWIDTH 2000 0
DWIDTH 20 0
BBX 15 17 2 -2
BITMAP
000E
0002
0062
0022
0022
0022
0722
F822
0822
09E2
0822
0822
0822
0822
0022
0002
0002
ENDCHAR
STARTCHAR 315F
ENCODING 9295
SWIDTH 2000 0
DWIDTH 20 0
BBX 14 17 2 -2
BITMAP
001C
0004
0004
0004
0004
001C
CFE4
7A04
0204
0204
0204
0204
0204
0204
0204
0004
0004
ENDCHAR
STARTCHAR 3160
ENCODING 9296
SWIDTH 2000 0
DWIDTH 20 0
BBX 17 14 2 -3
BITMAP
000380
FFFF80
741000
041000
041000
041000
041000
041000
041000
041000
041000
041000
041000
040000
ENDCHAR
STARTCHAR 3161
ENCODING 9297
SWIDTH 2000 0
DWIDTH 20 0
BBX 17 2 2 5
BITMAP
000780
FFFF80
ENDCHAR
STARTCHAR 3162
ENCODING 9298
SWIDTH 2000 0
DWIDTH 20 0
BBX 14 17 2 -2
BITMAP
001C
0004
0004
0004
0004
0004
0004
0004
000C
00F4
FF04
2004
0004
0004
0004
0004
0004
ENDCHAR
STARTCHAR 3163
ENCODING 9299
SWIDTH 2000 0
DWIDTH 20 0
BBX 3 17 8 -2
BITMAP
C0
20
20
20
20
20
20
20
20
20
20
20
20
20
20
20
20
ENDCHAR
STARTCHAR 3164
ENCODING 9300
SWIDTH 2000 0
DWIDTH 20 0
BBX 0 0 0 0
BITMAP
ENDCHAR
STARTCHAR 3165
ENCODING 9301
SWIDTH 2000 0
DWIDTH 20 0
BBX 15 9 3 2
BITMAP
8180
C080
4080
4080
4080
4080
4080
4484
78FE
ENDCHAR
STARTCHAR 3166
ENCODING 9302
SWIDTH 2000 0
DWIDTH 20 0
BBX 16 11 2 1
BITMAP
0086
007E
C040
4040
4040
4040
4040
4040
4643
787F
4000
ENDCHAR
STARTCHAR 3167
ENCODING 9303
SWIDTH 2000 0
DWIDTH 20 0
BBX 15 10 2 2
BITMAP
0020
E018
2010
2030
2020
2070
2048
2184
2F86
3202
ENDCHAR
STARTCHAR 3168
ENCODING 9304
SWIDTH 2000 0
DWIDTH 20 0
BBX 15 10 3 1
BITMAP
C020
4020
4050
4050
4088
4088
4384
4504
5B02
63FE
ENDCHAR
STARTCHAR 3169
ENCODING 9305
SWIDTH 2000 0
DWIDTH 20 0
BBX 16 10 2 1
BITMAP
FB8C
0884
088C
1088
F888
4094
4092
40A3
4CC1
70C0
ENDCHAR
STARTCHAR 316A
ENCODING 9306
SWIDTH 2000 0
DWIDTH 20 0
BBX 17 11 2 1
BITMAP
000300
FEFF00
044000
044000
044000
FC4000
404000
404000
404300
467F80
780000
ENDCHAR
STARTCHAR 316B
ENCODING 9307
SWIDTH 2000 0
DWIDTH 20 0
BBX 17 10 2 1
BITMAP
FC2400
092600
092600
092400
79E400
412400
412A00
412900
59F180
612080
ENDCHAR
STARTCHAR 316C
ENCODING 9308
SWIDTH 2000 0
DWIDTH 20 0
BBX 16 11 2 0
BITMAP
FE08
4218
0418
0414
FE24
4022
4062
4042
42C1
7CFF
4000
ENDCHAR
STARTCHAR 316D
ENCODING 9309
SWIDTH 2000 0
DWIDTH 20 0
BBX 17 10 2 1
BITMAP
FE0300
44FF80
044000
040800
FC3C00
406200
404300
404300
466200
783C00
ENDCHAR
STARTCHAR 316E
ENCODING 9310
SWIDTH 2000 0
DWIDTH 20 0
BBX 16 11 2 1
BITMAP
0002
80C1
7F41
4241
4241
427F
4241
4241
4241
7E7F
4040
ENDCHAR
STARTCHAR 316F
ENCODING 9311
SWIDTH 2000 0
DWIDTH 20 0
BBX 16 10 2 1
BITMAP
0030
FE18
4610
4610
4630
4628
4444
44C6
7E83
4101
ENDCHAR
STARTCHAR 3170
ENCODING 9312
SWIDTH 2000 0
DWIDTH 20 0
BBX 16 10 2 1
BITMAP
0010
FE10
4218
4238
4224
4224
4442
4442
7EC1
40FF
ENDCHAR
STARTCHAR 3171
ENCODING 9313
SWIDTH 2000 0
DWIDTH 20 0
BBX 10 14 5 -1
BITMAP
FFC0
4080
4080
4080
4080
7F80
4000
3E00
6180
4080
4080
4080
2100
1E00
ENDCHAR
STARTCHAR 3172
ENCODING 9314
SWIDTH 2000 0
DWIDTH 20 0
BBX 14 10 3 1
BITMAP
0C04
847C
8404
8404
FC04
8404
8404
8404
FC04
8404
ENDCHAR
STARTCHAR 3173
ENCODING 9315
SWIDTH 2000 0
DWIDTH 20 0
BBX 14 10 3 1
BITMAP
8D9C
84E0
8480
FC80
8480
8480
8480
8480
FC8C
84FC
ENDCHAR
STARTCHAR 3174
ENCODING 9316
SWIDTH 2000 0
DWIDTH 20 0
BBX 16 12 2 0
BITMAP
1000
C8C1
48CF
48C1
4881
7881
4941
4921
4A31
4C11
7801
4800
ENDCHAR
STARTCHAR 3175
ENCODING 9317
SWIDTH 2000 0
DWIDTH 20 0
BBX 17 11 2 1
BITMAP
110000
C8D300
488C00
488800
488800
798800
498800
494800
4A2800
7C2980
400600
ENDCHAR
STARTCHAR 3176
ENCODING 9318
SWIDTH 2000 0
DWIDTH 20 0
BBX 15 12 3 0
BITMAP
000C
19FC
8820
8820
8820
F860
8850
8848
888C
F906
8202
0400
ENDCHAR
STARTCHAR 3177
ENCODING 9319
SWIDTH 2000 0
DWIDTH 20 0
BBX 15 12 2 0
BITMAP
0006
83FE
4280
4280
428C
7EFC
4280
4280
4280
7E86
42FE
4000
ENDCHAR
STARTCHAR 3178
ENCODING 9320
SWIDTH 2000 0
DWIDTH 20 0
BBX 11 16 4 -2
BITMAP
E060
2020
2020
3FE0
2020
2020
2020
3FE0
2020
0F80
30C0
2040
2040
2040
30C0
0F80
ENDCHAR
STARTCHAR 3179
ENCODING 9321
SWIDTH 2000 0
DWIDTH 20 0
BBX 13 16 3 -2
BITMAP
0918
C488
4488
7CF8
4488
4488
7CF8
4480
0000
0F80
1840
3020
3020
1020
1840
0F80
ENDCHAR
STARTCHAR 317A
ENCODING 9322
SWIDTH 2000 0
DWIDTH 20 0
BBX 15 10 2 1
BITMAP
0C02
067E
0402
0C02
0C02
1202
1302
2182
4082
8002
ENDCHAR
STARTCHAR 317B
ENCODING 9323
SWIDTH 2000 0
DWIDTH 20 0
BBX 17 10 2 2
BITMAP
00E000
0C2000
0C2000
082000
082000
182000
142000
222000
432300
813F80
ENDCHAR
STARTCHAR 317C
ENCODING 9324
SWIDTH 2000 0
DWIDTH 20 0
BBX 16 11 2 1
BITMAP
0006
0CFE
0C40
0840
1840
1840
3440
2240
4340
8142
007F
ENDCHAR
STARTCHAR 317D
ENCODING 9325
SWIDTH 2000 0
DWIDTH 20 0
BBX 15 11 2 1
BITMAP
1006
0C42
0C42
0842
187E
1842
3442
2242
4342
817E
0042
ENDCHAR
STARTCHAR 317E
ENCODING 9326
SWIDTH 2000 0
DWIDTH 20 0
BBX 17 10 1 1
BITMAP
06FF00
060800
040C00
0C0C00
0C0800
1A1C00
111200
21A100
404180
800080
ENDCHAR
STARTCHAR 317F
ENCODING 9327
SWIDTH 2000 0
DWIDTH 20 0
BBX 12 11 4 1
BITMAP
0400
0200
0600
0D00
0880
1080
1040
2040
6020
4010
FFF0
ENDCHAR
STARTCHAR 3180
ENCODING 9328
SWIDTH 2000 0
DWIDTH 20 0
BBX 16 9 2 1
BITMAP
383C
4662
C242
8241
8241
8241
C243
4662
3C3C
ENDCHAR
STARTCHAR 3181
ENCODING 9329
SWIDTH 2000 0
DWIDTH 20 0
BBX 9 11 6 1
BITMAP
1800
0800
0800
3E00
4100
8080
8080
8080
8080
4100
3E00
ENDCHAR
STARTCHAR 3182
ENCODING 9330
SWIDTH 2000 0
DWIDTH 20 0
BBX 16 11 2 1
BITMAP
1020
1018
3C18
4410
8210
8230
8228
8244
8242
4481
3901
ENDCHAR
STARTCHAR 3183
ENCODING 9331
SWIDTH 2000 0
DWIDTH 20 0
BBX 16 12 2 1
BITMAP
3000
1010
1010
3C18
4438
8224
8224
8242
8242
82C2
4481
38FF
ENDCHAR
STARTCHAR 3184
ENCODING 9332
SWIDTH 2000 0
DWIDTH 20 0
BBX 12 16 4 -2
BITMAP
0030
7FF0
00C0
1080
1880
0920
03F0
FC00
0000
0F00
1080
2040
2040
2040
10C0
0F80
ENDCHAR
STARTCHAR 3185
ENCODING 9333
SWIDTH 2000 0
DWIDTH 20 0
BBX 17 11 2 1
BITMAP
3C3C00
000000
030180
FFFF80
080C00
3C1E00
662300
424100
424100
666300
3C3E00
ENDCHAR
STARTCHAR 3186
ENCODING 9334
SWIDTH 2000 0
DWIDTH 20 0
BBX 13 12 4 0
BITMAP
0030
FFF8
0000
0000
0000
0F00
1080
2040
2040
2040
1080
0F00
ENDCHAR
STARTCHAR 3187
ENCODING 9335
SWIDTH 2000 0
DWIDTH 20 0
BBX 17 17 2 -2
BITMAP
003000
000800
000800
018800
008800
108800
108F80
108800
108800
108800
10F900
FF0F00
400800
000800
000800
000800
000800
ENDCHAR
STARTCHAR 3188
ENCODING 9336
SWIDTH 2000 0
DWIDTH 20 0
BBX 14 17 2 -2
BITMAP
001C
0184
0084
06C4
02E4
62FC
32F4
32F4
32F4
13F4
13FC
16F4
F8F4
00F4
00F4
00F4
0004
ENDCHAR
STARTCHAR 3189
ENCODING 9337
SWIDTH 2000 0
DWIDTH 20 0
BBX 13 18 3 -3
BITMAP
0030
0008
0008
0008
0308
2108
1108
1108
1108
1108
1108
17E8
F808
0008
0008
0008
0008
0008
ENDCHAR
STARTCHAR 318A
ENCODING 9338
SWIDTH 2000 0
DWIDTH 20 0
BBX 14 17 2 -2
BITMAP
0018
0004
0004
0004
0004
00E4
FF04
2904
093C
0904
0904
093C
0904
0904
0104
0004
0004
ENDCHAR
STARTCHAR 318B
ENCODING 9339
SWIDTH 2000 0
DWIDTH 20 0
BBX 14 16 2 -2
BITMAP
0018
0064
0024
0024
0024
03A4
FE24
13E4
1224
1224
13E4
1224
1224
0024
0004
0004
ENDCHAR
STARTCHAR 318C
ENCODING 9340
SWIDTH 2000 0
DWIDTH 20 0
BBX 14 17 2 -2
BITMAP
0018
0004
0004
0004
0004
0004
01E4
FE84
0884
0884
0884
0884
0884
0884
0884
0004
0004
ENDCHAR
STARTCHAR 318D
ENCODING 9341
SWIDTH 2000 0
DWIDTH 20 0
BBX 4 3 8 5
BITMAP
70
F0
70
ENDCHAR
STARTCHAR 318E
ENCODING 9342
SWIDTH 2000 0
DWIDTH 20 0
BBX 10 17 5 -2
BITMAP
01C0
0040
0040
0040
0040
0040
6040
F040
6040
0040
0040
0040
0040
0040
0040
0040
0040
ENDCHAR
STARTCHAR 2170
ENCODING 9505
SWIDTH 2000 0
DWIDTH 20 0
BBX 3 14 9 0
BITMAP
80
80
00
00
00
C0
40
40
40
40
40
40
40
E0
ENDCHAR
STARTCHAR 2171
ENCODING 9506
SWIDTH 2000 0
DWIDTH 20 0
BBX 10 14 5 0
BITMAP
2080
2080
0000
0000
0000
C180
4080
4080
4080
4080
4080
4080
4080
E1C0
ENDCHAR
STARTCHAR 2172
ENCODING 9507
SWIDTH 2000 0
DWIDTH 20 0
BBX 12 14 4 0
BITMAP
8410
8410
0000
0000
0000
C660
4220
4220
4220
4220
4220
4220
4220
E770
ENDCHAR
STARTCHAR 2173
ENCODING 9508
SWIDTH 2000 0
DWIDTH 20 0
BBX 12 14 5 0
BITMAP
8000
8000
0000
0000
0000
DC70
4840
4C40
4440
4680
4280
4280
4100
E100
ENDCHAR
STARTCHAR 2174
ENCODING 9509
SWIDTH 2000 0
DWIDTH 20 0
BBX 9 9 6 0
BITMAP
E380
4100
6200
2200
3400
1400
1C00
0800
0800
ENDCHAR
STARTCHAR 2175
ENCODING 9510
SWIDTH 2000 0
DWIDTH 20 0
BBX 13 14 4 0
BITMAP
0020
0020
0000
0000
0000
E370
4210
6210
2410
2410
3810
1810
1810
0038
ENDCHAR
STARTCHAR 2176
ENCODING 9511
SWIDTH 2000 0
DWIDTH 20 0
BBX 15 14 3 0
BITMAP
0088
0088
0000
0000
0000
E6DC
4444
4444
6844
2844
2844
3044
1044
10EE
ENDCHAR
STARTCHAR 2177
ENCODING 9512
SWIDTH 2000 0
DWIDTH 20 0
BBX 17 14 2 0
BITMAP
004900
004900
000000
000000
000000
E79B00
448900
448900
648900
288900
288900
388900
108900
11DF80
ENDCHAR
STARTCHAR 2178
ENCODING 9513
SWIDTH 2000 0
DWIDTH 20 0
BBX 14 14 3 0
BITMAP
1000
1000
0000
0000
0000
67B8
2210
2120
21C0
20C0
2140
2220
2230
FF7C
ENDCHAR
STARTCHAR 2179
ENCODING 9514
SWIDTH 2000 0
DWIDTH 20 0
BBX 10 9 5 0
BITMAP
F3C0
2100
1200
1C00
0C00
1400
2200
4100
F3C0
ENDCHAR
STARTCHAR 2160
ENCODING 9520
SWIDTH 2000 0
DWIDTH 20 0
BBX 5 14 7 0
BITMAP
F8
20
20
20
20
20
20
20
20
20
20
20
20
F8
ENDCHAR
STARTCHAR 2161
ENCODING 9521
SWIDTH 2000 0
DWIDTH 20 0
BBX 12 14 4 0
BITMAP
FFF0
2040
2040
2040
2040
2040
2040
2040
2040
2040
2040
2040
2040
FFF0
ENDCHAR
STARTCHAR 2162
ENCODING 9522
SWIDTH 2000 0
DWIDTH 20 0
BBX 16 14 2 0
BITMAP
FFFF
2084
2084
2084
2084
2084
2084
2084
2084
2084
2084
2084
2084
FFFF
ENDCHAR
STARTCHAR 2163
ENCODING 9523
SWIDTH 2000 0
DWIDTH 20 0
BBX 16 14 2 0
BITMAP
FF8F
2606
2204
2204
2308
2108
2108
2190
2090
2090
20E0
2060
2060
F840
ENDCHAR
STARTCHAR 2164
ENCODING 9524
SWIDTH 2000 0
DWIDTH 20 0
BBX 14 14 3 0
BITMAP
F87C
3010
3010
1020
1020
1840
0840
0840
0480
0480
0680
0300
0300
0200
ENDCHAR
STARTCHAR 2165
ENCODING 9525
SWIDTH 2000 0
DWIDTH 20 0
BBX 16 14 2 0
BITMAP
F8FF
2064
2044
3044
1084
1084
1084
1904
0904
0A04
0E04
0604
0404
041F
ENDCHAR
STARTCHAR 2166
ENCODING 9526
SWIDTH 2000 0
DWIDTH 20 0
BBX 18 14 1 0
BITMAP
F9FFC0
609100
209100
209100
311100
111100
111100
191100
0A1100
0A1100
0A1100
0C1100
041100
047FC0
ENDCHAR
STARTCHAR 2167
ENCODING 9527
SWIDTH 2000 0
DWIDTH 20 0
BBX 18 14 1 0
BITMAP
F3FFC0
60A480
212480
212480
212480
322480
322480
122480
142480
142480
1C2480
0C2480
082480
087FC0
ENDCHAR
STARTCHAR 2168
ENCODING 9528
SWIDTH 2000 0
DWIDTH 20 0
BBX 16 14 2 0
BITMAP
FF8F
2306
2304
2188
2090
20D0
2060
2060
20B0
2090
2108
220C
2204
FF1F
ENDCHAR
STARTCHAR 2169
ENCODING 9529
SWIDTH 2000 0
DWIDTH 20 0
BBX 14 14 3 0
BITMAP
7C78
1020
0840
0840
0480
0700
0200
0500
0480
0880
1040
1060
2030
F8FC
ENDCHAR
STARTCHAR 0391
ENCODING 9537
SWIDTH 2000 0
DWIDTH 20 0
BBX 16 13 2 0
BITMAP
0010
0078
0048
0088
0108
0208
0208
0408
0BF8
1008
100C
200C
F83F
ENDCHAR
STARTCHAR 0392
ENCODING 9538
SWIDTH 2000 0
DWIDTH 20 0
BBX 14 14 3 0
BITMAP
1FC0
0638
0404
0404
0404
0808
0870
0FA0
1010
1008
1008
3010
2030
FFC0
ENDCHAR
STARTCHAR 0393
ENCODING 9539
SWIDTH 2000 0
DWIDTH 20 0
BBX 14 14 3 0
BITMAP
0FFC
060C
0404
0408
0400
0C00
0800
0800
0800
1000
1000
1000
3000
FC00
ENDCHAR
STARTCHAR 0394
ENCODING 9540
SWIDTH 2000 0
DWIDTH 20 0
BBX 13 13 3 0
BITMAP
0018
0028
0048
0088
0108
0218
0210
0410
0810
1010
2010
4010
FFF0
ENDCHAR
STARTCHAR 0395
ENCODING 9541
SWIDTH 2000 0
DWIDTH 20 0
BBX 14 14 3 0
BITMAP
1FFC
060C
0404
0400
0C00
0800
08C0
1FC0
1040
1000
1008
2008
2030
FFE0
ENDCHAR
STARTCHAR 0396
ENCODING 9542
SWIDTH 2000 0
DWIDTH 20 0
BBX 13 14 4 0
BITMAP
1FF8
1C10
3020
2040
0080
0100
0200
0400
0800
1000
2020
6040
C1C0
FF80
ENDCHAR
STARTCHAR 0397
ENCODING 9543
SWIDTH 2000 0
DWIDTH 20 0
BBX 18 14 1 0
BITMAP
0FCFC0
020300
020200
040200
040600
040400
0C0400
0BFC00
080800
180800
100800
101000
301000
FCFC00
ENDCHAR
STARTCHAR 0398
ENCODING 9544
SWIDTH 2000 0
DWIDTH 20 0
BBX 12 15 4 -1
BITMAP
07C0
1820
3010
2010
4010
C890
8F90
9F10
9130
8020
8060
8040
4080
3700
0800
ENDCHAR
STARTCHAR 0399
ENCODING 9545
SWIDTH 2000 0
DWIDTH 20 0
BBX 10 14 5 0
BITMAP
0FC0
0300
0200
0600
0400
0400
0400
0800
0800
0800
1800
1000
1000
FC00
ENDCHAR
STARTCHAR 039A
ENCODING 9546
SWIDTH 2000 0
DWIDTH 20 0
BBX 18 14 1 0
BITMAP
0FCFC0
030300
020400
020800
043000
044000
05C000
0E4000
082000
082000
101000
101000
301800
FC7E00
ENDCHAR
STARTCHAR 039B
ENCODING 9547
SWIDTH 2000 0
DWIDTH 20 0
BBX 15 13 2 0
BITMAP
0030
0050
0090
0110
0110
0210
0410
0410
0810
1010
1010
2018
F87E
ENDCHAR
STARTCHAR 039C
ENCODING 9548
SWIDTH 2000 0
DWIDTH 20 0
BBX 19 14 0 0
BITMAP
0700E0
0301C0
030280
050280
050500
090900
090900
091300
112200
112200
114600
218400
210400
F91F00
ENDCHAR
STARTCHAR 039D
ENCODING 9549
SWIDTH 2000 0
DWIDTH 20 0
BBX 18 14 1 0
BITMAP
0E07C0
030100
050200
050200
048200
048400
08C400
084400
084400
102800
102800
102800
301000
F81000
ENDCHAR
STARTCHAR 039E
ENCODING 9550
SWIDTH 2000 0
DWIDTH 20 0
BBX 14 14 3 0
BITMAP
0FFC
1FFC
1004
1000
0000
0820
0FE0
0FC0
1040
0000
4010
8020
C020
FFE0
ENDCHAR
STARTCHAR 039F
ENCODING 9551
SWIDTH 2000 0
DWIDTH 20 0
BBX 12 15 4 -1
BITMAP
07C0
0820
1010
2010
6010
4010
4010
C030
8020
8060
8040
40C0
4180
3600
0800
ENDCHAR
STARTCHAR 03A0
ENCODING 9552
SWIDTH 2000 0
DWIDTH 20 0
BBX 16 14 2 0
BITMAP
0FFF
0606
0404
0404
0408
0808
0808
0810
1010
1010
1020
3020
2020
F8F0
ENDCHAR
STARTCHAR 03A1
ENCODING 9553
SWIDTH 2000 0
DWIDTH 20 0
BBX 14 14 3 0
BITMAP
0FF0
020C
0604
0404
0404
0C0C
0818
0FE0
1800
1000
1000
3000
2000
FC00
ENDCHAR
STARTCHAR 03A3
ENCODING 9554
SWIDTH 2000 0
DWIDTH 20 0
BBX 14 14 3 0
BITMAP
07FC
0C0C
0408
0200
0200
0100
0180
0080
0300
0400
0810
1020
6060
FFE0
ENDCHAR
STARTCHAR 03A4
ENCODING 9555
SWIDTH 2000 0
DWIDTH 20 0
BBX 14 14 3 0
BITMAP
3FFC
610C
C104
0304
0200
0200
0600
0400
0400
0C00
0800
0800
1800
7E00
ENDCHAR
STARTCHAR 03A5
ENCODING 9556
SWIDTH 2000 0
DWIDTH 20 0
BBX 13 14 4 0
BITMAP
7878
08B8
0D00
0600
0C00
0800
0800
0800
1000
1000
1000
2000
2000
F800
ENDCHAR
STARTCHAR 03A6
ENCODING 9557
SWIDTH 2000 0
DWIDTH 20 0
BBX 12 14 4 0
BITMAP
07C0
0700
1DC0
3120
6210
4210
C210
8430
8420
8460
4840
2980
1F00
7C00
ENDCHAR
STARTCHAR 03A7
ENCODING 9558
SWIDTH 2000 0
DWIDTH 20 0
BBX 18 14 1 0
BITMAP
0FC7C0
020200
030400
010800
019000
00A000
00C000
00C000
016000
062000
083000
101000
301800
F87E00
ENDCHAR
STARTCHAR 03A8
ENCODING 9559
SWIDTH 2000 0
DWIDTH 20 0
BBX 14 14 3 0
BITMAP
201C
D3AC
1324
1220
2220
6220
4420
4460
4440
6DC0
1F00
0800
1800
7E00
ENDCHAR
STARTCHAR 03A9
ENCODING 9560
SWIDTH 2000 0
DWIDTH 20 0
BBX 14 14 3 0
BITMAP
00E0
0318
0C04
1804
1004
3004
2004
200C
2018
1030
0CC0
8508
8910
F9F0
ENDCHAR
STARTCHAR 03B1
ENCODING 9569
SWIDTH 2000 0
DWIDTH 20 0
BBX 10 9 5 0
BITMAP
0E40
32C0
2280
4280
C300
8200
8200
8E00
7300
ENDCHAR
STARTCHAR 03B2
ENCODING 9570
SWIDTH 2000 0
DWIDTH 20 0
BBX 11 17 5 -3
BITMAP
0180
0640
0840
0860
1040
1040
2780
2500
2080
2080
4080
4080
6100
DF00
8000
8000
8000
ENDCHAR
STARTCHAR 03B3
ENCODING 9571
SWIDTH 2000 0
DWIDTH 20 0
BBX 10 12 5 -3
BITMAP
70C0
9980
0900
0A00
0C00
0800
1000
1000
3000
2000
6000
4000
ENDCHAR
STARTCHAR 03B4
ENCODING 9572
SWIDTH 2000 0
DWIDTH 20 0
BBX 10 14 5 0
BITMAP
0E00
0B00
1180
0880
0440
0200
1E00
2100
4100
4100
C100
4300
4600
3C00
ENDCHAR
STARTCHAR 03B5
ENCODING 9573
SWIDTH 2000 0
DWIDTH 20 0
BBX 8 9 6 0
BITMAP
1E
21
40
40
7C
80
80
C2
7C
ENDCHAR
STARTCHAR 03B6
ENCODING 9574
SWIDTH 2000 0
DWIDTH 20 0
BBX 8 16 6 -3
BITMAP
60
43
4E
38
20
40
80
80
80
80
80
78
04
08
F8
70
ENDCHAR
STARTCHAR 03B7
ENCODING 9575
SWIDTH 2000 0
DWIDTH 20 0
BBX 8 12 6 -3
BITMAP
67
B9
31
21
62
42
C4
84
0C
08
18
10
ENDCHAR
STARTCHAR 03B8
ENCODING 9576
SWIDTH 2000 0
DWIDTH 20 0
BBX 10 14 5 0
BITMAP
0380
0C80
1840
1040
2080
2080
7F80
4180
4100
4100
C200
8200
4400
7800
ENDCHAR
STARTCHAR 03B9
ENCODING 9577
SWIDTH 2000 0
DWIDTH 20 0
BBX 4 9 8 0
BITMAP
30
30
60
40
C0
80
80
90
E0
ENDCHAR
STARTCHAR 03BA
ENCODING 9578
SWIDTH 2000 0
DWIDTH 20 0
BBX 8 9 6 0
BITMAP
33
24
28
70
70
48
88
8A
8C
ENDCHAR
STARTCHAR 03BB
ENCODING 9579
SWIDTH 2000 0
DWIDTH 20 0
BBX 8 14 6 0
BITMAP
08
0E
02
02
02
02
06
0A
1A
32
22
42
C3
81
ENDCHAR
STARTCHAR 03BC
ENCODING 9580
SWIDTH 2000 0
DWIDTH 20 0
BBX 10 10 5 -2
BITMAP
0840
1840
10C0
3080
2180
2100
2140
57C0
4800
C000
ENDCHAR
STARTCHAR 03BD
ENCODING 9581
SWIDTH 2000 0
DWIDTH 20 0
BBX 8 9 6 0
BITMAP
C0
41
41
42
42
44
88
B0
E0
ENDCHAR
STARTCHAR 03BE
ENCODING 9582
SWIDTH 2000 0
DWIDTH 20 0
BBX 10 16 5 -2
BITMAP
0700
0800
0980
0FC0
3000
2000
2000
1F80
2300
C000
8000
8000
C000
7E00
0200
1E00
ENDCHAR
STARTCHAR 03BF
ENCODING 9583
SWIDTH 2000 0
DWIDTH 20 0
BBX 8 10 6 -1
BITMAP
1E
21
41
C1
81
83
82
84
48
30
ENDCHAR
STARTCHAR 03C0
ENCODING 9584
SWIDTH 2000 0
DWIDTH 20 0
BBX 10 8 5 0
BITMAP
7FC0
9200
1200
2400
2400
4400
C400
8700
ENDCHAR
STARTCHAR 03C1
ENCODING 9585
SWIDTH 2000 0
DWIDTH 20 0
BBX 10 10 5 -2
BITMAP
0780
1840
1040
3040
20C0
6080
6100
5200
4C00
C000
ENDCHAR
STARTCHAR 03C3
ENCODING 9586
SWIDTH 2000 0
DWIDTH 20 0
BBX 10 11 5 -1
BITMAP
03C0
0CC0
3600
6100
4100
C100
8100
8200
4600
2800
1000
ENDCHAR
STARTCHAR 03C4
ENCODING 9587
SWIDTH 2000 0
DWIDTH 20 0
BBX 7 9 7 0
BITMAP
7E
9C
20
40
40
40
80
90
E0
ENDCHAR
STARTCHAR 03C5
ENCODING 9588
SWIDTH 2000 0
DWIDTH 20 0
BBX 8 10 6 -1
BITMAP
22
23
21
63
42
82
84
88
90
60
ENDCHAR
STARTCHAR 03C6
ENCODING 9589
SWIDTH 2000 0
DWIDTH 20 0
BBX 10 10 5 -2
BITMAP
1B80
6240
C440
8840
8840
8880
D100
3E00
1000
2000
ENDCHAR
STARTCHAR 03C7
ENCODING 9590
SWIDTH 2000 0
DWIDTH 20 0
BBX 10 11 5 -2
BITMAP
3840
28C0
0580
0500
0600
0400
0C00
1400
2400
6480
C780
ENDCHAR
STARTCHAR 03C8
ENCODING 9591
SWIDTH 2000 0
DWIDTH 20 0
BBX 10 17 5 -3
BITMAP
0100
0300
0300
0200
0200
24C0
64C0
4440
C880
8880
8880
5100
3E00
1000
3000
2000
2000
ENDCHAR
STARTCHAR 03C9
ENCODING 9592
SWIDTH 2000 0
DWIDTH 20 0
BBX 11 9 5 0
BITMAP
1040
2220
4620
8620
8420
8C60
8840
8880
F700
ENDCHAR
STARTCHAR 2500
ENCODING 9761
SWIDTH 2000 0
DWIDTH 20 0
BBX 20 1 0 5
BITMAP
FFFFF0
ENDCHAR
STARTCHAR 2502
ENCODING 9762
SWIDTH 2000 0
DWIDTH 20 0
BBX 1 20 9 -4
BITMAP
80
80
80
80
80
80
80
80
80
80
80
80
80
80
80
80
80
80
80
80
ENDCHAR
STARTCHAR 250C
ENCODING 9763
SWIDTH 2000 0
DWIDTH 20 0
BBX 11 10 9 -4
BITMAP
FFE0
8000
8000
8000
8000
8000
8000
8000
8000
8000
ENDCHAR
STARTCHAR 2510
ENCODING 9764
SWIDTH 2000 0
DWIDTH 20 0
BBX 11 10 -1 -4
BITMAP
FFE0
0020
0020
0020
0020
0020
0020
0020
0020
0020
ENDCHAR
STARTCHAR 2518
ENCODING 9765
SWIDTH 2000 0
DWIDTH 20 0
BBX 11 10 -1 6
BITMAP
0020
0020
0020
0020
0020
0020
0020
0020
0020
FFE0
ENDCHAR
STARTCHAR 2514
ENCODING 9766
SWIDTH 2000 0
DWIDTH 20 0
BBX 11 11 9 5
BITMAP
8000
8000
8000
8000
8000
8000
8000
8000
8000
8000
FFE0
ENDCHAR
STARTCHAR 251C
ENCODING 9767
SWIDTH 2000 0
DWIDTH 20 0
BBX 11 20 9 -4
BITMAP
8000
8000
8000
8000
8000
8000
8000
8000
8000
8000
FFE0
8000
8000
8000
8000
8000
8000
8000
8000
8000
ENDCHAR
STARTCHAR 252C
ENCODING 9768
SWIDTH 2000 0
DWIDTH 20 0
BBX 21 10 -1 -4
BITMAP
FFFFF8
002000
002000
002000
002000
002000
002000
002000
002000
002000
ENDCHAR
STARTCHAR 2524
ENCODING 9769
SWIDTH 2000 0
DWIDTH 20 0
BBX 11 20 -1 -4
BITMAP
0020
0020
0020
0020
0020
0020
0020
0020
0020
0020
FFE0
0020
0020
0020
0020
0020
0020
0020
0020
0020
ENDCHAR
STARTCHAR 2534
ENCODING 9770
SWIDTH 2000 0
DWIDTH 20 0
BBX 21 11 -1 5
BITMAP
002000
002000
002000
002000
002000
002000
002000
002000
002000
002000
FFFFF8
ENDCHAR
STARTCHAR 253C
ENCODING 9771
SWIDTH 2000 0
DWIDTH 20 0
BBX 21 20 -1 -4
BITMAP
002000
002000
002000
002000
002000
002000
002000
002000
002000
002000
FFFFF8
002000
002000
002000
002000
002000
002000
002000
002000
002000
ENDCHAR
STARTCHAR 2501
ENCODING 9772
SWIDTH 2000 0
DWIDTH 20 0
BBX 20 2 0 5
BITMAP
FFFFF0
FFFFF0
ENDCHAR
STARTCHAR 2503
ENCODING 9773
SWIDTH 2000 0
DWIDTH 20 0
BBX 1 20 9 -4
BITMAP
80
80
80
80
80
80
80
80
80
80
80
80
80
80
80
80
80
80
80
80
ENDCHAR
STARTCHAR 250F
ENCODING 9774
SWIDTH 2000 0
DWIDTH 20 0
BBX 10 11 9 -4
BITMAP
FFC0
FFC0
8000
8000
8000
8000
8000
8000
8000
8000
8000
ENDCHAR
STARTCHAR 2513
ENCODING 9775
SWIDTH 2000 0
DWIDTH 20 0
BBX 10 11 0 -4
BITMAP
FFC0
FFC0
0040
0040
0040
0040
0040
0040
0040
0040
0040
ENDCHAR
STARTCHAR 251B
ENCODING 9776
SWIDTH 2000 0
DWIDTH 20 0
BBX 10 11 0 5
BITMAP
0040
0040
0040
0040
0040
0040
0040
0040
0040
FFC0
FFC0
ENDCHAR
STARTCHAR 2517
ENCODING 9777
SWIDTH 2000 0
DWIDTH 20 0
BBX 10 11 9 5
BITMAP
8000
8000
8000
8000
8000
8000
8000
8000
8000
FFC0
FFC0
ENDCHAR
STARTCHAR 2523
ENCODING 9778
SWIDTH 2000 0
DWIDTH 20 0
BBX 10 20 9 -4
BITMAP
8000
8000
8000
8000
8000
8000
8000
8000
8000
FFC0
FFC0
8000
8000
8000
8000
8000
8000
8000
8000
8000
ENDCHAR
STARTCHAR 2533
ENCODING 9779
SWIDTH 2000 0
DWIDTH 20 0
BBX 19 11 0 -4
BITMAP
FFFFE0
FFFFE0
004000
004000
004000
004000
004000
004000
004000
004000
004000
ENDCHAR
STARTCHAR 252B
ENCODING 9780
SWIDTH 2000 0
DWIDTH 20 0
BBX 10 20 0 -4
BITMAP
0040
0040
0040
0040
0040
0040
0040
0040
0040
FFC0
FFC0
0040
0040
0040
0040
0040
0040
0040
0040
0040
ENDCHAR
STARTCHAR 253B
ENCODING 9781
SWIDTH 2000 0
DWIDTH 20 0
BBX 19 11 1 5
BITMAP
004000
004000
004000
004000
004000
004000
004000
004000
004000
FFFFE0
FFFFE0
ENDCHAR
STARTCHAR 254B
ENCODING 9782
SWIDTH 2000 0
DWIDTH 20 0
BBX 19 20 1 -4
BITMAP
004000
004000
004000
004000
004000
004000
004000
004000
004000
FFFFE0
FFFFE0
004000
004000
004000
004000
004000
004000
004000
004000
004000
ENDCHAR
STARTCHAR 2520
ENCODING 9783
SWIDTH 2000 0
DWIDTH 20 0
BBX 10 20 10 -4
BITMAP
8000
8000
8000
8000
8000
8000
8000
8000
8000
8000
FFC0
8000
8000
8000
8000
8000
8000
8000
8000
8000
ENDCHAR
STARTCHAR 252F
ENCODING 9784
SWIDTH 2000 0
DWIDTH 20 0
BBX 21 11 -1 -4
BITMAP
FFFFF8
FFFFF8
002000
002000
002000
002000
002000
002000
002000
002000
002000
ENDCHAR
STARTCHAR 2528
ENCODING 9785
SWIDTH 2000 0
DWIDTH 20 0
BBX 10 20 1 -4
BITMAP
0040
0040
0040
0040
0040
0040
0040
0040
0040
0040
FFC0
0040
0040
0040
0040
0040
0040
0040
0040
0040
ENDCHAR
STARTCHAR 2537
ENCODING 9786
SWIDTH 2000 0
DWIDTH 20 0
BBX 21 11 -1 5
BITMAP
002000
002000
002000
002000
002000
002000
002000
002000
002000
FFFFF8
FFFFF8
ENDCHAR
STARTCHAR 253F
ENCODING 9787
SWIDTH 2000 0
DWIDTH 20 0
BBX 21 20 -1 -4
BITMAP
002000
002000
002000
002000
002000
002000
002000
002000
002000
FFFFF8
FFFFF8
002000
002000
002000
002000
002000
002000
002000
002000
002000
ENDCHAR
STARTCHAR 251D
ENCODING 9788
SWIDTH 2000 0
DWIDTH 20 0
BBX 11 20 9 -4
BITMAP
8000
8000
8000
8000
8000
8000
8000
8000
8000
FFE0
FFE0
8000
8000
8000
8000
8000
8000
8000
8000
8000
ENDCHAR
STARTCHAR 2530
ENCODING 9789
SWIDTH 2000 0
DWIDTH 20 0
BBX 19 10 0 -4
BITMAP
FFFFE0
004000
004000
004000
004000
004000
004000
004000
004000
004000
ENDCHAR
STARTCHAR 2525
ENCODING 9790
SWIDTH 2000 0
DWIDTH 20 0
BBX 11 20 -1 -4
BITMAP
0020
0020
0020
0020
0020
0020
0020
0020
0020
FFE0
FFE0
0020
0020
0020
0020
0020
0020
0020
0020
0020
ENDCHAR
STARTCHAR 2538
ENCODING 9791
SWIDTH 2000 0
DWIDTH 20 0
BBX 19 11 0 5
BITMAP
004000
004000
004000
004000
004000
004000
004000
004000
004000
004000
FFFFE0
ENDCHAR
STARTCHAR 2542
ENCODING 9792
SWIDTH 2000 0
DWIDTH 20 0
BBX 19 20 0 -4
BITMAP
004000
004000
004000
004000
004000
004000
004000
004000
004000
004000
FFFFE0
004000
004000
004000
004000
004000
004000
004000
004000
004000
ENDCHAR
STARTCHAR 2512
ENCODING 9793
SWIDTH 2000 0
DWIDTH 20 0
BBX 10 10 0 -4
BITMAP
FFC0
0040
0040
0040
0040
0040
0040
0040
0040
0040
ENDCHAR
STARTCHAR 2511
ENCODING 9794
SWIDTH 2000 0
DWIDTH 20 0
BBX 11 11 -1 -4
BITMAP
FFE0
FFE0
0020
0020
0020
0020
0020
0020
0020
0020
0020
ENDCHAR
STARTCHAR 251A
ENCODING 9795
SWIDTH 2000 0
DWIDTH 20 0
BBX 10 11 1 5
BITMAP
0040
0040
0040
0040
0040
0040
0040
0040
0040
0040
FFC0
ENDCHAR
STARTCHAR 2519
ENCODING 9796
SWIDTH 2000 0
DWIDTH 20 0
BBX 11 11 0 5
BITMAP
0020
0020
0020
0020
0020
0020
0020
0020
0020
FFE0
FFE0
ENDCHAR
STARTCHAR 2516
ENCODING 9797
SWIDTH 2000 0
DWIDTH 20 0
BBX 10 11 9 5
BITMAP
8000
8000
8000
8000
8000
8000
8000
8000
8000
8000
FFC0
ENDCHAR
STARTCHAR 2515
ENCODING 9798
SWIDTH 2000 0
DWIDTH 20 0
BBX 11 11 9 5
BITMAP
8000
8000
8000
8000
8000
8000
8000
8000
8000
FFE0
FFE0
ENDCHAR
STARTCHAR 250E
ENCODING 9799
SWIDTH 2000 0
DWIDTH 20 0
BBX 10 10 10 -4
BITMAP
FFC0
8000
8000
8000
8000
8000
8000
8000
8000
8000
ENDCHAR
STARTCHAR 250D
ENCODING 9800
SWIDTH 2000 0
DWIDTH 20 0
BBX 11 11 9 -4
BITMAP
FFE0
FFE0
8000
8000
8000
8000
8000
8000
8000
8000
8000
ENDCHAR
STARTCHAR 251E
ENCODING 9801
SWIDTH 2000 0
DWIDTH 20 0
BBX 11 20 9 -4
BITMAP
4000
4000
4000
4000
4000
4000
4000
4000
4000
4000
FFE0
8000
8000
8000
8000
8000
8000
8000
8000
8000
ENDCHAR
STARTCHAR 251F
ENCODING 9802
SWIDTH 2000 0
DWIDTH 20 0
BBX 10 20 10 -4
BITMAP
8000
8000
8000
8000
8000
8000
8000
8000
8000
FFC0
8000
8000
8000
8000
8000
8000
8000
8000
8000
8000
ENDCHAR
STARTCHAR 2521
ENCODING 9803
SWIDTH 2000 0
DWIDTH 20 0
BBX 11 20 9 -4
BITMAP
4000
4000
4000
4000
4000
4000
4000
4000
4000
7FE0
FFE0
8000
8000
8000
8000
8000
8000
8000
8000
8000
ENDCHAR
STARTCHAR 2522
ENCODING 9804
SWIDTH 2000 0
DWIDTH 20 0
BBX 10 20 10 -4
BITMAP
8000
8000
8000
8000
8000
8000
8000
8000
8000
FFC0
FFC0
8000
8000
8000
8000
8000
8000
8000
8000
8000
ENDCHAR
STARTCHAR 2526
ENCODING 9805
SWIDTH 2000 0
DWIDTH 20 0
BBX 10 20 0 -4
BITMAP
0040
0040
0040
0040
0040
0040
0040
0040
0040
0040
FFC0
0040
0040
0040
0040
0040
0040
0040
0040
0040
ENDCHAR
STARTCHAR 2527
ENCODING 9806
SWIDTH 2000 0
DWIDTH 20 0
BBX 10 20 1 -4
BITMAP
0040
0040
0040
0040
0040
0040
0040
0040
0040
0040
FFC0
0040
0040
0040
0040
0040
0040
0040
0040
0040
ENDCHAR
STARTCHAR 2529
ENCODING 9807
SWIDTH 2000 0
DWIDTH 20 0
BBX 10 20 1 -4
BITMAP
0040
0040
0040
0040
0040
0040
0040
0040
0040
FFC0
FFC0
0040
0040
0040
0040
0040
0040
0040
0040
0040
ENDCHAR
STARTCHAR 252A
ENCODING 9808
SWIDTH 2000 0
DWIDTH 20 0
BBX 10 20 1 -4
BITMAP
0080
0080
0080
0080
0080
0080
0080
0080
0080
FF80
FFC0
0040
0040
0040
0040
0040
0040
0040
0040
0040
ENDCHAR
STARTCHAR 252D
ENCODING 9809
SWIDTH 2000 0
DWIDTH 20 0
BBX 21 11 -1 -4
BITMAP
FFE000
FFFFF8
002000
002000
002000
002000
002000
002000
002000
002000
002000
ENDCHAR
STARTCHAR 252E
ENCODING 9810
SWIDTH 2000 0
DWIDTH 20 0
BBX 21 11 -1 -4
BITMAP
001FF8
FFFFF8
002000
002000
002000
002000
002000
002000
002000
002000
002000
ENDCHAR
STARTCHAR 2531
ENCODING 9811
SWIDTH 2000 0
DWIDTH 20 0
BBX 19 11 0 -4
BITMAP
FFC000
FFFFE0
004000
004000
004000
004000
004000
004000
004000
004000
004000
ENDCHAR
STARTCHAR 2532
ENCODING 9812
SWIDTH 2000 0
DWIDTH 20 0
BBX 19 11 0 -4
BITMAP
007FE0
FFFFE0
004000
004000
004000
004000
004000
004000
004000
004000
004000
ENDCHAR
STARTCHAR 2535
ENCODING 9813
SWIDTH 2000 0
DWIDTH 20 0
BBX 21 11 -1 5
BITMAP
002000
002000
002000
002000
002000
002000
002000
002000
002000
FFE000
FFFFF8
ENDCHAR
STARTCHAR 2536
ENCODING 9814
SWIDTH 2000 0
DWIDTH 20 0
BBX 21 11 -1 5
BITMAP
002000
002000
002000
002000
002000
002000
002000
002000
002000
003FF8
FFFFF8
ENDCHAR
STARTCHAR 2539
ENCODING 9815
SWIDTH 2000 0
DWIDTH 20 0
BBX 19 11 0 5
BITMAP
004000
004000
004000
004000
004000
004000
004000
004000
004000
FFC000
FFFFE0
ENDCHAR
STARTCHAR 253A
ENCODING 9816
SWIDTH 2000 0
DWIDTH 20 0
BBX 19 11 0 5
BITMAP
004000
004000
004000
004000
004000
004000
004000
004000
004000
007FE0
FFFFE0
ENDCHAR
STARTCHAR 253D
ENCODING 9817
SWIDTH 2000 0
DWIDTH 20 0
BBX 21 20 -1 -4
BITMAP
002000
002000
002000
002000
002000
002000
002000
002000
002000
FFE000
FFFFF8
002000
002000
002000
002000
002000
002000
002000
002000
002000
ENDCHAR
STARTCHAR 253E
ENCODING 9818
SWIDTH 2000 0
DWIDTH 20 0
BBX 21 20 -1 -4
BITMAP
002000
002000
002000
002000
002000
002000
002000
002000
002000
003FF8
FFFFF8
002000
002000
002000
002000
002000
002000
002000
002000
002000
ENDCHAR
STARTCHAR 2540
ENCODING 9819
SWIDTH 2000 0
DWIDTH 20 0
BBX 19 20 0 -4
BITMAP
004000
004000
004000
004000
004000
004000
004000
004000
004000
004000
FFFFE0
004000
004000
004000
004000
004000
004000
004000
004000
004000
ENDCHAR
STARTCHAR 2541
ENCODING 9820
SWIDTH 2000 0
DWIDTH 20 0
BBX 19 20 0 -4
BITMAP
004000
004000
004000
004000
004000
004000
004000
004000
004000
004000
FFFFE0
004000
004000
004000
004000
004000
004000
004000
004000
004000
ENDCHAR
STARTCHAR 2543
ENCODING 9821
SWIDTH 2000 0
DWIDTH 20 0
BBX 19 20 1 -4
BITMAP
004000
004000
004000
004000
004000
004000
004000
004000
004000
FFC000
FFFFE0
004000
004000
004000
004000
004000
004000
004000
004000
004000
ENDCHAR
STARTCHAR 2544
ENCODING 9822
SWIDTH 2000 0
DWIDTH 20 0
BBX 19 20 0 -4
BITMAP
004000
004000
004000
004000
004000
004000
004000
004000
004000
007FE0
FFFFE0
004000
004000
004000
004000
004000
004000
004000
004000
004000
ENDCHAR
STARTCHAR 2545
ENCODING 9823
SWIDTH 2000 0
DWIDTH 20 0
BBX 19 20 0 -4
BITMAP
004000
004000
004000
004000
004000
004000
004000
004000
004000
FFC000
FFFFE0
004000
004000
004000
004000
004000
004000
004000
004000
004000
ENDCHAR
STARTCHAR 2546
ENCODING 9824
SWIDTH 2000 0
DWIDTH 20 0
BBX 19 20 0 -4
BITMAP
004000
004000
004000
004000
004000
004000
004000
004000
004000
007FE0
FFFFE0
004000
004000
004000
004000
004000
004000
004000
004000
004000
ENDCHAR
STARTCHAR 2547
ENCODING 9825
SWIDTH 2000 0
DWIDTH 20 0
BBX 19 20 1 -4
BITMAP
004000
004000
004000
004000
004000
004000
004000
004000
004000
FFFFE0
FFFFE0
008000
008000
008000
008000
008000
008000
008000
008000
008000
ENDCHAR
STARTCHAR 2548
ENCODING 9826
SWIDTH 2000 0
DWIDTH 20 0
BBX 19 20 1 -4
BITMAP
004000
004000
004000
004000
004000
004000
004000
004000
004000
FFFFE0
FFFFE0
004000
004000
004000
004000
004000
004000
004000
004000
004000
ENDCHAR
STARTCHAR 2549
ENCODING 9827
SWIDTH 2000 0
DWIDTH 20 0
BBX 19 20 0 -4
BITMAP
004000
004000
004000
004000
004000
004000
004000
004000
004000
FFC000
FFFFE0
004000
004000
004000
004000
004000
004000
004000
004000
004000
ENDCHAR
STARTCHAR 254A
ENCODING 9828
SWIDTH 2000 0
DWIDTH 20 0
BBX 19 20 0 -4
BITMAP
004000
004000
004000
004000
004000
004000
004000
004000
004000
007FE0
FFFFE0
004000
004000
004000
004000
004000
004000
004000
004000
004000
ENDCHAR
STARTCHAR 3395
ENCODING 10017
SWIDTH 2000 0
DWIDTH 20 0
BBX 18 18 1 -4
BITMAP
000180
000240
000240
000440
000480
082480
186480
104500
30C600
208400
208400
211C40
412240
62C180
5C0000
800000
800000
800000
ENDCHAR
STARTCHAR 3396
ENCODING 10018
SWIDTH 2000 0
DWIDTH 20 0
BBX 18 15 1 -1
BITMAP
000300
000480
000480
000880
000880
DB8900
6C8900
488A00
488C00
488800
488800
48B840
488480
488500
000200
ENDCHAR
STARTCHAR 3397
ENCODING 10019
SWIDTH 2000 0
DWIDTH 20 0
BBX 16 15 2 -1
BITMAP
060C
0212
0212
0222
0224
0224
7A24
4628
8230
8220
8261
82A2
4612
6A1C
1000
ENDCHAR
STARTCHAR 2113
ENCODING 10020
SWIDTH 2000 0
DWIDTH 20 0
BBX 8 15 6 -1
BITMAP
0C
12
12
22
24
24
24
28
30
20
61
A2
12
14
08
ENDCHAR
STARTCHAR 3398
ENCODING 10021
SWIDTH 2000 0
DWIDTH 20 0
BBX 17 15 2 -1
BITMAP
C00600
400900
400900
401100
401200
401200
421200
441400
481800
5C1000
641080
427100
430900
418A00
000400
ENDCHAR
STARTCHAR 33C4
ENCODING 10022
SWIDTH 2000 0
DWIDTH 20 0
BBX 17 10 1 -1
BITMAP
3C0F00
421080
C32080
802000
802000
802000
802000
421080
641900
180600
ENDCHAR
STARTCHAR 33A3
ENCODING 10023
SWIDTH 2000 0
DWIDTH 20 0
BBX 16 15 2 0
BITMAP
0007
0001
0002
0001
0001
0002
B65B
DA6D
9249
9249
9249
9249
9249
9249
9249
ENDCHAR
STARTCHAR 33A4
ENCODING 10024
SWIDTH 2000 0
DWIDTH 20 0
BBX 16 16 2 -1
BITMAP
0007
0001
0002
0001
0001
0006
38B6
44DA
8092
8092
8092
8092
8092
4092
4892
3000
ENDCHAR
STARTCHAR 33A5
ENCODING 10025
SWIDTH 2000 0
DWIDTH 20 0
BBX 13 15 4 0
BITMAP
0038
0008
0008
0008
0028
0010
DCE0
6310
4210
4210
4210
4210
4210
4210
4210
ENDCHAR
STARTCHAR 33A6
ENCODING 10026
SWIDTH 2000 0
DWIDTH 20 0
BBX 16 15 2 0
BITMAP
0007
4001
4002
4001
4005
4002
45B7
48C9
5089
7889
6889
4C89
4489
4489
C789
ENDCHAR
STARTCHAR 3399
ENCODING 10027
SWIDTH 2000 0
DWIDTH 20 0
BBX 15 14 2 0
BITMAP
1800
6800
4000
4000
4000
F36E
41B2
4122
4122
4122
4122
4122
4122
E122
ENDCHAR
STARTCHAR 339A
ENCODING 10028
SWIDTH 2000 0
DWIDTH 20 0
BBX 19 10 0 0
BITMAP
040000
5B6EE0
613320
412220
412220
412220
412220
412220
412220
E3A220
ENDCHAR
STARTCHAR 339B
ENCODING 10029
SWIDTH 2000 0
DWIDTH 20 0
BBX 19 13 0 -4
BITMAP
0876E0
18D920
109120
119120
319120
211120
211120
221120
35D120
480000
400000
C00000
800000
ENDCHAR
STARTCHAR 339C
ENCODING 10030
SWIDTH 2000 0
DWIDTH 20 0
BBX 17 9 2 0
BITMAP
B6DF80
DA6880
924880
924880
924880
924880
924880
924880
924D80
ENDCHAR
STARTCHAR 339D
ENCODING 10031
SWIDTH 2000 0
DWIDTH 20 0
BBX 17 10 1 -1
BITMAP
3C5B80
426480
864480
804480
804480
804480
804480
824480
644480
180000
ENDCHAR
STARTCHAR 339E
ENCODING 10032
SWIDTH 2000 0
DWIDTH 20 0
BBX 16 14 2 0
BITMAP
8000
8000
8000
8000
8000
89B7
90C9
A089
B089
D089
9089
8889
8889
8C89
ENDCHAR
STARTCHAR 339F
ENCODING 10033
SWIDTH 2000 0
DWIDTH 20 0
BBX 16 15 2 0
BITMAP
0007
0001
0003
0004
0007
0000
B65B
DA6D
9249
9249
9249
9249
9249
9249
9249
ENDCHAR
STARTCHAR 33A0
ENCODING 10034
SWIDTH 2000 0
DWIDTH 20 0
BBX 16 16 2 -1
BITMAP
0007
0005
0002
0004
0008
0006
3CF7
4499
8091
8091
8091
8091
8091
4491
2491
1800
ENDCHAR
STARTCHAR 33A1
ENCODING 10035
SWIDTH 2000 0
DWIDTH 20 0
BBX 13 15 4 0
BITMAP
0038
0028
0008
0030
0040
0030
DCE0
6310
4210
4210
4210
4210
4210
4210
4210
ENDCHAR
STARTCHAR 33A2
ENCODING 10036
SWIDTH 2000 0
DWIDTH 20 0
BBX 17 15 1 0
BITMAP
000380
C00080
400180
400200
400380
400000
46DB80
486C80
484880
584880
684880
484880
444880
444880
464880
ENDCHAR
STARTCHAR 33CA
ENCODING 10037
SWIDTH 2000 0
DWIDTH 20 0
BBX 17 14 1 0
BITMAP
C00000
400000
400000
400000
400000
441E00
7B2100
412100
412300
411D00
412100
412100
412100
E3BF80
ENDCHAR
STARTCHAR 338D
ENCODING 10038
SWIDTH 2000 0
DWIDTH 20 0
BBX 20 13 0 -4
BITMAP
042770
082880
086840
184840
10CC80
108B00
209000
211800
312FC0
4EC820
401020
C01020
C00FC0
ENDCHAR
STARTCHAR 338E
ENCODING 10039
SWIDTH 2000 0
DWIDTH 20 0
BBX 20 13 0 -4
BITMAP
DDC7F0
6648C0
444840
444840
444480
444B00
445000
445800
4447C0
000860
001020
001020
000FC0
ENDCHAR
STARTCHAR 338F
ENCODING 10040
SWIDTH 2000 0
DWIDTH 20 0
BBX 19 18 1 -4
BITMAP
400000
400000
400000
400000
400000
470EE0
421140
441100
481100
781100
441E00
462000
422000
E79F00
0020C0
002040
002040
001F80
ENDCHAR
STARTCHAR 33CF
ENCODING 10041
SWIDTH 2000 0
DWIDTH 20 0
BBX 16 14 2 0
BITMAP
C000
4000
4000
4000
4010
4010
421C
4410
4810
5810
6410
4210
4211
410E
ENDCHAR
STARTCHAR 3388
ENCODING 10042
SWIDTH 2000 0
DWIDTH 20 0
BBX 20 14 0 -1
BITMAP
000020
000020
000020
000020
3C3820
424420
424420
C01C20
806420
C08420
C08420
428420
247C30
180000
ENDCHAR
STARTCHAR 3389
ENCODING 10043
SWIDTH 2000 0
DWIDTH 20 0
BBX 20 15 0 -1
BITMAP
C00060
400020
400020
400020
400020
46E720
452920
4929A0
4901A0
7907A0
6909A0
4509A0
4519A0
46ABB0
004400
ENDCHAR
STARTCHAR 33C8
ENCODING 10044
SWIDTH 2000 0
DWIDTH 20 0
BBX 20 15 0 -1
BITMAP
033E00
0111C0
011060
011060
011060
011060
7D10C0
431F40
811020
811010
811010
811010
431020
2510C0
180F00
ENDCHAR
STARTCHAR 33A7
ENCODING 10045
SWIDTH 2000 0
DWIDTH 20 0
BBX 18 18 1 -4
BITMAP
DF0000
690040
490080
490100
490200
490400
490800
491000
002E00
005100
009080
011000
020F00
040180
082080
101080
201900
400600
ENDCHAR
STARTCHAR 33A8
ENCODING 10046
SWIDTH 2000 0
DWIDTH 20 0
BBX 18 17 2 -3
BITMAP
B60080
DA0100
920200
920400
920800
921180
922140
924080
00BD00
014600
024580
046000
081C00
100400
204200
402200
803C00
ENDCHAR
STARTCHAR 33B0
ENCODING 10047
SWIDTH 2000 0
DWIDTH 20 0
BBX 16 13 2 -4
BITMAP
DC3E
6221
4120
4130
411E
4103
4101
4121
6232
5C0C
4000
4000
4000
ENDCHAR
STARTCHAR 33B1
ENCODING 10048
SWIDTH 2000 0
DWIDTH 20 0
BBX 16 10 2 -1
BITMAP
DC3E
6222
4220
4220
421C
4206
4201
4201
4232
000C
ENDCHAR
STARTCHAR 33B2
ENCODING 10049
SWIDTH 2000 0
DWIDTH 20 0
BBX 18 12 1 -3
BITMAP
0C2F80
086880
184840
18CC00
10C700
1081C0
219040
210840
32EC80
4C0300
400000
C00000
ENDCHAR
STARTCHAR 33B3
ENCODING 10050
SWIDTH 2000 0
DWIDTH 20 0
BBX 17 10 2 -1
BITMAP
DB9F00
6C9100
489000
489800
488F00
488380
48A080
489080
489D00
000200
ENDCHAR
STARTCHAR 33B4
ENCODING 10051
SWIDTH 2000 0
DWIDTH 20 0
BBX 18 18 1 -4
BITMAP
01E1C0
00C080
004080
004100
004100
DC2100
622200
412200
411200
411200
411400
410C00
410C00
620800
5C0000
400000
400000
C00000
ENDCHAR
STARTCHAR 33B5
ENCODING 10052
SWIDTH 2000 0
DWIDTH 20 0
BBX 18 14 1 0
BITMAP
01E1C0
00C080
004080
004100
046100
5E2100
622200
423200
421200
421400
421C00
420C00
420C00
E70800
ENDCHAR
STARTCHAR 33B6
ENCODING 10053
SWIDTH 2000 0
DWIDTH 20 0
BBX 20 17 0 -3
BITMAP
007870
002020
003040
001040
001040
0C3880
086880
184880
10CC80
10C500
208500
210700
210200
33C200
4C0000
400000
C00000
ENDCHAR
STARTCHAR 33B7
ENCODING 10054
SWIDTH 2000 0
DWIDTH 20 0
BBX 19 14 0 0
BITMAP
007060
002040
003040
001040
001040
DDD880
664880
444880
444D00
444500
444500
444600
444200
444200
ENDCHAR
STARTCHAR 33B8
ENCODING 10055
SWIDTH 2000 0
DWIDTH 20 0
BBX 18 14 1 0
BITMAP
C0F1C0
406080
402080
402080
402100
403100
421100
441200
481200
580A00
640C00
460C00
420C00
430400
ENDCHAR
STARTCHAR 33B9
ENCODING 10056
SWIDTH 2000 0
DWIDTH 20 0
BBX 20 14 0 0
BITMAP
C0DE70
418820
618C40
618440
628440
528440
528680
528280
548280
4C8280
4C8380
4C8100
488100
E1C100
ENDCHAR
STARTCHAR 3380
ENCODING 10057
SWIDTH 2000 0
DWIDTH 20 0
BBX 17 17 1 -4
BITMAP
000C00
000C00
000C00
001400
DC1600
621200
412200
412200
413F00
412100
414100
414100
624180
5C0000
400000
400000
400000
ENDCHAR
STARTCHAR 3381
ENCODING 10058
SWIDTH 2000 0
DWIDTH 20 0
BBX 17 13 2 0
BITMAP
000800
000C00
001400
001400
B81400
C41200
842200
842200
843E00
844300
844100
844100
84E180
ENDCHAR
STARTCHAR 3382
ENCODING 10059
SWIDTH 2000 0
DWIDTH 20 0
BBX 20 18 0 -4
BITMAP
000100
000100
000300
000300
000580
042480
086480
184480
10C8C0
108FC0
308840
210840
213060
33D020
4C38F0
400000
C00000
800000
ENDCHAR
STARTCHAR 3383
ENCODING 10060
SWIDTH 2000 0
DWIDTH 20 0
BBX 18 14 1 0
BITMAP
000400
000400
000600
000A00
000A00
B70A00
D90B00
911100
911100
911F00
912180
912080
912080
9160C0
ENDCHAR
STARTCHAR 3384
ENCODING 10061
SWIDTH 2000 0
DWIDTH 20 0
BBX 18 14 1 0
BITMAP
C00000
400600
400600
400A00
400A00
400B00
420900
441100
481180
782E80
4C2080
442080
4220C0
430000
ENDCHAR
STARTCHAR 33BA
ENCODING 10062
SWIDTH 2000 0
DWIDTH 20 0
BBX 20 18 0 -4
BITMAP
07BCF0
010820
010C40
010C40
018C40
DC9440
629640
41D280
415280
415380
416180
416180
432100
762100
480000
400000
400000
400000
ENDCHAR
STARTCHAR 33BB
ENCODING 10063
SWIDTH 2000 0
DWIDTH 20 0
BBX 19 14 1 0
BITMAP
07BCE0
030840
010840
010880
011480
9D9480
E29480
829680
82E280
826300
826300
826100
826100
870100
ENDCHAR
STARTCHAR 33BC
ENCODING 10064
SWIDTH 2000 0
DWIDTH 20 0
BBX 19 16 0 -3
BITMAP
00E660
006220
002220
002640
0C6640
08E540
18B540
119940
119940
311980
231880
221880
678080
580000
400000
C00000
ENDCHAR
STARTCHAR 33BD
ENCODING 10065
SWIDTH 2000 0
DWIDTH 20 0
BBX 19 14 1 0
BITMAP
01DEE0
008C40
00C480
00CC80
004C80
B64C80
DA5680
925280
927300
923300
923300
923300
922100
920000
ENDCHAR
STARTCHAR 33BE
ENCODING 10066
SWIDTH 2000 0
DWIDTH 20 0
BBX 19 14 1 0
BITMAP
C1DEE0
408C40
40CC80
40CC80
404C80
404C80
425680
445280
487300
583300
6C3300
442300
422100
432000
ENDCHAR
STARTCHAR 33BF
ENCODING 10067
SWIDTH 2000 0
DWIDTH 20 0
BBX 20 14 0 0
BITMAP
C0FBB0
409120
619120
619120
619920
5299A0
528AC0
528AC0
528CC0
4C8CC0
4C8CC0
4C8C80
488480
E1C000
ENDCHAR
STARTCHAR 3390
ENCODING 10068
SWIDTH 2000 0
DWIDTH 20 0
BBX 19 14 1 0
BITMAP
E1C000
408000
408000
408000
408000
408FE0
4098C0
7F9180
408100
408200
408400
408C00
409840
E1FFC0
ENDCHAR
STARTCHAR 3391
ENCODING 10069
SWIDTH 2000 0
DWIDTH 20 0
BBX 20 14 0 0
BITMAP
41DC00
408800
408800
408800
408800
4089F0
44FB20
488A20
508840
7088C0
588880
488910
4C8920
CC8BE0
ENDCHAR
STARTCHAR 3392
ENCODING 10070
SWIDTH 2000 0
DWIDTH 20 0
BBX 20 14 0 0
BITMAP
C3EE00
424400
664400
664400
664400
6A44F0
6A4520
6A7D20
5A4440
5A4440
524480
524480
524510
574DE0
ENDCHAR
STARTCHAR 3393
ENCODING 10071
SWIDTH 2000 0
DWIDTH 20 0
BBX 20 15 0 -1
BITMAP
208800
D88800
848800
848800
808800
8089F0
80FB20
808A20
8E8840
8488C0
848880
848980
848910
59DF20
2000C0
ENDCHAR
STARTCHAR 3394
ENCODING 10072
SWIDTH 2000 0
DWIDTH 20 0
BBX 19 14 1 0
BITMAP
FF1800
2A1000
221000
221000
221000
2213E0
23F640
221440
221080
221100
221100
221220
221240
2317C0
ENDCHAR
STARTCHAR 2126
ENCODING 10073
SWIDTH 2000 0
DWIDTH 20 0
BBX 14 14 3 0
BITMAP
07E0
1830
2018
600C
400C
400C
400C
400C
2018
1830
86C4
8284
8284
FEFC
ENDCHAR
STARTCHAR 33C0
ENCODING 10074
SWIDTH 2000 0
DWIDTH 20 0
BBX 20 14 0 0
BITMAP
C00780
401840
402020
402010
402010
402010
422010
442030
481020
5C0840
640580
424520
434520
41BCE0
ENDCHAR
STARTCHAR 33C1
ENCODING 10075
SWIDTH 2000 0
DWIDTH 20 0
BBX 19 14 1 0
BITMAP
000F00
8130C0
C32040
C34020
C34020
A54020
A54020
A56060
A92040
991980
994620
994620
914620
C17FE0
ENDCHAR
STARTCHAR 338A
ENCODING 10076
SWIDTH 2000 0
DWIDTH 20 0
BBX 15 18 3 -4
BITMAP
01FE
0082
0080
0080
0080
3888
C4F8
8288
8280
8280
8280
8280
8680
EDC0
9000
8000
8000
8000
ENDCHAR
STARTCHAR 338B
ENCODING 10077
SWIDTH 2000 0
DWIDTH 20 0
BBX 18 14 1 0
BITMAP
003FC0
001040
001000
001000
041000
5B1000
611300
411D00
411000
411000
411000
411000
411000
E3B800
ENDCHAR
STARTCHAR 338C
ENCODING 10078
SWIDTH 2000 0
DWIDTH 20 0
BBX 18 17 1 -3
BITMAP
003FC0
001040
001000
001000
001000
085000
185100
10DF00
309000
219000
211000
211000
421000
65B800
580000
800000
800000
ENDCHAR
STARTCHAR 33D6
ENCODING 10079
SWIDTH 2000 0
DWIDTH 20 0
BBX 19 14 0 -1
BITMAP
000060
000020
000020
000020
DB1E20
6D2120
4921A0
4940A0
4940A0
4940A0
4940A0
4961A0
492120
001E00
ENDCHAR
STARTCHAR 33C5
ENCODING 10080
SWIDTH 2000 0
DWIDTH 20 0
BBX 17 14 1 -1
BITMAP
000080
000080
000080
000080
3C0080
420E80
821180
802080
802080
802080
802080
822080
641380
180C00
ENDCHAR
STARTCHAR 33AD
ENCODING 10081
SWIDTH 2000 0
DWIDTH 20 0
BBX 19 14 0 0
BITMAP
000020
000020
000020
000020
000020
CCE120
7512E0
411420
407420
419420
411420
431420
431260
61F9A0
ENDCHAR
STARTCHAR 33AE
ENCODING 10082
SWIDTH 2000 0
DWIDTH 20 0
BBX 18 18 1 -3
BITMAP
000800
000800
000800
867800
E98800
838800
9D8800
998800
9B5800
042080
000300
000C00
0033C0
004440
018300
0600C0
180040
6003C0
ENDCHAR
STARTCHAR 33AF
ENCODING 10083
SWIDTH 2000 0
DWIDTH 20 0
BBX 18 18 1 -3
BITMAP
000800
000800
000800
867800
E98800
838800
9D8800
998800
9B5800
042080
000340
000CC0
003640
00C980
030400
0C0300
300100
000600
ENDCHAR
STARTCHAR 33DB
ENCODING 10084
SWIDTH 2000 0
DWIDTH 20 0
BBX 15 9 2 0
BITMAP
7C66
402A
4030
6020
3C20
0620
8220
4220
7420
ENDCHAR
STARTCHAR 33A9
ENCODING 10085
SWIDTH 2000 0
DWIDTH 20 0
BBX 18 15 1 -1
BITMAP
F00000
4F0000
408000
408000
408000
409E00
40A100
413100
7E0100
401F00
402100
402100
406100
4027C0
001800
ENDCHAR
STARTCHAR 33AA
ENCODING 10086
SWIDTH 2000 0
DWIDTH 20 0
BBX 20 14 0 0
BITMAP
C0E000
409800
408C00
408400
408400
408DC0
448E20
488A20
50F020
7081E0
488220
488620
448620
46C3F0
ENDCHAR
STARTCHAR 33AB
ENCODING 10087
SWIDTH 2000 0
DWIDTH 20 0
BBX 20 14 0 0
BITMAP
C7F800
464C00
664400
AA4400
AA4400
AA45C0
AA4620
AA4E20
BA7820
9A41E0
924220
924220
924220
D643F0
ENDCHAR
STARTCHAR 33AC
ENCODING 10088
SWIDTH 2000 0
DWIDTH 20 0
BBX 20 15 0 -1
BITMAP
71F000
4C8800
848C00
848400
808400
8085C0
808A20
808A20
8EF020
8481E0
848220
848420
448420
6DC3F0
100000
ENDCHAR
STARTCHAR 33DD
ENCODING 10089
SWIDTH 2000 0
DWIDTH 20 0
BBX 18 15 1 -1
BITMAP
CCF800
4C9000
449000
449000
4D1000
4D1000
751780
771880
331040
321040
321040
221040
221880
223580
000200
ENDCHAR
STARTCHAR 33D0
ENCODING 10090
SWIDTH 2000 0
DWIDTH 20 0
BBX 14 14 3 0
BITMAP
4000
4000
4000
4000
4000
4DFC
4644
4444
4444
4444
4444
4444
4444
E46C
ENDCHAR
STARTCHAR 33D3
ENCODING 10091
SWIDTH 2000 0
DWIDTH 20 0
BBX 14 14 3 0
BITMAP
4000
4000
4000
4000
4000
471C
4310
4120
40A0
40C0
40E0
4130
4218
E60C
ENDCHAR
STARTCHAR 33C3
ENCODING 10092
SWIDTH 2000 0
DWIDTH 20 0
BBX 19 17 1 -4
BITMAP
FE0000
830000
810000
810000
830F60
8608C0
FE1040
811040
809040
809040
809040
811840
FE0FC0
000040
000040
000040
0000E0
ENDCHAR
STARTCHAR 33C9
ENCODING 10093
SWIDTH 2000 0
DWIDTH 20 0
BBX 18 18 1 -4
BITMAP
380000
440000
820000
820000
820000
8071C0
802080
803100
871100
821100
820A00
820A00
420C00
660400
180800
000800
002800
007000
ENDCHAR
STARTCHAR 33DC
ENCODING 10094
SWIDTH 2000 0
DWIDTH 20 0
BBX 20 14 0 0
BITMAP
7E0000
810000
800000
800000
800000
6078F0
3E1040
071840
018880
008880
008500
808500
418200
7E0200
ENDCHAR
STARTCHAR 33C6
ENCODING 10095
SWIDTH 2000 0
DWIDTH 20 0
BBX 19 17 1 -3
BITMAP
381000
442000
824000
804000
808000
810000
820000
460000
3C8000
08BBE0
10A440
10E440
20B380
409600
8007C0
800C40
0007C0
ENDCHAR
STARTCHAR 00C6
ENCODING 10273
SWIDTH 2000 0
DWIDTH 20 0
BBX 19 14 0 0
BITMAP
00FFC0
00A0C0
00A020
012000
012100
022100
043F00
042100
0FE100
082000
102000
202020
2020C0
F8FFC0
ENDCHAR
STARTCHAR 00D0
ENCODING 10274
SWIDTH 2000 0
DWIDTH 20 0
BBX 13 14 3 0
BITMAP
7F80
1060
1010
1010
1008
1008
1008
FE08
1008
1008
1010
1010
1060
7F80
ENDCHAR
STARTCHAR 00AA
ENCODING 10275
SWIDTH 2000 0
DWIDTH 20 0
BBX 10 14 5 0
BITMAP
0C00
7300
6100
0100
0300
1D00
6100
4100
4100
4300
3D80
0000
0000
FFC0
ENDCHAR
STARTCHAR 0126
ENCODING 10276
SWIDTH 2000 0
DWIDTH 20 0
BBX 16 14 2 0
BITMAP
7C3E
1008
1008
FFFF
1008
1008
1008
1FF8
1008
1008
1008
1008
1008
7C3E
ENDCHAR
STARTCHAR 0132
ENCODING 10278
SWIDTH 2000 0
DWIDTH 20 0
BBX 13 14 4 0
BITMAP
F8F8
2020
2020
2020
2020
2020
2020
2020
2020
2020
2020
2020
2340
FBC0
ENDCHAR
STARTCHAR 013F
ENCODING 10280
SWIDTH 2000 0
DWIDTH 20 0
BBX 11 14 5 0
BITMAP
FC00
2000
2000
2000
2000
2000
2400
2400
2000
2000
2000
2020
2040
FFC0
ENDCHAR
STARTCHAR 0141
ENCODING 10281
SWIDTH 2000 0
DWIDTH 20 0
BBX 12 14 4 0
BITMAP
7C00
1000
1000
1200
1400
1800
1000
3000
5000
9000
9000
1010
1020
7FE0
ENDCHAR
STARTCHAR 00D8
ENCODING 10282
SWIDTH 2000 0
DWIDTH 20 0
BBX 14 15 3 -1
BITMAP
0FC4
306C
4018
4028
8048
8084
8104
8204
8404
8804
D004
6008
2010
5860
8780
ENDCHAR
STARTCHAR 0152
ENCODING 10283
SWIDTH 2000 0
DWIDTH 20 0
BBX 18 15 1 -1
BITMAP
0FFF80
304180
404040
404000
804200
804200
804600
807E00
804200
804200
804000
404040
2040C0
19E780
061800
ENDCHAR
STARTCHAR 00BA
ENCODING 10284
SWIDTH 2000 0
DWIDTH 20 0
BBX 8 14 6 0
BITMAP
3C
42
C3
81
81
81
81
81
C3
42
3C
00
00
FF
ENDCHAR
STARTCHAR 00DE
ENCODING 10285
SWIDTH 2000 0
DWIDTH 20 0
BBX 12 14 4 0
BITMAP
FC00
1000
1000
1FC0
1020
1010
1010
1010
1010
1030
1FC0
1000
1000
7800
ENDCHAR
STARTCHAR 0166
ENCODING 10286
SWIDTH 2000 0
DWIDTH 20 0
BBX 13 14 3 0
BITMAP
7FF0
C218
8208
0200
0200
0200
0200
3FE0
0200
0200
0200
0200
0200
1FC0
ENDCHAR
STARTCHAR 014A
ENCODING 10287
SWIDTH 2000 0
DWIDTH 20 0
BBX 11 15 4 -1
BITMAP
2380
EC40
3020
2020
2020
2020
2020
2020
2020
2020
2020
2620
2220
7A40
0180
ENDCHAR
STARTCHAR 3260
ENCODING 10289
SWIDTH 2000 0
DWIDTH 20 0
BBX 18 18 1 -3
BITMAP
03F000
0C0C00
100200
200100
400080
5FFC80
840440
800440
800440
800440
800440
800440
400480
400480
200100
100200
0C0C00
03F000
ENDCHAR
STARTCHAR 3261
ENCODING 10290
SWIDTH 2000 0
DWIDTH 20 0
BBX 18 18 1 -3
BITMAP
03F000
0C0C00
100200
200100
400080
5C0080
840040
840040
840040
840040
840040
840440
43FE80
400080
200100
100200
0C0C00
03F000
ENDCHAR
STARTCHAR 3262
ENCODING 10291
SWIDTH 2000 0
DWIDTH 20 0
BBX 18 18 1 -3
BITMAP
03F000
0C0C00
100200
200100
400080
4FFC80
840040
840040
840040
840040
840040
840040
47FE80
400080
200100
100200
0C0C00
03F000
ENDCHAR
STARTCHAR 3263
ENCODING 10292
SWIDTH 2000 0
DWIDTH 20 0
BBX 18 18 1 -3
BITMAP
03F000
0C0C00
100200
200100
400080
4FFC80
800840
800840
8FFC40
840040
840040
840040
440080
47FE80
200100
100200
0C0C00
03F000
ENDCHAR
STARTCHAR 3264
ENCODING 10293
SWIDTH 2000 0
DWIDTH 20 0
BBX 18 18 1 -3
BITMAP
03F000
0C0C00
100200
200100
500080
4FFC80
840C40
840840
840840
840840
840840
840840
47FC80
440080
200100
100200
0C0C00
03F000
ENDCHAR
STARTCHAR 3265
ENCODING 10294
SWIDTH 2000 0
DWIDTH 20 0
BBX 18 18 1 -3
BITMAP
03F000
0C0C00
100200
200100
5C1880
440880
840840
87F840
840840
840840
840840
840840
47F880
440880
200100
100200
0C0C00
03F000
ENDCHAR
STARTCHAR 3266
ENCODING 10295
SWIDTH 2000 0
DWIDTH 20 0
BBX 18 18 1 -3
BITMAP
03F000
0C0C00
100200
200100
408080
406080
804040
80C040
81A040
811040
820C40
840640
580280
400080
200100
100200
0C0C00
03F000
ENDCHAR
STARTCHAR 3267
ENCODING 10296
SWIDTH 2000 0
DWIDTH 20 0
BBX 18 18 1 -3
BITMAP
03F000
0C0C00
100200
200100
40C080
43F080
860840
8C0440
8C0440
880440
880440
840440
461880
43F080
200100
100200
0C0C00
03F000
ENDCHAR
STARTCHAR 3268
ENCODING 10297
SWIDTH 2000 0
DWIDTH 20 0
BBX 18 18 1 -3
BITMAP
03F000
0C0C00
100200
200100
400C80
4FFC80
860840
801840
803040
806040
80E040
819840
460680
480280
200100
100200
0C0C00
03F000
ENDCHAR
STARTCHAR 3269
ENCODING 10298
SWIDTH 2000 0
DWIDTH 20 0
BBX 18 18 1 -3
BITMAP
03F000
0C0C00
100200
210100
40F080
400080
800840
8FFC40
841840
803040
806040
80E040
431C80
440680
280100
100200
0C0C00
03F000
ENDCHAR
STARTCHAR 326A
ENCODING 10299
SWIDTH 2000 0
DWIDTH 20 0
BBX 18 18 1 -3
BITMAP
03F000
0C0C00
100200
200100
400680
4FFE80
800440
800440
800C40
9FF440
840840
800840
401880
401080
202100
104200
0C0C00
03F000
ENDCHAR
STARTCHAR 326B
ENCODING 10300
SWIDTH 2000 0
DWIDTH 20 0
BBX 18 18 1 -3
BITMAP
03F000
0C0C00
100200
200100
400880
4FFC80
840040
840040
840040
87F840
840040
840040
440E80
47F080
200100
100200
0C0C00
03F000
ENDCHAR
STARTCHAR 326C
ENCODING 10301
SWIDTH 2000 0
DWIDTH 20 0
BBX 18 18 1 -3
BITMAP
03F000
0C0C00
100200
200100
400480
4FFE80
803040
821040
821040
832040
812040
802240
5FFF80
400080
200100
100200
0C0C00
03F000
ENDCHAR
STARTCHAR 326D
ENCODING 10302
SWIDTH 2000 0
DWIDTH 20 0
BBX 18 18 1 -3
BITMAP
03F000
0C0C00
100200
220100
41F080
400080
800440
9FFF40
804040
83F040
861840
840840
440880
461880
23F100
100200
0C0C00
03F000
ENDCHAR
STARTCHAR 326E
ENCODING 10303
SWIDTH 2000 0
DWIDTH 20 0
BBX 18 18 1 -3
BITMAP
03F000
0C0C00
100200
201900
400880
400880
9FC840
808840
818840
810F40
820840
840840
580880
400880
200900
100A00
0C0C00
03F000
ENDCHAR
STARTCHAR 326F
ENCODING 10304
SWIDTH 2000 0
DWIDTH 20 0
BBX 18 18 1 -3
BITMAP
03F000
0C0C00
100200
201900
400880
500880
880840
880840
880840
880F40
886840
8F8840
480880
400880
200900
100A00
0C0C00
03F000
ENDCHAR
STARTCHAR 3270
ENCODING 10305
SWIDTH 2000 0
DWIDTH 20 0
BBX 18 18 1 -3
BITMAP
03F000
0C0C00
100200
201900
408880
5FC880
880840
880840
880840
880F40
886840
8F8840
400880
400880
200900
100A00
0C0C00
03F000
ENDCHAR
STARTCHAR 3271
ENCODING 10306
SWIDTH 2000 0
DWIDTH 20 0
BBX 18 18 1 -3
BITMAP
03F000
0C0C00
100200
201900
400880
5FC880
808840
808840
9FC840
880F40
880840
886840
4F8880
400880
200900
100A00
0C0C00
03F000
ENDCHAR
STARTCHAR 3272
ENCODING 10307
SWIDTH 2000 0
DWIDTH 20 0
BBX 18 18 1 -3
BITMAP
03F000
0C0C00
100200
201900
400880
400880
9FC840
884840
884840
888F40
888840
8FC840
480880
400880
200900
100A00
0C0C00
03F000
ENDCHAR
STARTCHAR 3273
ENCODING 10308
SWIDTH 2000 0
DWIDTH 20 0
BBX 18 18 1 -3
BITMAP
03F000
0C0C00
100200
201900
400880
418880
908840
908840
9F8840
908F40
908840
9F8840
508880
400880
200900
100A00
0C0C00
03F000
ENDCHAR
STARTCHAR 3274
ENCODING 10309
SWIDTH 2000 0
DWIDTH 20 0
BBX 18 18 1 -3
BITMAP
03F000
0C0C00
100200
201900
400880
418880
810840
830840
820840
858F40
88C840
904840
600880
400880
200900
100A00
0C0C00
03F000
ENDCHAR
STARTCHAR 3275
ENCODING 10310
SWIDTH 2000 0
DWIDTH 20 0
BBX 18 18 1 -3
BITMAP
03F000
0C0C00
100200
201900
400880
420880
8F8840
98C840
904840
904F40
98C840
8F8840
400880
400880
200900
100A00
0C0C00
03F000
ENDCHAR
STARTCHAR 3276
ENCODING 10311
SWIDTH 2000 0
DWIDTH 20 0
BBX 18 18 1 -3
BITMAP
03F000
0C0C00
100200
201900
400880
408880
8F8840
818840
810840
830F40
84C840
884840
700880
400880
200900
100A00
0C0C00
03F000
ENDCHAR
STARTCHAR 3277
ENCODING 10312
SWIDTH 2000 0
DWIDTH 20 0
BBX 18 18 1 -3
BITMAP
03F000
0C0C00
100200
201900
460880
418880
800840
9FC840
888840
810F40
830840
86C840
484880
700880
200900
100A00
0C0C00
03F000
ENDCHAR
STARTCHAR 3278
ENCODING 10313
SWIDTH 2000 0
DWIDTH 20 0
BBX 18 18 1 -3
BITMAP
03F000
0C0C00
100200
201900
400880
53C880
8CC840
808840
9F8840
810F40
820840
840840
480880
500880
200900
100A00
0C0C00
03F000
ENDCHAR
STARTCHAR 3279
ENCODING 10314
SWIDTH 2000 0
DWIDTH 20 0
BBX 18 18 1 -3
BITMAP
03F000
0C0C00
100200
201900
400880
418880
8E0840
880840
8F8840
880F40
880840
89E840
4E0880
400880
200900
100A00
0C0C00
03F000
ENDCHAR
STARTCHAR 327A
ENCODING 10315
SWIDTH 2000 0
DWIDTH 20 0
BBX 18 18 1 -3
BITMAP
03F000
0C0C00
100200
201900
400880
63C880
9C0840
80C840
8C8840
848E40
813840
BFC840
500880
400880
200900
100A00
0C0C00
03F000
ENDCHAR
STARTCHAR 327B
ENCODING 10316
SWIDTH 2000 0
DWIDTH 20 0
BBX 18 18 1 -3
BITMAP
03F000
0C0C00
100200
201900
470880
400880
804840
BFE840
8F8940
98CE40
984840
984840
48C880
4F8880
200900
100A00
0C0C00
03F000
ENDCHAR
STARTCHAR 24D0
ENCODING 10317
SWIDTH 2000 0
DWIDTH 20 0
BBX 18 18 1 -3
BITMAP
03F000
0C0C00
100200
200100
400080
41E080
831040
801040
803040
81D040
821040
821040
423C80
41C080
200100
100200
0C0C00
03F000
ENDCHAR
STARTCHAR 24D1
ENCODING 10318
SWIDTH 2000 0
DWIDTH 20 0
BBX 18 18 1 -3
BITMAP
03F000
0C0C00
100200
260100
420080
420080
820040
82F840
830C40
820440
820440
820440
420480
420880
239100
106200
0C0C00
03F000
ENDCHAR
STARTCHAR 24D2
ENCODING 10319
SWIDTH 2000 0
DWIDTH 20 0
BBX 18 18 1 -3
BITMAP
03F000
0C0C00
100200
200100
400080
41F080
823040
820040
860040
860040
860040
820840
41B080
404080
200100
100200
0C0C00
03F000
ENDCHAR
STARTCHAR 24D3
ENCODING 10320
SWIDTH 2000 0
DWIDTH 20 0
BBX 18 18 1 -3
BITMAP
03F000
0C0C00
100200
207100
401080
401080
801040
83D040
843040
881040
881040
881040
481080
441080
237100
108A00
0C0C00
03F000
ENDCHAR
STARTCHAR 24D4
ENCODING 10321
SWIDTH 2000 0
DWIDTH 20 0
BBX 18 18 1 -3
BITMAP
03F000
0C0C00
100200
200100
400080
41E080
822040
841040
87F040
840040
840040
840040
421080
41E080
200100
100200
0C0C00
03F000
ENDCHAR
STARTCHAR 24D5
ENCODING 10322
SWIDTH 2000 0
DWIDTH 20 0
BBX 18 18 1 -3
BITMAP
03F000
0C0C00
100200
207100
408080
408080
808040
83E040
808040
808040
808040
808040
408080
408080
208100
114200
0C0C00
03F000
ENDCHAR
STARTCHAR 24D6
ENCODING 10323
SWIDTH 2000 0
DWIDTH 20 0
BBX 18 18 1 -3
BITMAP
03F000
0C0C00
100200
200100
41EC80
433080
821040
821040
821040
816040
838040
82F040
440880
441880
23F100
100200
0C0C00
03F000
ENDCHAR
STARTCHAR 24D7
ENCODING 10324
SWIDTH 2000 0
DWIDTH 20 0
BBX 18 18 1 -3
BITMAP
03F000
0C0C00
100200
220100
420080
420080
820040
826040
83B040
821040
821040
821040
421080
421080
221100
100200
0C0C00
03F000
ENDCHAR
STARTCHAR 24D8
ENCODING 10325
SWIDTH 2000 0
DWIDTH 20 0
BBX 18 18 1 -3
BITMAP
03F000
0C0C00
10C200
20C100
400080
400080
800040
80C040
804040
804040
804040
804040
404080
404080
20E100
100200
0C0C00
03F000
ENDCHAR
STARTCHAR 24D9
ENCODING 10326
SWIDTH 2000 0
DWIDTH 20 0
BBX 18 18 1 -3
BITMAP
03F000
0C0C00
10C200
200100
400080
400080
80C040
804040
804040
804040
804040
804040
404080
404080
204100
134200
0D8C00
03F000
ENDCHAR
STARTCHAR 24DA
ENCODING 10327
SWIDTH 2000 0
DWIDTH 20 0
BBX 18 18 1 -3
BITMAP
03F000
0C0C00
100200
260100
420080
420080
820040
823040
822040
824040
82C040
836040
422080
421080
273D00
100200
0C0C00
03F000
ENDCHAR
STARTCHAR 24DB
ENCODING 10328
SWIDTH 2000 0
DWIDTH 20 0
BBX 18 18 1 -3
BITMAP
03F000
0C0C00
100200
20C100
404080
404080
804040
804040
804040
804040
804040
804040
404080
404080
204100
100200
0C0C00
03F000
ENDCHAR
STARTCHAR 24DC
ENCODING 10329
SWIDTH 2000 0
DWIDTH 20 0
BBX 18 18 1 -3
BITMAP
03F000
0C0C00
100200
200100
400080
5B9C80
8C6240
884240
884240
884240
884240
884240
5CE780
400080
200100
100200
0C0C00
03F000
ENDCHAR
STARTCHAR 24DD
ENCODING 10330
SWIDTH 2000 0
DWIDTH 20 0
BBX 18 18 1 -3
BITMAP
03F000
0C0C00
100200
200100
400080
46E080
831040
821040
821040
821040
821040
821040
431080
400080
200100
100200
0C0C00
03F000
ENDCHAR
STARTCHAR 24DE
ENCODING 10331
SWIDTH 2000 0
DWIDTH 20 0
BBX 18 18 1 -3
BITMAP
03F000
0C0C00
100200
200100
400080
41E080
821040
841840
840840
840840
840840
861840
421080
41E080
200100
100200
0C0C00
03F000
ENDCHAR
STARTCHAR 24DF
ENCODING 10332
SWIDTH 2000 0
DWIDTH 20 0
BBX 18 18 1 -3
BITMAP
03F000
0C0C00
100200
200100
436080
419080
810840
810840
810840
810840
810840
81B040
414080
410080
238100
100200
0C0C00
03F000
ENDCHAR
STARTCHAR 24E0
ENCODING 10333
SWIDTH 2000 0
DWIDTH 20 0
BBX 18 18 1 -3
BITMAP
03F000
0C0C00
100200
200100
47F080
441080
881040
881040
881040
881040
841040
837040
409080
401080
203900
100200
0C0C00
03F000
ENDCHAR
STARTCHAR 24E1
ENCODING 10334
SWIDTH 2000 0
DWIDTH 20 0
BBX 18 18 1 -3
BITMAP
03F000
0C0C00
100200
200100
400080
401880
80B840
80C040
808040
808040
808040
808040
408080
400080
200100
100200
0C0C00
03F000
ENDCHAR
STARTCHAR 24E2
ENCODING 10335
SWIDTH 2000 0
DWIDTH 20 0
BBX 18 18 1 -3
BITMAP
03F000
0C0C00
100200
200100
400080
41F080
821040
830040
818040
807040
801040
821040
431080
40E080
200100
100200
0C0C00
03F000
ENDCHAR
STARTCHAR 24E3
ENCODING 10336
SWIDTH 2000 0
DWIDTH 20 0
BBX 18 18 1 -3
BITMAP
03F000
0C0C00
100200
200100
408080
408080
81F040
808040
808040
808040
808040
808040
408080
409080
206100
100200
0C0C00
03F000
ENDCHAR
STARTCHAR 24E4
ENCODING 10337
SWIDTH 2000 0
DWIDTH 20 0
BBX 18 18 1 -3
BITMAP
03F000
0C0C00
100200
200100
400080
401080
863040
821040
821040
821040
821040
821040
433080
41C080
200100
100200
0C0C00
03F000
ENDCHAR
STARTCHAR 24E5
ENCODING 10338
SWIDTH 2000 0
DWIDTH 20 0
BBX 18 18 1 -3
BITMAP
03F000
0C0C00
100200
200100
400080
473880
821040
821040
812040
812040
81C040
80C040
40C080
400080
200100
100200
0C0C00
03F000
ENDCHAR
STARTCHAR 24E6
ENCODING 10339
SWIDTH 2000 0
DWIDTH 20 0
BBX 18 18 1 -3
BITMAP
03F000
0C0C00
100200
200100
400080
400080
88C240
884440
846440
84A840
852840
831840
431080
421080
200100
100200
0C0C00
03F000
ENDCHAR
STARTCHAR 24E7
ENCODING 10340
SWIDTH 2000 0
DWIDTH 20 0
BBX 18 18 1 -3
BITMAP
03F000
0C0C00
100200
200100
400080
47B880
831040
812040
80C040
804040
81A040
823040
421880
400080
200100
100200
0C0C00
03F000
ENDCHAR
STARTCHAR 24E8
ENCODING 10341
SWIDTH 2000 0
DWIDTH 20 0
BBX 18 18 1 -3
BITMAP
03F000
0C0C00
100200
200100
479C80
430880
811040
811040
80A040
80A040
804040
804040
404080
428080
230100
100200
0C0C00
03F000
ENDCHAR
STARTCHAR 24E9
ENCODING 10342
SWIDTH 2000 0
DWIDTH 20 0
BBX 18 18 1 -3
BITMAP
03F000
0C0C00
100200
200100
400080
400080
81F040
822040
804040
80C040
808040
810040
421080
43F080
200100
100200
0C0C00
03F000
ENDCHAR
STARTCHAR 2460
ENCODING 10343
SWIDTH 2000 0
DWIDTH 20 0
BBX 18 18 1 -3
BITMAP
03F000
0C0C00
100200
238100
408080
408080
808040
808040
808040
808040
808040
808040
408080
408080
23E100
100200
0C0C00
03F000
ENDCHAR
STARTCHAR 2461
ENCODING 10344
SWIDTH 2000 0
DWIDTH 20 0
BBX 18 18 1 -3
BITMAP
03F000
0C0C00
104200
21B100
420880
420880
801840
801040
802040
804040
808040
810040
420880
420880
27F100
100200
0C0C00
03F000
ENDCHAR
STARTCHAR 2462
ENCODING 10345
SWIDTH 2000 0
DWIDTH 20 0
BBX 18 18 1 -3
BITMAP
03F000
0C0C00
100200
21E100
423080
421080
821040
801040
802040
81C040
803040
800840
400880
420880
221100
11E200
0C0C00
03F000
ENDCHAR
STARTCHAR 2463
ENCODING 10346
SWIDTH 2000 0
DWIDTH 20 0
BBX 18 18 1 -3
BITMAP
03F000
0C0C00
104200
204100
40C080
414080
814040
824040
824040
844040
884040
8FF040
404080
404080
20E100
100200
0C0C00
03F000
ENDCHAR
STARTCHAR 2464
ENCODING 10347
SWIDTH 2000 0
DWIDTH 20 0
BBX 18 18 1 -3
BITMAP
03F000
0C0C00
100200
23F100
420080
420080
820040
824040
83B040
801840
800840
800840
420880
421080
223100
11C200
0C0C00
03F000
ENDCHAR
STARTCHAR 2465
ENCODING 10348
SWIDTH 2000 0
DWIDTH 20 0
BBX 18 18 1 -3
BITMAP
03F000
0C0C00
100200
204100
41B080
421080
820040
840040
85C040
862040
841040
841040
441080
421080
222100
11C200
0C0C00
03F000
ENDCHAR
STARTCHAR 2466
ENCODING 10349
SWIDTH 2000 0
DWIDTH 20 0
BBX 18 18 1 -3
BITMAP
03F000
0C0C00
100200
23F900
421080
441080
802040
802040
804040
804040
808040
808040
418080
418080
218100
100200
0C0C00
03F000
ENDCHAR
STARTCHAR 2467
ENCODING 10350
SWIDTH 2000 0
DWIDTH 20 0
BBX 18 18 1 -3
BITMAP
03F000
0C0C00
180600
31E300
621180
421880
C210C0
821040
81A040
816040
821040
840840
440880
440880
261100
11E200
0C0C00
03F000
ENDCHAR
STARTCHAR 2468
ENCODING 10351
SWIDTH 2000 0
DWIDTH 20 0
BBX 18 18 1 -3
BITMAP
03F000
0C0C00
10E200
211100
421080
420880
820840
820840
811840
80E840
800840
801040
431080
412080
20C100
100200
0C0C00
03F000
ENDCHAR
STARTCHAR 2469
ENCODING 10352
SWIDTH 2000 0
DWIDTH 20 0
BBX 18 18 1 -3
BITMAP
03F000
0C0C00
100200
200100
5C0C80
441280
842140
842140
842140
842140
842140
842140
441280
5F0C80
200100
100200
0C0C00
03F000
ENDCHAR
STARTCHAR 246A
ENCODING 10353
SWIDTH 2000 0
DWIDTH 20 0
BBX 18 18 1 -3
BITMAP
03F000
0C0C00
100200
200100
5C3880
440880
840840
840840
840840
840840
840840
840840
440880
5F3E80
200100
100200
0C0C00
03F000
ENDCHAR
STARTCHAR 246B
ENCODING 10354
SWIDTH 2000 0
DWIDTH 20 0
BBX 18 18 1 -3
BITMAP
03F000
0C0C00
100200
200100
5C1E80
442280
842340
840240
840440
840840
841040
842040
442180
5F3E80
200100
100200
0C0C00
03F000
ENDCHAR
STARTCHAR 246C
ENCODING 10355
SWIDTH 2000 0
DWIDTH 20 0
BBX 18 18 1 -3
BITMAP
03F000
0C0C00
100200
200100
5C1E80
443380
840340
840240
840C40
840340
840140
843140
442380
5F1C80
200100
100200
0C0C00
03F000
ENDCHAR
STARTCHAR 246D
ENCODING 10356
SWIDTH 2000 0
DWIDTH 20 0
BBX 18 18 1 -3
BITMAP
03F000
0C0C00
100200
200100
5C0480
440480
840C40
841440
841440
842440
844440
847F40
440480
5F0680
200100
100200
0C0C00
03F000
ENDCHAR
STARTCHAR 246E
ENCODING 10357
SWIDTH 2000 0
DWIDTH 20 0
BBX 18 18 1 -3
BITMAP
03F000
0C0C00
100200
200100
447C80
4C4080
844040
844040
847C40
840240
840240
840240
444280
442480
2A1900
100200
0C0C00
03F000
ENDCHAR
STARTCHAR 00BD
ENCODING 10358
SWIDTH 2000 0
DWIDTH 20 0
BBX 14 17 3 -3
BITMAP
C004
4008
4010
4020
4040
4040
4080
C100
0230
04CC
0884
1084
2018
4020
8040
8084
00FC
ENDCHAR
STARTCHAR 2153
ENCODING 10359
SWIDTH 2000 0
DWIDTH 20 0
BBX 14 17 3 -3
BITMAP
C004
4008
4010
4020
4040
4080
4080
E100
0278
0484
08C4
1008
2038
4004
8084
8084
0078
ENDCHAR
STARTCHAR 2154
ENCODING 10360
SWIDTH 2000 0
DWIDTH 20 0
BBX 16 18 2 -3
BITMAP
1800
6400
C602
0404
0808
3010
4220
8440
FC80
011C
0222
0423
0402
080E
1001
2061
4023
001C
ENDCHAR
STARTCHAR 00BC
ENCODING 10361
SWIDTH 2000 0
DWIDTH 20 0
BBX 14 16 3 -2
BITMAP
6004
2008
2010
2020
2020
2040
2080
F100
0210
0430
0850
1090
2110
2210
43F8
8010
ENDCHAR
STARTCHAR 00BE
ENCODING 10362
SWIDTH 2000 0
DWIDTH 20 0
BBX 14 16 3 -2
BITMAP
F804
8C08
0C08
1010
0C20
8440
8480
8900
7210
0430
0450
0890
1110
2210
43F8
8010
ENDCHAR
STARTCHAR 215B
ENCODING 10363
SWIDTH 2000 0
DWIDTH 20 0
BBX 15 17 3 -3
BITMAP
6004
2008
2010
2020
2020
2040
2080
2100
4238
04C6
0882
10C4
2038
20C6
4082
8082
006C
ENDCHAR
STARTCHAR 215C
ENCODING 10364
SWIDTH 2000 0
DWIDTH 20 0
BBX 16 18 2 -4
BITMAP
7C01
4402
4404
0808
0410
0220
C240
4480
391C
0162
0243
0462
081C
1063
2041
4041
0026
0018
ENDCHAR
STARTCHAR 215D
ENCODING 10365
SWIDTH 2000 0
DWIDTH 20 0
BBX 16 18 2 -3
BITMAP
FC00
8002
8004
B808
C610
0220
4240
4240
3C80
013E
0263
0443
0842
103E
2043
4041
4043
003C
ENDCHAR
STARTCHAR 215E
ENCODING 10366
SWIDTH 2000 0
DWIDTH 20 0
BBX 15 17 3 -3
BITMAP
FC04
8408
0810
0820
1040
1080
1080
3100
0238
04C4
0884
1044
2038
40C6
8082
8084
0078
ENDCHAR
STARTCHAR 00E6
ENCODING 10529
SWIDTH 2000 0
DWIDTH 20 0
BBX 14 10 3 -1
BITMAP
3CF0
6388
C304
03FC
1E00
6200
C200
C308
6DF0
1000
ENDCHAR
STARTCHAR 0111
ENCODING 10530
SWIDTH 2000 0
DWIDTH 20 0
BBX 9 15 6 -1
BITMAP
0200
0E00
0200
3F80
0200
3A00
4600
8200
8200
8200
8200
8200
C200
6E00
1000
ENDCHAR
STARTCHAR 00F0
ENCODING 10531
SWIDTH 2000 0
DWIDTH 20 0
BBX 8 14 6 -1
BITMAP
20
12
0C
34
06
3A
47
81
81
81
81
C3
42
3C
ENDCHAR
STARTCHAR 0127
ENCODING 10532
SWIDTH 2000 0
DWIDTH 20 0
BBX 9 13 5 0
BITMAP
E000
2000
FE00
2000
2E00
3100
2100
2100
2100
2100
2100
2100
7380
ENDCHAR
STARTCHAR 0131
ENCODING 10533
SWIDTH 2000 0
DWIDTH 20 0
BBX 3 9 9 0
BITMAP
40
C0
40
40
40
40
40
40
E0
ENDCHAR
STARTCHAR 0133
ENCODING 10534
SWIDTH 2000 0
DWIDTH 20 0
BBX 8 15 6 -2
BITMAP
81
00
00
00
41
C3
41
41
41
41
41
41
E1
01
0E
ENDCHAR
STARTCHAR 0138
ENCODING 10535
SWIDTH 2000 0
DWIDTH 20 0
BBX 9 9 6 0
BITMAP
E380
4200
4C00
4800
7800
4C00
4600
4200
E380
ENDCHAR
STARTCHAR 0140
ENCODING 10536
SWIDTH 2000 0
DWIDTH 20 0
BBX 8 13 6 0
BITMAP
E0
20
20
20
20
21
21
20
20
20
20
20
70
ENDCHAR
STARTCHAR 0142
ENCODING 10537
SWIDTH 2000 0
DWIDTH 20 0
BBX 7 14 7 0
BITMAP
30
10
12
14
18
18
10
10
30
50
90
10
10
38
ENDCHAR
STARTCHAR 00F8
ENCODING 10538
SWIDTH 2000 0
DWIDTH 20 0
BBX 10 10 5 0
BITMAP
0C00
3300
4180
C2C0
84C0
88C0
D0C0
6080
6180
9E00
ENDCHAR
STARTCHAR 0153
ENCODING 10539
SWIDTH 2000 0
DWIDTH 20 0
BBX 14 10 3 -1
BITMAP
3CF8
4308
8104
81FC
8100
8100
8100
4380
24F8
1800
ENDCHAR
STARTCHAR 00DF
ENCODING 10540
SWIDTH 2000 0
DWIDTH 20 0
BBX 10 15 5 -1
BITMAP
1E00
2100
4080
4080
4080
4080
4300
4180
40C0
40C0
4040
4040
44C0
4480
8700
ENDCHAR
STARTCHAR 00FE
ENCODING 10541
SWIDTH 2000 0
DWIDTH 20 0
BBX 8 16 6 -2
BITMAP
40
C0
40
40
40
7E
42
41
41
41
41
41
42
64
58
E0
ENDCHAR
STARTCHAR 0167
ENCODING 10542
SWIDTH 2000 0
DWIDTH 20 0
BBX 7 14 7 0
BITMAP
20
20
20
20
FC
20
F8
20
20
20
20
20
22
3C
ENDCHAR
STARTCHAR 014B
ENCODING 10543
SWIDTH 2000 0
DWIDTH 20 0
BBX 8 13 6 -4
BITMAP
5E
63
41
41
41
41
41
41
E1
19
19
0A
04
ENDCHAR
STARTCHAR 0149
ENCODING 10544
SWIDTH 2000 0
DWIDTH 20 0
BBX 12 12 3 0
BITMAP
2000
6000
4000
89C0
0E20
0820
0820
0820
0820
0820
0820
1C70
ENDCHAR
STARTCHAR 3200
ENCODING 10545
SWIDTH 2000 0
DWIDTH 20 0
BBX 18 15 1 -2
BITMAP
200200
200100
400080
5FF880
800840
800840
800840
800840
800840
800840
400880
400880
400100
200100
100200
ENDCHAR
STARTCHAR 3201
ENCODING 10546
SWIDTH 2000 0
DWIDTH 20 0
BBX 18 15 1 -2
BITMAP
200200
200100
400080
5C0080
840040
840040
840040
840040
840040
840040
47FE80
400080
400100
200100
100200
ENDCHAR
STARTCHAR 3202
ENCODING 10547
SWIDTH 2000 0
DWIDTH 20 0
BBX 18 15 1 -2
BITMAP
200200
200100
400080
400880
8FFC40
840040
840040
840040
840040
840840
47FE80
400080
400100
200100
100200
ENDCHAR
STARTCHAR 3203
ENCODING 10548
SWIDTH 2000 0
DWIDTH 20 0
BBX 18 15 1 -2
BITMAP
200200
200100
400080
4FF880
800840
800840
8FF840
840040
840040
840040
440480
47FE80
400100
200100
100200
ENDCHAR
STARTCHAR 3204
ENCODING 10549
SWIDTH 2000 0
DWIDTH 20 0
BBX 18 15 1 -2
BITMAP
200200
200100
400080
400080
8FFC40
840C40
840840
840840
840840
840840
47F880
440080
400100
200100
100200
ENDCHAR
STARTCHAR 3205
ENCODING 10550
SWIDTH 2000 0
DWIDTH 20 0
BBX 18 15 1 -2
BITMAP
200200
200100
400080
5C1880
840840
840840
87F840
840840
840840
840840
47F880
440880
400100
200100
100200
ENDCHAR
STARTCHAR 3206
ENCODING 10551
SWIDTH 2000 0
DWIDTH 20 0
BBX 18 15 1 -2
BITMAP
200200
200100
408080
406080
806040
80C040
80C040
813040
820840
840440
480280
400080
400100
200100
100200
ENDCHAR
STARTCHAR 3207
ENCODING 10552
SWIDTH 2000 0
DWIDTH 20 0
BBX 18 16 1 -2
BITMAP
000200
200100
200100
40C080
43F080
861840
880440
880440
880440
880440
880440
461880
43F080
400100
200100
100200
ENDCHAR
STARTCHAR 3208
ENCODING 10553
SWIDTH 2000 0
DWIDTH 20 0
BBX 18 15 1 -2
BITMAP
200200
200100
400880
4FFC80
860840
801040
803040
806040
80A040
831840
440C80
480280
400100
200100
100200
ENDCHAR
STARTCHAR 3209
ENCODING 10554
SWIDTH 2000 0
DWIDTH 20 0
BBX 18 15 1 -2
BITMAP
200200
200100
41F080
400080
800840
8FF840
803040
806040
80E040
811840
460C80
480280
400100
200100
100200
ENDCHAR
STARTCHAR 320A
ENCODING 10555
SWIDTH 2000 0
DWIDTH 20 0
BBX 18 15 1 -2
BITMAP
200200
200100
400480
4FFE80
860440
800440
800C40
8FFC40
800840
800840
401080
401080
402100
200100
100200
ENDCHAR
STARTCHAR 320B
ENCODING 10556
SWIDTH 2000 0
DWIDTH 20 0
BBX 18 15 1 -2
BITMAP
200200
200100
401880
4FFC80
840040
840040
841840
87F840
840040
840040
440480
47FE80
400100
200100
100200
ENDCHAR
STARTCHAR 320C
ENCODING 10557
SWIDTH 2000 0
DWIDTH 20 0
BBX 18 15 1 -2
BITMAP
200200
200100
400480
4FFE80
802040
801040
821040
831040
812040
802240
5FFF80
400080
400100
200100
100200
ENDCHAR
STARTCHAR 320D
ENCODING 10558
SWIDTH 2000 0
DWIDTH 20 0
BBX 18 15 1 -2
BITMAP
200200
220100
41F080
400080
800040
9FFF40
804040
83F040
861840
840840
440880
461880
43F100
200100
100200
ENDCHAR
STARTCHAR 320E
ENCODING 10559
SWIDTH 2000 0
DWIDTH 20 0
BBX 18 15 1 -2
BITMAP
201A00
200900
400880
5FC880
884840
808840
818840
830F40
860840
880840
500880
400880
400900
200900
100200
ENDCHAR
STARTCHAR 320F
ENCODING 10560
SWIDTH 2000 0
DWIDTH 20 0
BBX 18 15 1 -2
BITMAP
201A00
200900
400880
580880
880840
880840
880840
880F40
882840
8BC840
440880
400880
400900
200900
100200
ENDCHAR
STARTCHAR 3210
ENCODING 10561
SWIDTH 2000 0
DWIDTH 20 0
BBX 18 15 1 -2
BITMAP
203200
200900
400880
404880
9FC840
880840
880840
880F40
880840
886840
4F8880
400880
400900
200900
100200
ENDCHAR
STARTCHAR 3211
ENCODING 10562
SWIDTH 2000 0
DWIDTH 20 0
BBX 18 15 1 -2
BITMAP
201A00
200900
400880
5FC880
804840
808840
808840
8FCF40
880840
880840
486880
4F8880
400900
200900
100200
ENDCHAR
STARTCHAR 3212
ENCODING 10563
SWIDTH 2000 0
DWIDTH 20 0
BBX 18 15 1 -2
BITMAP
201A00
200900
400880
400880
9FC840
884840
884840
884F40
888840
8FC840
480880
400880
400900
200900
100200
ENDCHAR
STARTCHAR 3213
ENCODING 10564
SWIDTH 2000 0
DWIDTH 20 0
BBX 18 15 1 -2
BITMAP
201A00
200900
400880
508880
888840
888840
8F8840
888F40
888840
8F8840
488880
400880
400900
200900
100200
ENDCHAR
STARTCHAR 3214
ENCODING 10565
SWIDTH 2000 0
DWIDTH 20 0
BBX 18 15 1 -2
BITMAP
201A00
200900
420880
418880
810840
820840
820840
858F40
88C840
904840
400880
400880
400900
200900
100200
ENDCHAR
STARTCHAR 3215
ENCODING 10566
SWIDTH 2000 0
DWIDTH 20 0
BBX 18 15 1 -2
BITMAP
201A00
200900
420880
4F8880
98C840
904840
904840
904F40
98C840
8F8840
400880
400880
400900
200900
100200
ENDCHAR
STARTCHAR 3216
ENCODING 10567
SWIDTH 2000 0
DWIDTH 20 0
BBX 18 15 1 -2
BITMAP
201A00
200900
400880
41C880
8E8840
818840
830840
830F40
84C840
984840
400880
400880
400900
200900
100200
ENDCHAR
STARTCHAR 3217
ENCODING 10568
SWIDTH 2000 0
DWIDTH 20 0
BBX 18 15 1 -2
BITMAP
201A00
200900
478880
400880
800840
8FC840
808840
810F40
830840
84C840
486880
500880
400900
200900
100200
ENDCHAR
STARTCHAR 3218
ENCODING 10569
SWIDTH 2000 0
DWIDTH 20 0
BBX 18 15 1 -2
BITMAP
201A00
200900
400880
5FC880
808840
808840
9F0840
820F40
860840
840840
580880
400880
400900
200900
100200
ENDCHAR
STARTCHAR 3219
ENCODING 10570
SWIDTH 2000 0
DWIDTH 20 0
BBX 18 15 1 -2
BITMAP
203A00
200900
408880
5FC880
880840
880840
8F8840
880F40
880840
88E840
4F0880
400880
400900
200900
100200
ENDCHAR
STARTCHAR 321A
ENCODING 10571
SWIDTH 2000 0
DWIDTH 20 0
BBX 18 15 1 -2
BITMAP
201A00
200900
400880
5FE880
800840
88C840
848840
848F40
848840
B7E840
480880
400880
400900
200900
100200
ENDCHAR
STARTCHAR 321B
ENCODING 10572
SWIDTH 2000 0
DWIDTH 20 0
BBX 18 15 1 -2
BITMAP
201900
200900
478880
400880
9FE840
820840
878840
8C4F40
884840
8C4840
478880
400880
400900
200900
100200
ENDCHAR
STARTCHAR 249C
ENCODING 10573
SWIDTH 2000 0
DWIDTH 20 0
BBX 18 15 1 -2
BITMAP
200200
200100
400080
41E080
831040
801040
803040
81D040
831040
821040
433C80
40C080
400100
200100
100200
ENDCHAR
STARTCHAR 249D
ENCODING 10574
SWIDTH 2000 0
DWIDTH 20 0
BBX 18 15 1 -2
BITMAP
200200
260100
420080
420080
820040
82E040
831040
820840
820840
820840
420880
421080
433100
20C100
100200
ENDCHAR
STARTCHAR 249E
ENCODING 10575
SWIDTH 2000 0
DWIDTH 20 0
BBX 18 15 1 -2
BITMAP
200200
200100
400080
41F080
821840
820040
860040
860040
860040
820040
419080
406080
400100
200100
100200
ENDCHAR
STARTCHAR 249F
ENCODING 10576
SWIDTH 2000 0
DWIDTH 20 0
BBX 18 15 1 -2
BITMAP
200200
207100
401080
401080
801040
81F040
821040
841040
841040
841040
441080
421080
41F100
200900
100200
ENDCHAR
STARTCHAR 24A0
ENCODING 10577
SWIDTH 2000 0
DWIDTH 20 0
BBX 18 15 1 -2
BITMAP
200200
200100
40E080
411080
810840
820840
83F840
820040
820040
820040
410880
40F080
400100
200100
100200
ENDCHAR
STARTCHAR 24A1
ENCODING 10578
SWIDTH 2000 0
DWIDTH 20 0
BBX 18 15 1 -2
BITMAP
200200
207100
408080
408080
808040
83E040
808040
808040
808040
808040
408080
408080
408100
214100
100200
ENDCHAR
STARTCHAR 24A2
ENCODING 10579
SWIDTH 2000 0
DWIDTH 20 0
BBX 18 15 1 -2
BITMAP
200200
200100
43FC80
463080
841040
863040
822040
83C040
878040
827040
441880
4C1080
43E100
200100
100200
ENDCHAR
STARTCHAR 24A3
ENCODING 10580
SWIDTH 2000 0
DWIDTH 20 0
BBX 18 15 1 -2
BITMAP
200200
260100
420080
420080
820040
82E040
831040
821040
821040
821040
421080
421080
471900
200100
100200
ENDCHAR
STARTCHAR 24A4
ENCODING 10581
SWIDTH 2000 0
DWIDTH 20 0
BBX 18 15 1 -2
BITMAP
200200
20C100
40C080
400080
800040
80C040
804040
804040
804040
804040
404080
404080
406100
200100
100200
ENDCHAR
STARTCHAR 24A5
ENCODING 10582
SWIDTH 2000 0
DWIDTH 20 0
BBX 18 15 1 -2
BITMAP
10C200
200100
400080
400080
81C040
804040
804040
804040
804040
804040
804080
404080
404100
238100
100200
ENDCHAR
STARTCHAR 24A6
ENCODING 10583
SWIDTH 2000 0
DWIDTH 20 0
BBX 18 15 1 -2
BITMAP
200200
260100
420080
420080
820040
823840
822040
824040
82C040
834040
422080
423080
473900
200100
100200
ENDCHAR
STARTCHAR 24A7
ENCODING 10584
SWIDTH 2000 0
DWIDTH 20 0
BBX 18 15 1 -2
BITMAP
200200
20C100
404080
404080
804040
804040
804040
804040
804040
804040
404080
404080
40E100
200100
100200
ENDCHAR
STARTCHAR 24A8
ENCODING 10585
SWIDTH 2000 0
DWIDTH 20 0
BBX 18 15 1 -2
BITMAP
200200
200100
400080
77BC80
984240
904240
904240
904240
904240
904240
78E780
400080
400100
200100
100200
ENDCHAR
STARTCHAR 24A9
ENCODING 10586
SWIDTH 2000 0
DWIDTH 20 0
BBX 18 15 1 -2
BITMAP
200200
200100
400080
46E080
831040
821040
821040
821040
821040
821040
473880
400080
400100
200100
100200
ENDCHAR
STARTCHAR 24AA
ENCODING 10587
SWIDTH 2000 0
DWIDTH 20 0
BBX 18 15 1 -2
BITMAP
200200
200100
400080
41E080
821040
840840
840840
840840
840840
821040
41E080
400080
400100
200100
100200
ENDCHAR
STARTCHAR 24AB
ENCODING 10588
SWIDTH 2000 0
DWIDTH 20 0
BBX 18 15 1 -2
BITMAP
200200
200100
42E080
431080
820840
820840
820840
820840
820840
833040
42C080
420080
470100
200100
100200
ENDCHAR
STARTCHAR 24AC
ENCODING 10589
SWIDTH 2000 0
DWIDTH 20 0
BBX 18 15 1 -2
BITMAP
200200
200100
41D080
423080
841040
841040
841040
841040
821040
833040
40D080
401080
403900
200100
100200
ENDCHAR
STARTCHAR 24AD
ENCODING 10590
SWIDTH 2000 0
DWIDTH 20 0
BBX 18 15 1 -2
BITMAP
200200
200100
400080
437080
818040
810040
810040
810040
810040
810040
438080
400080
400100
200100
100200
ENDCHAR
STARTCHAR 24AE
ENCODING 10591
SWIDTH 2000 0
DWIDTH 20 0
BBX 18 15 1 -2
BITMAP
200200
200100
400080
43F080
821040
820040
81C040
807040
801840
821040
431080
40E080
400100
200100
100200
ENDCHAR
STARTCHAR 24AF
ENCODING 10592
SWIDTH 2000 0
DWIDTH 20 0
BBX 18 15 1 -2
BITMAP
200200
200100
410080
410080
83E040
810040
810040
810040
810040
810040
410080
412080
40C100
200100
100200
ENDCHAR
STARTCHAR 24B0
ENCODING 10593
SWIDTH 2000 0
DWIDTH 20 0
BBX 18 15 1 -2
BITMAP
200200
200100
400080
463080
821040
821040
821040
821040
821040
821040
41F880
400080
400100
200100
100200
ENDCHAR
STARTCHAR 24B1
ENCODING 10594
SWIDTH 2000 0
DWIDTH 20 0
BBX 18 15 1 -2
BITMAP
200200
200100
400080
400080
861040
821040
832040
812040
81A040
80C040
40C080
400080
400100
200100
100200
ENDCHAR
STARTCHAR 24B2
ENCODING 10595
SWIDTH 2000 0
DWIDTH 20 0
BBX 18 15 1 -2
BITMAP
200200
200100
400080
400080
98C640
884440
8CC440
852840
852840
833040
421080
421080
400100
200100
100200
ENDCHAR
STARTCHAR 24B3
ENCODING 10596
SWIDTH 2000 0
DWIDTH 20 0
BBX 18 15 1 -2
BITMAP
200200
200100
400080
473880
822040
814040
80C040
80C040
816040
823040
461880
400080
400100
200100
100200
ENDCHAR
STARTCHAR 24B4
ENCODING 10597
SWIDTH 2000 0
DWIDTH 20 0
BBX 18 15 1 -2
BITMAP
200200
200100
400080
430880
831040
811040
81A040
80A040
80A040
804040
404080
408080
428100
230100
100200
ENDCHAR
STARTCHAR 24B5
ENCODING 10598
SWIDTH 2000 0
DWIDTH 20 0
BBX 18 16 1 -2
BITMAP
000200
200100
200100
400080
41F080
832040
822040
804040
808040
810040
821040
43F080
400080
400100
200100
100200
ENDCHAR
STARTCHAR 2474
ENCODING 10599
SWIDTH 2000 0
DWIDTH 20 0
BBX 18 15 1 -2
BITMAP
204200
23C100
404080
404080
804040
804040
804040
804040
804040
804040
404080
404080
404100
23F900
100200
ENDCHAR
STARTCHAR 2475
ENCODING 10600
SWIDTH 2000 0
DWIDTH 20 0
BBX 18 15 1 -2
BITMAP
20E200
231100
440880
460880
821840
801040
802040
804040
808040
810040
420080
440880
47F900
200100
100200
ENDCHAR
STARTCHAR 2476
ENCODING 10601
SWIDTH 2000 0
DWIDTH 20 0
BBX 18 15 1 -2
BITMAP
21C200
222100
461080
441080
801040
802040
81C040
807040
801840
800840
460880
460880
421100
21E100
100200
ENDCHAR
STARTCHAR 2477
ENCODING 10602
SWIDTH 2000 0
DWIDTH 20 0
BBX 18 15 1 -2
BITMAP
204200
20C100
40C080
414080
814040
824040
844040
844040
884040
886040
47C080
404080
404100
20F100
100200
ENDCHAR
STARTCHAR 2478
ENCODING 10603
SWIDTH 2000 0
DWIDTH 20 0
BBX 18 15 1 -2
BITMAP
200200
27F100
440080
440080
840040
840040
87E040
841040
801040
801840
401880
461080
441100
226100
118200
ENDCHAR
STARTCHAR 2479
ENCODING 10604
SWIDTH 2000 0
DWIDTH 20 0
BBX 18 15 1 -2
BITMAP
20E200
211100
421080
420080
840040
84C040
873040
840840
840840
840840
440880
420880
421100
21E100
100200
ENDCHAR
STARTCHAR 247A
ENCODING 10605
SWIDTH 2000 0
DWIDTH 20 0
BBX 18 15 1 -2
BITMAP
200200
23F900
420880
401080
802040
802040
804040
804040
804040
808040
408080
418080
418100
200100
100200
ENDCHAR
STARTCHAR 247B
ENCODING 10606
SWIDTH 2000 0
DWIDTH 20 0
BBX 18 15 1 -2
BITMAP
200200
21E100
421080
440880
841040
821040
816040
81B040
821840
840840
440880
440880
421100
21E100
100200
ENDCHAR
STARTCHAR 247C
ENCODING 10607
SWIDTH 2000 0
DWIDTH 20 0
BBX 18 15 1 -2
BITMAP
200200
21E100
421080
440880
840840
840840
840840
823840
81C840
800840
401080
431080
432100
20C100
100200
ENDCHAR
STARTCHAR 247D
ENCODING 10608
SWIDTH 2000 0
DWIDTH 20 0
BBX 18 15 1 -2
BITMAP
201A00
2C2500
442480
444280
844240
844240
844240
844240
844240
844240
444480
442480
442900
201100
100200
ENDCHAR
STARTCHAR 247E
ENCODING 10609
SWIDTH 2000 0
DWIDTH 20 0
BBX 18 15 1 -2
BITMAP
200200
200100
5C3880
440880
840840
840840
840840
840840
840840
840840
440880
5F3E80
400100
200100
100200
ENDCHAR
STARTCHAR 247F
ENCODING 10610
SWIDTH 2000 0
DWIDTH 20 0
BBX 18 15 1 -2
BITMAP
200200
200100
5C1E80
442280
842340
840240
840440
840840
841040
842040
442180
5F3E80
400100
200100
100200
ENDCHAR
STARTCHAR 2480
ENCODING 10611
SWIDTH 2000 0
DWIDTH 20 0
BBX 18 15 1 -2
BITMAP
200200
200100
5C3C80
446280
840640
840440
841840
840640
840240
846240
444680
5F3880
400100
200100
100200
ENDCHAR
STARTCHAR 2481
ENCODING 10612
SWIDTH 2000 0
DWIDTH 20 0
BBX 18 15 1 -2
BITMAP
200200
200100
5C0480
440480
840C40
841440
841440
842440
844440
847F40
440480
5F0680
400100
200100
100200
ENDCHAR
STARTCHAR 2482
ENCODING 10613
SWIDTH 2000 0
DWIDTH 20 0
BBX 18 15 1 -2
BITMAP
200200
200100
447C80
4C4080
844040
844040
847C40
840240
840240
840240
444280
4E2480
401900
200100
100200
ENDCHAR
STARTCHAR 00B9
ENCODING 10614
SWIDTH 2000 0
DWIDTH 20 0
BBX 4 8 8 7
BITMAP
20
20
20
20
20
20
20
F0
ENDCHAR
STARTCHAR 00B2
ENCODING 10615
SWIDTH 2000 0
DWIDTH 20 0
BBX 6 8 7 7
BITMAP
78
44
44
08
10
20
44
FC
ENDCHAR
STARTCHAR 00B3
ENCODING 10616
SWIDTH 2000 0
DWIDTH 20 0
BBX 6 9 7 6
BITMAP
30
48
48
08
30
08
CC
C8
70
ENDCHAR
STARTCHAR 2074
ENCODING 10617
SWIDTH 2000 0
DWIDTH 20 0
BBX 5 7 7 7
BITMAP
10
30
50
90
90
F8
10
ENDCHAR
STARTCHAR 207F
ENCODING 10618
SWIDTH 2000 0
DWIDTH 20 0
BBX 6 7 8 6
BITMAP
38
C8
88
88
88
88
0C
ENDCHAR
STARTCHAR 2081
ENCODING 10619
SWIDTH 2000 0
DWIDTH 20 0
BBX 5 8 7 -3
BITMAP
60
20
20
20
20
20
20
F8
ENDCHAR
STARTCHAR 2082
ENCODING 10620
SWIDTH 2000 0
DWIDTH 20 0
BBX 6 8 7 -3
BITMAP
78
4C
4C
08
10
20
44
F8
ENDCHAR
STARTCHAR 2083
ENCODING 10621
SWIDTH 2000 0
DWIDTH 20 0
BBX 5 9 8 -4
BITMAP
70
98
88
10
70
08
88
98
60
ENDCHAR
STARTCHAR 2084
ENCODING 10622
SWIDTH 2000 0
DWIDTH 20 0
BBX 5 7 7 -3
BITMAP
10
30
50
90
90
F8
10
ENDCHAR
STARTCHAR 3041
ENCODING 10785
SWIDTH 2000 0
DWIDTH 20 0
BBX 11 12 4 -2
BITMAP
0400
0400
2F00
1800
0900
0F80
1A60
2C20
4C20
9820
6860
4080
ENDCHAR
STARTCHAR 3042
ENCODING 10786
SWIDTH 2000 0
DWIDTH 20 0
BBX 14 16 3 -2
BITMAP
0600
0200
0600
6FC0
1400
0480
0480
07F0
1D08
2D0C
4E04
840C
9C0C
B418
4030
00C0
ENDCHAR
STARTCHAR 3043
ENCODING 10787
SWIDTH 2000 0
DWIDTH 20 0
BBX 10 8 5 -2
BITMAP
8000
8000
8080
8040
8040
6040
6000
2000
ENDCHAR
STARTCHAR 3044
ENCODING 10788
SWIDTH 2000 0
DWIDTH 20 0
BBX 14 10 3 1
BITMAP
8000
8000
8030
8018
8008
800C
900C
5004
6000
2000
ENDCHAR
STARTCHAR 3045
ENCODING 10789
SWIDTH 2000 0
DWIDTH 20 0
BBX 6 12 7 -1
BITMAP
10
0C
00
00
3C
C4
04
04
04
04
08
10
ENDCHAR
STARTCHAR 3046
ENCODING 10790
SWIDTH 2000 0
DWIDTH 20 0
BBX 8 16 6 -2
BITMAP
18
0E
02
00
00
1E
E1
41
01
01
01
03
02
06
04
08
ENDCHAR
STARTCHAR 3047
ENCODING 10791
SWIDTH 2000 0
DWIDTH 20 0
BBX 10 12 5 -2
BITMAP
0800
0600
0000
0600
7E00
0400
0800
1000
2000
5800
8440
03C0
ENDCHAR
STARTCHAR 3048
ENCODING 10792
SWIDTH 2000 0
DWIDTH 20 0
BBX 14 16 3 -2
BITMAP
0400
0300
0180
0000
0000
03C0
1D80
0300
0200
0400
0800
1800
2600
6200
C1FC
0038
ENDCHAR
STARTCHAR 3049
ENCODING 10793
SWIDTH 2000 0
DWIDTH 20 0
BBX 12 12 4 -2
BITMAP
2000
1800
1040
1430
7830
1000
13C0
1C20
3020
F020
33C0
1000
ENDCHAR
STARTCHAR 304A
ENCODING 10794
SWIDTH 2000 0
DWIDTH 20 0
BBX 14 14 3 -1
BITMAP
0C00
0C00
083C
0F0C
3C1C
0800
0840
0BB0
0C08
1808
2808
C818
78F0
0800
ENDCHAR
STARTCHAR 304B
ENCODING 10795
SWIDTH 2000 0
DWIDTH 20 0
BBX 16 14 2 0
BITMAP
0400
0600
0600
0600
0598
9E44
6842
0843
104F
1040
20C0
6080
4780
C300
ENDCHAR
STARTCHAR 304C
ENCODING 10796
SWIDTH 2000 0
DWIDTH 20 0
BBX 17 14 2 -1
BITMAP
060100
060080
060200
041900
0FC400
F84200
084300
184F00
104000
30C000
208000
698000
C70000
020000
ENDCHAR
STARTCHAR 304D
ENCODING 10797
SWIDTH 2000 0
DWIDTH 20 0
BBX 11 16 4 -2
BITMAP
1800
0800
0F80
0E00
3600
02E0
0700
7980
00C0
0060
3FE0
C020
4000
6000
3F00
0F00
ENDCHAR
STARTCHAR 304E
ENCODING 10798
SWIDTH 2000 0
DWIDTH 20 0
BBX 14 16 4 -2
BITMAP
3808
0824
0F90
0E10
3600
02E0
0700
7980
00C0
0060
3FE0
C020
4000
6000
3F00
0F00
ENDCHAR
STARTCHAR 304F
ENCODING 10799
SWIDTH 2000 0
DWIDTH 20 0
BBX 7 16 6 -2
BITMAP
02
06
06
08
10
20
40
80
40
20
10
08
0C
06
02
02
ENDCHAR
STARTCHAR 3050
ENCODING 10800
SWIDTH 2000 0
DWIDTH 20 0
BBX 11 16 6 -2
BITMAP
0200
0200
0600
0840
11A0
20C0
4000
8000
4000
2000
1000
0800
0C00
0600
0200
0200
ENDCHAR
STARTCHAR 3051
ENCODING 10801
SWIDTH 2000 0
DWIDTH 20 0
BBX 14 15 3 -1
BITMAP
C0C0
6020
6020
4020
403C
87E0
8020
8020
8020
A020
C020
C060
C040
4040
0080
ENDCHAR
STARTCHAR 3052
ENCODING 10802
SWIDTH 2000 0
DWIDTH 20 0
BBX 16 15 3 -1
BITMAP
80C2
402D
4024
4020
803C
87E0
8020
8020
A020
C020
C020
C040
C040
4040
0080
ENDCHAR
STARTCHAR 3053
ENCODING 10803
SWIDTH 2000 0
DWIDTH 20 0
BBX 12 13 4 0
BITMAP
2000
1F80
03C0
0400
0000
0000
0000
0000
8000
8000
8000
4020
3FF0
ENDCHAR
STARTCHAR 3054
ENCODING 10804
SWIDTH 2000 0
DWIDTH 20 0
BBX 14 13 4 0
BITMAP
2008
1F9C
03DC
0400
0000
0000
0000
0000
8000
8000
8000
4000
3FF0
ENDCHAR
STARTCHAR 3055
ENCODING 10805
SWIDTH 2000 0
DWIDTH 20 0
BBX 12 14 4 -1
BITMAP
0E00
0DE0
07E0
8380
7D80
00C0
0060
1FF0
2030
4000
4000
2000
1800
07C0
ENDCHAR
STARTCHAR 3056
ENCODING 10806
SWIDTH 2000 0
DWIDTH 20 0
BBX 15 15 4 -1
BITMAP
0008
0E16
0DEA
07E8
8380
7D80
00C0
0060
1FF0
2030
4000
4000
2000
1800
07C0
ENDCHAR
STARTCHAR 3057
ENCODING 10807
SWIDTH 2000 0
DWIDTH 20 0
BBX 12 15 5 -1
BITMAP
8000
4000
6000
4000
4000
4000
4000
4000
4000
8000
8000
8010
4060
41C0
3F00
ENDCHAR
STARTCHAR 3058
ENCODING 10808
SWIDTH 2000 0
DWIDTH 20 0
BBX 11 15 5 -1
BITMAP
8000
4000
4000
4100
4480
4200
4000
4000
8000
8000
8000
8000
8060
4180
3F00
ENDCHAR
STARTCHAR 3059
ENCODING 10809
SWIDTH 2000 0
DWIDTH 20 0
BBX 16 17 2 -2
BITMAP
0100
0080
0080
0080
07FF
F880
0080
0380
04C0
08C0
04C0
06C0
0180
0080
0180
0100
0200
ENDCHAR
STARTCHAR 305A
ENCODING 10810
SWIDTH 2000 0
DWIDTH 20 0
BBX 16 17 2 -2
BITMAP
0180
0086
008A
0088
07FF
F880
0080
0380
04C0
04C0
04C0
02C0
01C0
0080
0180
0100
0200
ENDCHAR
STARTCHAR 305B
ENCODING 10811
SWIDTH 2000 0
DWIDTH 20 0
BBX 17 14 2 -1
BITMAP
002000
001800
0C1000
041000
041000
04FF80
BF1000
641000
041000
047000
042000
040000
039C00
00FC00
ENDCHAR
STARTCHAR 305C
ENCODING 10812
SWIDTH 2000 0
DWIDTH 20 0
BBX 17 13 2 0
BITMAP
003080
081A80
041300
041000
041300
07FF80
FC1000
041000
047000
042000
040000
020000
01FE00
ENDCHAR
STARTCHAR 305D
ENCODING 10813
SWIDTH 2000 0
DWIDTH 20 0
BBX 14 16 3 -2
BITMAP
00C0
0F40
0CC0
0100
0200
0410
19FC
3F00
E200
C400
0400
0400
0400
0300
01E0
0040
ENDCHAR
STARTCHAR 305E
ENCODING 10814
SWIDTH 2000 0
DWIDTH 20 0
BBX 16 16 3 -2
BITMAP
00C0
0F42
0CCB
0104
0200
0410
19FC
3F80
E200
C400
0400
0400
0400
0300
01E0
0040
ENDCHAR
STARTCHAR 305F
ENCODING 10815
SWIDTH 2000 0
DWIDTH 20 0
BBX 14 14 3 -1
BITMAP
1800
0C00
0800
0F00
F870
1018
101C
2000
2000
6000
4000
C200
8300
80FC
ENDCHAR
STARTCHAR 3060
ENCODING 10816
SWIDTH 2000 0
DWIDTH 20 0
BBX 16 14 3 -1
BITMAP
0803
0C09
0806
0F02
F870
101C
101C
2000
2000
2000
4200
4200
8300
80FC
ENDCHAR
STARTCHAR 3061
ENCODING 10817
SWIDTH 2000 0
DWIDTH 20 0
BBX 14 15 3 -1
BITMAP
0C00
0C00
0880
8F80
7800
0800
1000
1000
13F8
1C08
3004
300C
0018
0030
01C0
ENDCHAR
STARTCHAR 3062
ENCODING 10818
SWIDTH 2000 0
DWIDTH 20 0
BBX 16 16 3 -2
BITMAP
0800
0C00
0802
0BCB
FE0C
0800
1000
1000
11F0
1608
380C
300C
0008
0038
00F0
03C0
ENDCHAR
STARTCHAR 3063
ENCODING 10819
SWIDTH 2000 0
DWIDTH 20 0
BBX 12 8 4 -2
BITMAP
03E0
1C10
E010
0010
0010
0030
0060
0180
ENDCHAR
STARTCHAR 3064
ENCODING 10820
SWIDTH 2000 0
DWIDTH 20 0
BBX 16 10 2 0
BITMAP
03FC
0C02
F003
6001
0003
0003
0002
0006
0018
0060
ENDCHAR
STARTCHAR 3065
ENCODING 10821
SWIDTH 2000 0
DWIDTH 20 0
BBX 19 13 1 -1
BITMAP
000060
0001A0
01FC80
0E0200
F80300
600100
000300
000300
000200
000600
001800
006000
008000
ENDCHAR
STARTCHAR 3066
ENCODING 10822
SWIDTH 2000 0
DWIDTH 20 0
BBX 14 14 3 -1
BITMAP
003C
03FC
BC40
6180
0200
0200
0400
0400
0400
0400
0400
0200
03E0
00F0
ENDCHAR
STARTCHAR 3067
ENCODING 10823
SWIDTH 2000 0
DWIDTH 20 0
BBX 16 14 3 -1
BITMAP
003C
03FC
BC40
6183
020D
0204
0400
0400
0400
0400
0400
0200
03E0
00F0
ENDCHAR
STARTCHAR 3068
ENCODING 10824
SWIDTH 2000 0
DWIDTH 20 0
BBX 11 14 4 -1
BITMAP
3000
1800
1800
1800
08C0
0BC0
0E00
1800
2000
4000
8000
8000
4000
3FE0
ENDCHAR
STARTCHAR 3069
ENCODING 10825
SWIDTH 2000 0
DWIDTH 20 0
BBX 13 15 4 -1
BITMAP
0018
3008
1030
1010
1000
11C0
1380
0C00
1000
2000
4000
8000
8000
4000
3FC0
ENDCHAR
STARTCHAR 306A
ENCODING 10826
SWIDTH 2000 0
DWIDTH 20 0
BBX 15 16 3 -2
BITMAP
0400
0600
0400
0F80
7800
100C
101E
2060
6080
C080
8080
00C0
0FC0
10F0
1890
0700
ENDCHAR
STARTCHAR 306B
ENCODING 10827
SWIDTH 2000 0
DWIDTH 20 0
BBX 14 14 4 -1
BITMAP
4000
6000
41F0
4230
4000
8000
8000
A000
A000
A800
A400
C3FC
4000
4000
ENDCHAR
STARTCHAR 306C
ENCODING 10828
SWIDTH 2000 0
DWIDTH 20 0
BBX 16 14 2 -1
BITMAP
0200
0100
0100
01E0
471C
3906
2202
3202
5602
9C02
8802
9CFE
E08E
407B
ENDCHAR
STARTCHAR 306D
ENCODING 10829
SWIDTH 2000 0
DWIDTH 20 0
BBX 16 15 3 -2
BITMAP
1800
0800
0800
0800
1878
FB8C
1404
1804
3006
5004
5004
51FC
B11E
90F3
1000
ENDCHAR
STARTCHAR 306E
ENCODING 10830
SWIDTH 2000 0
DWIDTH 20 0
BBX 16 12 2 0
BITMAP
03F0
0C8C
1086
2182
4103
4203
8603
8402
4802
5804
3008
0010
ENDCHAR
STARTCHAR 306F
ENCODING 10831
SWIDTH 2000 0
DWIDTH 20 0
BBX 15 14 3 -1
BITMAP
2018
6010
6010
4016
41FC
8010
8010
A010
A010
A010
C1F0
C61E
4432
43E0
ENDCHAR
STARTCHAR 3070
ENCODING 10832
SWIDTH 2000 0
DWIDTH 20 0
BBX 17 15 3 -1
BITMAP
400100
201F80
201200
601000
401600
41FC00
401000
801000
A01000
A01000
A01000
A1F000
461E00
423200
41E000
ENDCHAR
STARTCHAR 3071
ENCODING 10833
SWIDTH 2000 0
DWIDTH 20 0
BBX 17 16 3 -1
BITMAP
000300
404480
603480
602300
402000
403C00
43F000
802000
802000
A02000
A02000
C01000
C1F800
C21E00
C23200
41E000
ENDCHAR
STARTCHAR 3072
ENCODING 10834
SWIDTH 2000 0
DWIDTH 20 0
BBX 16 14 2 -1
BITMAP
0C10
1C10
E810
1818
1018
2014
2026
2023
4020
4060
4040
2180
1F00
0C00
ENDCHAR
STARTCHAR 3073
ENCODING 10835
SWIDTH 2000 0
DWIDTH 20 0
BBX 16 14 3 -1
BITMAP
1823
3825
D024
3030
2030
4028
404C
4046
8040
80C0
8080
4300
3E00
1800
ENDCHAR
STARTCHAR 3074
ENCODING 10836
SWIDTH 2000 0
DWIDTH 20 0
BBX 17 15 3 -1
BITMAP
000700
182480
382880
D02700
303000
203000
402800
404C00
C04600
804000
808000
818000
430000
3E0000
180000
ENDCHAR
STARTCHAR 3075
ENCODING 10837
SWIDTH 2000 0
DWIDTH 20 0
BBX 16 13 2 0
BITMAP
0100
0180
00C0
00C0
0100
0200
0200
0100
00F8
03C6
8C42
F04F
63C0
ENDCHAR
STARTCHAR 3076
ENCODING 10838
SWIDTH 2000 0
DWIDTH 20 0
BBX 17 13 2 0
BITMAP
010000
018000
00C000
008180
010680
020200
020000
010000
00F800
078600
984200
F0CF00
63C000
ENDCHAR
STARTCHAR 3077
ENCODING 10839
SWIDTH 2000 0
DWIDTH 20 0
BBX 16 13 2 0
BITMAP
0200
0180
00CE
0089
0309
020E
0200
0100
01F8
0684
98C2
E8CE
6780
ENDCHAR
STARTCHAR 3078
ENCODING 10840
SWIDTH 2000 0
DWIDTH 20 0
BBX 18 8 1 2
BITMAP
070000
08C000
102000
E01000
000C00
000600
000380
0000C0
ENDCHAR
STARTCHAR 3079
ENCODING 10841
SWIDTH 2000 0
DWIDTH 20 0
BBX 18 11 1 2
BITMAP
000200
000980
000600
070200
08C000
102000
E03000
000C00
000600
000380
0000C0
ENDCHAR
STARTCHAR 307A
ENCODING 10842
SWIDTH 2000 0
DWIDTH 20 0
BBX 17 11 2 2
BITMAP
001C00
001200
001200
0F1C00
108000
204000
C02000
001800
000C00
000700
000180
ENDCHAR
STARTCHAR 307B
ENCODING 10843
SWIDTH 2000 0
DWIDTH 20 0
BBX 15 14 3 -1
BITMAP
203C
61D0
6010
4014
403C
81D0
8010
A010
A010
A010
A0FC
C316
4110
40E0
ENDCHAR
STARTCHAR 307C
ENCODING 10844
SWIDTH 2000 0
DWIDTH 20 0
BBX 18 15 2 -1
BITMAP
400000
207C00
219080
2013C0
401500
403C00
41D000
401000
A01000
A01000
A01000
61FC00
621600
613000
60E000
ENDCHAR
STARTCHAR 307D
ENCODING 10845
SWIDTH 2000 0
DWIDTH 20 0
BBX 18 15 2 -1
BITMAP
000180
407A40
41A240
403280
401500
807800
81E000
802000
A02000
C02000
C02000
C1F800
C23E00
C22000
41C000
ENDCHAR
STARTCHAR 307E
ENCODING 10846
SWIDTH 2000 0
DWIDTH 20 0
BBX 11 15 4 -1
BITMAP
0600
0300
0200
0260
7FC0
0200
0240
7FC0
0200
0200
0200
7F00
82E0
8620
7C00
ENDCHAR
STARTCHAR 307F
ENCODING 10847
SWIDTH 2000 0
DWIDTH 20 0
BBX 16 14 2 -1
BITMAP
01C0
0EC0
04C0
0180
0100
0208
0208
1FF8
281C
4816
9013
E020
4040
0080
ENDCHAR
STARTCHAR 3080
ENCODING 10848
SWIDTH 2000 0
DWIDTH 20 0
BBX 16 14 2 -1
BITMAP
1800
0800
0B80
FC00
081E
0813
7813
4C11
4810
2810
1008
1008
1018
0FF0
ENDCHAR
STARTCHAR 3081
ENCODING 10849
SWIDTH 2000 0
DWIDTH 20 0
BBX 16 14 2 -1
BITMAP
0080
0040
20C0
20E0
179C
1986
3102
5A03
8E03
8C03
8E02
F006
6008
0030
ENDCHAR
STARTCHAR 3082
ENCODING 10850
SWIDTH 2000 0
DWIDTH 20 0
BBX 10 16 5 -2
BITMAP
1800
0C00
0800
8800
7000
1800
7000
A100
A080
7080
3C40
2040
2040
20C0
1380
0F00
ENDCHAR
STARTCHAR 3083
ENCODING 10851
SWIDTH 2000 0
DWIDTH 20 0
BBX 12 12 5 -2
BITMAP
0400
3600
4A00
4DE0
3030
D020
89E0
0800
0400
0600
0200
0200
ENDCHAR
STARTCHAR 3084
ENCODING 10852
SWIDTH 2000 0
DWIDTH 20 0
BBX 16 15 2 -1
BITMAP
0080
0040
1FC0
101C
19E3
0E01
1C01
F243
233E
0100
0080
00C0
0040
0060
0060
ENDCHAR
STARTCHAR 3085
ENCODING 10853
SWIDTH 2000 0
DWIDTH 20 0
BBX 12 12 4 -2
BITMAP
0600
8A00
53C0
4D20
5110
B110
B110
D110
4920
47C0
0200
0400
ENDCHAR
STARTCHAR 3086
ENCODING 10854
SWIDTH 2000 0
DWIDTH 20 0
BBX 15 14 2 -1
BITMAP
0300
8480
C970
4E48
484C
C846
9846
A846
AC46
C64C
C398
41F0
0100
0300
ENDCHAR
STARTCHAR 3087
ENCODING 10855
SWIDTH 2000 0
DWIDTH 20 0
BBX 9 12 6 -2
BITMAP
1800
0800
0800
0F80
0800
0800
0800
0800
0800
FF00
8980
7800
ENDCHAR
STARTCHAR 3088
ENCODING 10856
SWIDTH 2000 0
DWIDTH 20 0
BBX 11 16 4 -2
BITMAP
0C00
0400
0400
0400
04E0
0700
0400
0400
0400
0400
0400
3E00
C3C0
8260
6C00
1000
ENDCHAR
STARTCHAR 3089
ENCODING 10857
SWIDTH 2000 0
DWIDTH 20 0
BBX 12 16 4 -2
BITMAP
1000
0800
0C00
0C00
7000
4000
4000
4000
4180
4E60
F020
E030
C020
0060
0180
0200
ENDCHAR
STARTCHAR 308A
ENCODING 10858
SWIDTH 2000 0
DWIDTH 20 0
BBX 8 15 6 -1
BITMAP
88
B4
C2
C2
C2
83
82
82
82
82
06
04
0C
08
10
ENDCHAR
STARTCHAR 308B
ENCODING 10859
SWIDTH 2000 0
DWIDTH 20 0
BBX 12 14 4 -1
BITMAP
2F80
1980
0300
0200
0400
0800
17C0
3820
6030
C010
CC30
1320
1160
0F80
ENDCHAR
STARTCHAR 308C
ENCODING 10860
SWIDTH 2000 0
DWIDTH 20 0
BBX 15 15 3 -1
BITMAP
1000
1800
1800
1070
1190
3E10
5430
3820
3020
3020
5060
D060
9060
B026
1018
ENDCHAR
STARTCHAR 308D
ENCODING 10861
SWIDTH 2000 0
DWIDTH 20 0
BBX 14 15 3 -1
BITMAP
0080
1F80
0C80
0100
0200
0400
08C0
1730
3808
600C
C008
0008
0018
0070
0380
ENDCHAR
STARTCHAR 308E
ENCODING 10862
SWIDTH 2000 0
DWIDTH 20 0
BBX 12 12 4 -2
BITMAP
0800
0800
0800
0800
79C0
1620
1810
3010
5030
5060
B080
1000
ENDCHAR
STARTCHAR 308F
ENCODING 10863
SWIDTH 2000 0
DWIDTH 20 0
BBX 15 15 2 -1
BITMAP
0800
0400
0400
0400
0400
5E20
3CDC
0B06
0C02
1802
1806
2804
680C
D830
0840
ENDCHAR
STARTCHAR 3090
ENCODING 10864
SWIDTH 2000 0
DWIDTH 20 0
BBX 14 14 3 -1
BITMAP
1780
0D80
0100
0200
0200
07F0
0C08
3804
4804
9004
90E4
A118
E118
00E0
ENDCHAR
STARTCHAR 3091
ENCODING 10865
SWIDTH 2000 0
DWIDTH 20 0
BBX 15 15 3 -1
BITMAP
0080
17C0
0980
0300
03C0
0420
0830
1630
0960
0FC0
0400
1800
60F8
DD0C
861E
ENDCHAR
STARTCHAR 3092
ENCODING 10866
SWIDTH 2000 0
DWIDTH 20 0
BBX 13 16 4 -2
BITMAP
0400
0600
0480
DF80
2800
1020
1010
3E78
C380
8600
0A00
1200
2000
2000
3040
0FE0
ENDCHAR
STARTCHAR 3093
ENCODING 10867
SWIDTH 2000 0
DWIDTH 20 0
BBX 14 14 3 -1
BITMAP
0300
0100
0200
0400
0400
0800
1000
1600
3900
2100
4104
C108
81B0
80E0
ENDCHAR
STARTCHAR 30A1
ENCODING 11041
SWIDTH 2000 0
DWIDTH 20 0
BBX 12 10 4 -1
BITMAP
8FE0
7070
0680
0300
0400
0400
0400
0800
0800
1000
ENDCHAR
STARTCHAR 30A2
ENCODING 11042
SWIDTH 2000 0
DWIDTH 20 0
BBX 14 14 3 -1
BITMAP
03F8
FC0C
421C
0360
0180
0300
0300
0200
0200
0600
0400
0800
0800
1000
ENDCHAR
STARTCHAR 30A3
ENCODING 11043
SWIDTH 2000 0
DWIDTH 20 0
BBX 8 12 5 -2
BITMAP
01
03
02
04
0C
14
24
C4
04
04
04
04
ENDCHAR
STARTCHAR 30A4
ENCODING 11044
SWIDTH 2000 0
DWIDTH 20 0
BBX 10 16 5 -2
BITMAP
0080
00C0
01C0
0100
0300
0600
0E00
1A00
3200
4200
8200
0200
0200
0200
0200
0200
ENDCHAR
STARTCHAR 30A5
ENCODING 11045
SWIDTH 2000 0
DWIDTH 20 0
BBX 10 11 5 -2
BITMAP
0C00
0800
FFC0
80C0
8080
8180
4100
0300
0200
0400
0800
ENDCHAR
STARTCHAR 30A6
ENCODING 11046
SWIDTH 2000 0
DWIDTH 20 0
BBX 13 14 4 0
BITMAP
0C00
0600
0600
FFF0
C038
C030
C020
C060
4040
00C0
0080
0100
0200
0400
ENDCHAR
STARTCHAR 30A7
ENCODING 11047
SWIDTH 2000 0
DWIDTH 20 0
BBX 12 7 4 -2
BITMAP
3FC0
0200
0200
0200
0400
FFF0
4000
ENDCHAR
STARTCHAR 30A8
ENCODING 11048
SWIDTH 2000 0
DWIDTH 20 0
BBX 16 9 2 2
BITMAP
11F8
0F00
0080
0080
0080
0080
0080
DFFE
7003
ENDCHAR
STARTCHAR 30A9
ENCODING 11049
SWIDTH 2000 0
DWIDTH 20 0
BBX 11 11 4 -2
BITMAP
0200
0200
03E0
FE00
0600
0A00
1200
2200
4200
0E00
0200
ENDCHAR
STARTCHAR 30AA
ENCODING 11050
SWIDTH 2000 0
DWIDTH 20 0
BBX 14 15 3 -1
BITMAP
0180
0080
0080
0088
FFFC
6180
0380
0680
0C80
1880
3080
4080
0080
0380
0080
ENDCHAR
STARTCHAR 30AB
ENCODING 11051
SWIDTH 2000 0
DWIDTH 20 0
BBX 14 14 3 -1
BITMAP
0180
0180
0100
0178
3F8C
0208
0618
0410
0810
1010
2020
4020
81C0
00C0
ENDCHAR
STARTCHAR 30AC
ENCODING 11052
SWIDTH 2000 0
DWIDTH 20 0
BBX 17 14 3 -1
BITMAP
018200
018180
010600
43FA00
3F8C00
020800
041000
0C1000
081000
103000
202000
426000
81C000
008000
ENDCHAR
STARTCHAR 30AD
ENCODING 11053
SWIDTH 2000 0
DWIDTH 20 0
BBX 13 15 4 -2
BITMAP
1800
0800
0CE0
0780
3C00
4400
0238
03C0
1E00
E300
0100
0100
0180
0080
0080
ENDCHAR
STARTCHAR 30AE
ENCODING 11054
SWIDTH 2000 0
DWIDTH 20 0
BBX 15 16 3 -2
BITMAP
1C04
041A
040C
02E4
0780
7A00
0208
017C
0380
9D00
6180
0080
0080
00C0
0040
0040
ENDCHAR
STARTCHAR 30AF
ENCODING 11055
SWIDTH 2000 0
DWIDTH 20 0
BBX 12 15 4 -1
BITMAP
0400
0200
07E0
0C30
0860
1040
20C0
C080
0100
0300
0600
0C00
1800
2000
C000
ENDCHAR
STARTCHAR 30B0
ENCODING 11056
SWIDTH 2000 0
DWIDTH 20 0
BBX 15 15 4 -1
BITMAP
0416
020E
07F4
0C30
1860
3040
40C0
0080
0100
0200
0600
0800
1000
2000
C000
ENDCHAR
STARTCHAR 30B1
ENCODING 11057
SWIDTH 2000 0
DWIDTH 20 0
BBX 14 13 3 0
BITMAP
0800
0C00
0800
187C
3FC0
60C0
80C0
0080
0180
0300
0200
0400
0800
ENDCHAR
STARTCHAR 30B2
ENCODING 11058
SWIDTH 2000 0
DWIDTH 20 0
BBX 17 14 3 0
BITMAP
000300
080580
0C0600
180000
10FC00
2F8000
40C000
808000
008000
010000
030000
020000
040000
080000
ENDCHAR
STARTCHAR 30B3
ENCODING 11059
SWIDTH 2000 0
DWIDTH 20 0
BBX 12 9 4 2
BITMAP
87E0
7C30
0020
0020
0060
0040
0040
81C0
7E40
ENDCHAR
STARTCHAR 30B4
ENCODING 11060
SWIDTH 2000 0
DWIDTH 20 0
BBX 14 12 5 1
BITMAP
0004
0010
03C8
FE60
4040
0040
00C0
0080
0080
0080
FF80
4000
ENDCHAR
STARTCHAR 30B5
ENCODING 11061
SWIDTH 2000 0
DWIDTH 20 0
BBX 16 15 2 -1
BITMAP
0040
0C20
0420
0420
9FFF
7420
0420
0420
0420
0440
0040
00C0
0080
0100
0200
ENDCHAR
STARTCHAR 30B6
ENCODING 11062
SWIDTH 2000 0
DWIDTH 20 0
BBX 17 15 2 -1
BITMAP
004100
0C2480
042300
042100
9FFF00
742000
042000
042000
042000
044000
004000
00C000
008000
010000
020000
ENDCHAR
STARTCHAR 30B7
ENCODING 11063
SWIDTH 2000 0
DWIDTH 20 0
BBX 12 13 4 0
BITMAP
4000
3000
1800
0000
0010
E010
6060
00C0
0180
0700
0C00
F800
6000
ENDCHAR
STARTCHAR 30B8
ENCODING 11064
SWIDTH 2000 0
DWIDTH 20 0
BBX 13 13 4 0
BITMAP
4000
3018
1840
0020
0008
E010
2020
0040
0180
0300
0E00
B800
6000
ENDCHAR
STARTCHAR 30B9
ENCODING 11065
SWIDTH 2000 0
DWIDTH 20 0
BBX 13 12 4 0
BITMAP
01C0
7E60
10C0
0180
0100
0200
0600
0D80
1060
2030
C018
0008
ENDCHAR
STARTCHAR 30BA
ENCODING 11066
SWIDTH 2000 0
DWIDTH 20 0
BBX 15 14 4 0
BITMAP
000C
0016
01C8
7E68
30C0
0180
0100
0200
0600
0D00
10C0
2030
C018
0008
ENDCHAR
STARTCHAR 30BB
ENCODING 11067
SWIDTH 2000 0
DWIDTH 20 0
BBX 15 13 2 0
BITMAP
0400
0200
0200
0200
027C
078E
FA18
2220
0200
0200
0200
0100
00FE
ENDCHAR
STARTCHAR 30BC
ENCODING 11068
SWIDTH 2000 0
DWIDTH 20 0
BBX 18 13 2 0
BITMAP
040100
0200C0
020340
020180
027C00
038E00
FE1800
222000
020000
020000
020000
010000
00FC00
ENDCHAR
STARTCHAR 30BD
ENCODING 11069
SWIDTH 2000 0
DWIDTH 20 0
BBX 12 13 4 0
BITMAP
0040
8020
4030
6060
3060
20C0
0080
0180
0300
0200
0400
0800
3000
ENDCHAR
STARTCHAR 30BE
ENCODING 11070
SWIDTH 2000 0
DWIDTH 20 0
BBX 16 14 4 0
BITMAP
0006
004B
8024
4030
6060
3060
20C0
0080
0180
0300
0200
0400
0800
3000
ENDCHAR
STARTCHAR 30BF
ENCODING 11071
SWIDTH 2000 0
DWIDTH 20 0
BBX 11 15 5 -1
BITMAP
0800
0400
0FC0
0860
10C0
20C0
5180
8D00
0600
0600
0C00
1800
3000
4000
8000
ENDCHAR
STARTCHAR 30C0
ENCODING 11072
SWIDTH 2000 0
DWIDTH 20 0
BBX 15 15 5 -1
BITMAP
080C
0416
0FD8
0868
10C0
2080
5980
8F00
0600
0600
0C00
1800
3000
4000
8000
ENDCHAR
STARTCHAR 30C1
ENCODING 11073
SWIDTH 2000 0
DWIDTH 20 0
BBX 14 16 3 -2
BITMAP
0080
00C0
0380
0E00
7100
0100
07FC
F900
4100
0300
0200
0200
0600
0400
0800
1000
ENDCHAR
STARTCHAR 30C2
ENCODING 11074
SWIDTH 2000 0
DWIDTH 20 0
BBX 16 16 3 -2
BITMAP
0080
00C4
038B
0E04
7104
0100
07FC
F900
4100
0300
0200
0200
0600
0400
0800
1000
ENDCHAR
STARTCHAR 30C3
ENCODING 11075
SWIDTH 2000 0
DWIDTH 20 0
BBX 10 10 5 -2
BITMAP
0080
08C0
88C0
C080
0100
0300
0200
0400
0800
1000
ENDCHAR
STARTCHAR 30C4
ENCODING 11076
SWIDTH 2000 0
DWIDTH 20 0
BBX 13 12 3 0
BITMAP
0410
8608
4218
6210
6030
0020
0040
00C0
0080
0100
0200
0C00
ENDCHAR
STARTCHAR 30C5
ENCODING 11077
SWIDTH 2000 0
DWIDTH 20 0
BBX 17 14 3 0
BITMAP
000200
000180
041280
860A00
421800
621000
603000
002000
006000
004000
008000
010000
020000
040000
ENDCHAR
STARTCHAR 30C6
ENCODING 11078
SWIDTH 2000 0
DWIDTH 20 0
BBX 14 14 3 -1
BITMAP
1FF0
0000
0000
0000
87FC
7900
0180
0100
0300
0200
0200
0400
0C00
0800
ENDCHAR
STARTCHAR 30C7
ENCODING 11079
SWIDTH 2000 0
DWIDTH 20 0
BBX 17 15 3 -1
BITMAP
000200
17F180
080280
000200
000000
87FC00
790000
018000
010000
030000
020000
020000
040000
0C0000
080000
ENDCHAR
STARTCHAR 30C8
ENCODING 11080
SWIDTH 2000 0
DWIDTH 20 0
BBX 7 16 8 -2
BITMAP
80
60
40
40
40
40
60
5C
46
42
40
40
40
40
40
40
ENDCHAR
STARTCHAR 30C9
ENCODING 11081
SWIDTH 2000 0
DWIDTH 20 0
BBX 10 16 8 -2
BITMAP
8000
4000
4180
46C0
4300
4000
6000
5C00
4600
4200
4000
4000
4000
4000
4000
4000
ENDCHAR
STARTCHAR 30CA
ENCODING 11082
SWIDTH 2000 0
DWIDTH 20 0
BBX 15 16 2 -2
BITMAP
0100
0080
0080
0080
0080
8FFE
7880
0080
0080
0180
0100
0100
0200
0200
0400
0800
ENDCHAR
STARTCHAR 30CB
ENCODING 11083
SWIDTH 2000 0
DWIDTH 20 0
BBX 16 8 2 2
BITMAP
1FF8
0000
0000
0000
0000
0000
DFFE
7003
ENDCHAR
STARTCHAR 30CC
ENCODING 11084
SWIDTH 2000 0
DWIDTH 20 0
BBX 11 13 5 0
BITMAP
0040
3FE0
10C0
00C0
2180
1900
0700
0700
0D80
18C0
30C0
4000
8000
ENDCHAR
STARTCHAR 30CD
ENCODING 11085
SWIDTH 2000 0
DWIDTH 20 0
BBX 13 16 4 -2
BITMAP
0400
0300
0100
0000
07C0
7980
0300
0600
0E40
1230
6218
8218
0200
0200
0200
0200
ENDCHAR
STARTCHAR 30CE
ENCODING 11086
SWIDTH 2000 0
DWIDTH 20 0
BBX 10 13 5 0
BITMAP
0080
00C0
00C0
0080
0180
0300
0200
0400
0C00
1800
3000
4000
8000
ENDCHAR
STARTCHAR 30CF
ENCODING 11087
SWIDTH 2000 0
DWIDTH 20 0
BBX 15 7 3 3
BITMAP
1000
0820
1C18
100C
2006
4006
8002
ENDCHAR
STARTCHAR 30D0
ENCODING 11088
SWIDTH 2000 0
DWIDTH 20 0
BBX 18 9 2 3
BITMAP
000180
0002C0
080300
041000
0C0800
180600
100600
200300
C00100
ENDCHAR
STARTCHAR 30D1
ENCODING 11089
SWIDTH 2000 0
DWIDTH 20 0
BBX 17 10 3 3
BITMAP
000700
000480
000480
100700
0C2000
181000
100C00
200C00
400600
800200
ENDCHAR
STARTCHAR 30D2
ENCODING 11090
SWIDTH 2000 0
DWIDTH 20 0
BBX 10 13 6 0
BITMAP
8000
8000
8000
8000
8F80
F800
8000
8000
8000
8000
8000
40C0
3FC0
ENDCHAR
STARTCHAR 30D3
ENCODING 11091
SWIDTH 2000 0
DWIDTH 20 0
BBX 12 13 6 0
BITMAP
8040
8030
8050
8020
8F80
F800
8000
8000
8000
8000
8000
40C0
3FC0
ENDCHAR
STARTCHAR 30D4
ENCODING 11092
SWIDTH 2000 0
DWIDTH 20 0
BBX 12 14 6 0
BITMAP
0070
8090
8090
8070
8000
8F80
F800
8000
8000
8000
8000
8000
40C0
3FC0
ENDCHAR
STARTCHAR 30D5
ENCODING 11093
SWIDTH 2000 0
DWIDTH 20 0
BBX 14 13 3 0
BITMAP
8000
FFF8
700C
0018
0010
0030
0020
0040
00C0
0180
0100
0200
0C00
ENDCHAR
STARTCHAR 30D6
ENCODING 11094
SWIDTH 2000 0
DWIDTH 20 0
BBX 17 14 3 0
BITMAP
000100
000680
FFFA00
601800
001000
003000
002000
006000
004000
008000
010000
020000
040000
080000
ENDCHAR
STARTCHAR 30D7
ENCODING 11095
SWIDTH 2000 0
DWIDTH 20 0
BBX 18 15 2 0
BITMAP
000180
000240
800240
7FF980
700C00
000800
001000
003000
002000
006000
00C000
008000
010000
020000
0C0000
ENDCHAR
STARTCHAR 30D8
ENCODING 11096
SWIDTH 2000 0
DWIDTH 20 0
BBX 17 8 1 2
BITMAP
070000
088000
906000
601000
000C00
000700
000380
000080
ENDCHAR
STARTCHAR 30D9
ENCODING 11097
SWIDTH 2000 0
DWIDTH 20 0
BBX 17 10 1 2
BITMAP
000100
000680
070200
088000
906000
601000
000C00
000700
000380
000080
ENDCHAR
STARTCHAR 30DA
ENCODING 11098
SWIDTH 2000 0
DWIDTH 20 0
BBX 17 10 1 2
BITMAP
000E00
000900
070900
08C700
B06000
601000
000C00
000700
000180
000080
ENDCHAR
STARTCHAR 30DB
ENCODING 11099
SWIDTH 2000 0
DWIDTH 20 0
BBX 14 14 3 -1
BITMAP
0300
0100
0100
0100
7FFC
2100
0100
0120
4110
4108
C10C
C10C
0300
0100
ENDCHAR
STARTCHAR 30DC
ENCODING 11100
SWIDTH 2000 0
DWIDTH 20 0
BBX 16 14 3 -1
BITMAP
0604
020B
0204
0200
FFF8
4200
0200
0220
4210
4218
C20C
C20C
0600
0200
ENDCHAR
STARTCHAR 30DD
ENCODING 11101
SWIDTH 2000 0
DWIDTH 20 0
BBX 15 16 3 -1
BITMAP
001C
0012
0312
010E
0100
0100
7FFC
2100
0100
0120
4110
4108
C10C
C10C
0300
0100
ENDCHAR
STARTCHAR 30DE
ENCODING 11102
SWIDTH 2000 0
DWIDTH 20 0
BBX 16 9 2 2
BITMAP
003E
8FC3
F807
000C
0430
0340
0180
00C0
00C0
ENDCHAR
STARTCHAR 30DF
ENCODING 11103
SWIDTH 2000 0
DWIDTH 20 0
BBX 8 14 6 -1
BITMAP
60
1C
06
00
00
60
1C
06
00
00
C0
3C
07
01
ENDCHAR
STARTCHAR 30E0
ENCODING 11104
SWIDTH 2000 0
DWIDTH 20 0
BBX 14 11 3 1
BITMAP
0100
0180
0300
0200
0600
0440
0C20
0810
1008
91FC
7E04
ENDCHAR
STARTCHAR 30E1
ENCODING 11105
SWIDTH 2000 0
DWIDTH 20 0
BBX 11 12 5 0
BITMAP
0060
0060
00C0
0080
0D00
0700
0700
0D80
1880
3000
4000
8000
ENDCHAR
STARTCHAR 30E2
ENCODING 11106
SWIDTH 2000 0
DWIDTH 20 0
BBX 13 12 4 0
BITMAP
4FE0
3000
0C00
0600
0400
07F8
FC00
0400
0400
0400
0400
03F8
ENDCHAR
STARTCHAR 30E3
ENCODING 11107
SWIDTH 2000 0
DWIDTH 20 0
BBX 12 11 4 -2
BITMAP
1800
0800
08F0
1F30
E440
0400
0400
0200
0200
0200
0200
ENDCHAR
STARTCHAR 30E4
ENCODING 11108
SWIDTH 2000 0
DWIDTH 20 0
BBX 16 13 2 0
BITMAP
0E00
0600
020E
02F3
0F07
F108
4100
0100
0100
0080
0080
00C0
00C0
ENDCHAR
STARTCHAR 30E5
ENCODING 11109
SWIDTH 2000 0
DWIDTH 20 0
BBX 12 7 4 -2
BITMAP
3F80
0180
0100
0100
0200
FFF0
C010
ENDCHAR
STARTCHAR 30E6
ENCODING 11110
SWIDTH 2000 0
DWIDTH 20 0
BBX 16 9 2 2
BITMAP
1020
1FF0
0020
0020
0060
0040
0040
FFFF
6003
ENDCHAR
STARTCHAR 30E7
ENCODING 11111
SWIDTH 2000 0
DWIDTH 20 0
BBX 8 8 6 -1
BITMAP
9F
61
01
0F
72
02
02
FE
ENDCHAR
STARTCHAR 30E8
ENCODING 11112
SWIDTH 2000 0
DWIDTH 20 0
BBX 11 10 5 1
BITMAP
FFC0
0060
0040
0040
FFC0
40C0
0080
0080
0080
FF80
ENDCHAR
STARTCHAR 30E9
ENCODING 11113
SWIDTH 2000 0
DWIDTH 20 0
BBX 12 14 4 -1
BITMAP
3FE0
1000
0000
00E0
FF30
4060
0060
00C0
0080
0100
0200
0400
0800
1000
ENDCHAR
STARTCHAR 30EA
ENCODING 11114
SWIDTH 2000 0
DWIDTH 20 0
BBX 7 15 7 -1
BITMAP
04
82
82
82
82
82
82
82
82
82
02
04
04
08
10
ENDCHAR
STARTCHAR 30EB
ENCODING 11115
SWIDTH 2000 0
DWIDTH 20 0
BBX 15 11 2 1
BITMAP
0180
10C0
1880
1880
1880
1082
1086
208C
20B0
40E0
8080
ENDCHAR
STARTCHAR 30EC
ENCODING 11116
SWIDTH 2000 0
DWIDTH 20 0
BBX 11 11 5 1
BITMAP
8000
4000
4000
4000
4060
4080
4100
4600
4C00
7000
6000
ENDCHAR
STARTCHAR 30ED
ENCODING 11117
SWIDTH 2000 0
DWIDTH 20 0
BBX 12 10 4 1
BITMAP
FFE0
C030
4060
4060
4060
4040
4040
7FC0
4000
4000
ENDCHAR
STARTCHAR 30EE
ENCODING 11118
SWIDTH 2000 0
DWIDTH 20 0
BBX 10 9 5 -1
BITMAP
FFC0
80C0
8080
8180
C100
0200
0200
0400
0800
ENDCHAR
STARTCHAR 30EF
ENCODING 11119
SWIDTH 2000 0
DWIDTH 20 0
BBX 13 12 4 0
BITMAP
FFF0
8038
C030
C020
C060
C040
40C0
0080
0100
0200
0400
0800
ENDCHAR
STARTCHAR 30F0
ENCODING 11120
SWIDTH 2000 0
DWIDTH 20 0
BBX 15 17 2 -2
BITMAP
0080
0060
0040
0040
1FF8
0840
0040
1840
0840
0840
9FFE
7040
0040
0040
0040
0040
0040
ENDCHAR
STARTCHAR 30F1
ENCODING 11121
SWIDTH 2000 0
DWIDTH 20 0
BBX 16 10 2 2
BITMAP
0070
1F98
0030
03C0
0180
0100
0100
0100
8FFE
7003
ENDCHAR
STARTCHAR 30F2
ENCODING 11122
SWIDTH 2000 0
DWIDTH 20 0
BBX 12 13 4 -1
BITMAP
47E0
3830
0020
0060
DFC0
7040
0080
0180
0100
0200
0400
0800
3000
ENDCHAR
STARTCHAR 30F3
ENCODING 11123
SWIDTH 2000 0
DWIDTH 20 0
BBX 11 11 5 1
BITMAP
8000
6000
3000
0020
0040
0080
0100
0600
1C00
F000
E000
ENDCHAR
STARTCHAR 30F4
ENCODING 11124
SWIDTH 2000 0
DWIDTH 20 0
BBX 16 15 4 -1
BITMAP
0C00
060A
0605
BFF0
C018
8030
8020
C020
C040
00C0
0080
0100
0200
0400
0800
ENDCHAR
STARTCHAR 30F5
ENCODING 11125
SWIDTH 2000 0
DWIDTH 20 0
BBX 9 11 6 -2
BITMAP
0800
0800
0900
F780
1100
3100
2100
4300
8200
0E00
0400
ENDCHAR
STARTCHAR 30F6
ENCODING 11126
SWIDTH 2000 0
DWIDTH 20 0
BBX 10 10 5 -2
BITMAP
1000
3000
23C0
5E00
8200
0600
0400
0800
1000
2000
ENDCHAR
STARTCHAR 0410
ENCODING 11297
SWIDTH 2000 0
DWIDTH 20 0
BBX 15 14 2 0
BITMAP
0100
0100
0280
0280
0440
0440
0820
0820
1030
1FF0
1018
2008
4008
F03E
ENDCHAR
STARTCHAR 0411
ENCODING 11298
SWIDTH 2000 0
DWIDTH 20 0
BBX 12 14 4 0
BITMAP
7FE0
1020
1020
1010
1000
1000
1000
1F80
1040
1020
1020
1020
1040
FF80
ENDCHAR
STARTCHAR 0412
ENCODING 11299
SWIDTH 2000 0
DWIDTH 20 0
BBX 11 14 4 0
BITMAP
FF00
20C0
2040
2040
2040
20C0
3F80
20C0
2040
2020
2020
2020
20C0
FF80
ENDCHAR
STARTCHAR 0413
ENCODING 11300
SWIDTH 2000 0
DWIDTH 20 0
BBX 12 14 4 0
BITMAP
FFE0
2020
2010
2010
2000
2000
2000
2000
2000
2000
2000
2000
2000
F800
ENDCHAR
STARTCHAR 0414
ENCODING 11301
SWIDTH 2000 0
DWIDTH 20 0
BBX 15 17 3 -3
BITMAP
1FFE
0418
0410
0410
0410
0410
0810
0810
0810
1010
1010
2010
2010
7FF8
C004
8002
8002
ENDCHAR
STARTCHAR 0415
ENCODING 11302
SWIDTH 2000 0
DWIDTH 20 0
BBX 12 14 4 0
BITMAP
FFC0
2060
2020
2020
2000
2000
2080
3F80
2000
2000
2000
2010
2020
FFE0
ENDCHAR
STARTCHAR 0401
ENCODING 11303
SWIDTH 2000 0
DWIDTH 20 0
BBX 12 15 4 0
BITMAP
30C0
30C0
FFE0
2060
2020
2000
2040
2040
3FC0
2040
2040
2000
2010
2020
FFE0
ENDCHAR
STARTCHAR 0416
ENCODING 11304
SWIDTH 2000 0
DWIDTH 20 0
BBX 18 14 1 0
BITMAP
C7F380
F083C0
108400
108800
088800
088800
049000
07F000
0C9800
188C00
188C00
308600
208300
E3E380
ENDCHAR
STARTCHAR 0417
ENCODING 11305
SWIDTH 2000 0
DWIDTH 20 0
BBX 8 15 6 -1
BITMAP
88
F6
81
81
01
03
06
3C
06
01
01
01
01
C3
3C
ENDCHAR
STARTCHAR 0418
ENCODING 11306
SWIDTH 2000 0
DWIDTH 20 0
BBX 14 14 3 0
BITMAP
F87C
2010
2010
2070
2090
2090
2110
2210
2410
2810
3010
3010
2010
F87C
ENDCHAR
STARTCHAR 0419
ENCODING 11307
SWIDTH 2000 0
DWIDTH 20 0
BBX 14 15 3 0
BITMAP
0CE0
0FC0
0000
7038
2010
2030
2050
2090
2110
2210
2410
2810
3010
2010
F87C
ENDCHAR
STARTCHAR 041A
ENCODING 11308
SWIDTH 2000 0
DWIDTH 20 0
BBX 13 14 3 0
BITMAP
F838
2058
2080
2080
2100
2100
2200
3E00
2300
2180
20C0
2040
2060
F838
ENDCHAR
STARTCHAR 041B
ENCODING 11309
SWIDTH 2000 0
DWIDTH 20 0
BBX 14 14 3 0
BITMAP
1FFC
0410
0410
0410
0410
0410
0410
0410
0410
0410
0810
0810
C810
F07C
ENDCHAR
STARTCHAR 041C
ENCODING 11310
SWIDTH 2000 0
DWIDTH 20 0
BBX 18 14 1 0
BITMAP
6001C0
300300
300300
280500
240500
240900
220900
221100
211100
212100
20A100
20C100
204100
F807C0
ENDCHAR
STARTCHAR 041D
ENCODING 11311
SWIDTH 2000 0
DWIDTH 20 0
BBX 14 14 3 0
BITMAP
F87C
2010
2010
2010
2010
2010
3FF0
2010
2010
2010
2010
2010
2010
F87C
ENDCHAR
STARTCHAR 041E
ENCODING 11312
SWIDTH 2000 0
DWIDTH 20 0
BBX 12 14 4 0
BITMAP
1F00
30C0
6060
4020
8010
8010
8010
8010
8010
8010
4020
6020
30C0
0F00
ENDCHAR
STARTCHAR 041F
ENCODING 11313
SWIDTH 2000 0
DWIDTH 20 0
BBX 14 14 3 0
BITMAP
FFFC
2010
2010
2010
2010
2010
2010
2010
2010
2010
2010
2010
2010
F83C
ENDCHAR
STARTCHAR 0420
ENCODING 11314
SWIDTH 2000 0
DWIDTH 20 0
BBX 11 14 5 0
BITMAP
7F80
2040
2020
2020
2020
2020
20C0
3F80
2000
2000
2000
2000
2000
F800
ENDCHAR
STARTCHAR 0421
ENCODING 11315
SWIDTH 2000 0
DWIDTH 20 0
BBX 12 15 4 -1
BITMAP
0F80
3070
6010
4010
C000
8000
8000
8000
8000
8000
4000
4000
3020
1CC0
0300
ENDCHAR
STARTCHAR 0422
ENCODING 11316
SWIDTH 2000 0
DWIDTH 20 0
BBX 13 14 3 0
BITMAP
7FF8
C208
8208
0200
0200
0200
0200
0200
0200
0200
0200
0200
0200
0F00
ENDCHAR
STARTCHAR 0423
ENCODING 11317
SWIDTH 2000 0
DWIDTH 20 0
BBX 15 14 3 0
BITMAP
F83E
2008
3008
1010
1820
0820
0C40
0440
0680
0280
0100
0100
3200
3C00
ENDCHAR
STARTCHAR 0424
ENCODING 11318
SWIDTH 2000 0
DWIDTH 20 0
BBX 14 14 3 0
BITMAP
07C0
0100
0F00
31F0
4108
8104
8104
8104
8104
410C
3118
0FE0
0100
0780
ENDCHAR
STARTCHAR 0425
ENCODING 11319
SWIDTH 2000 0
DWIDTH 20 0
BBX 15 14 2 0
BITMAP
7C1E
0808
0810
0420
0220
0140
0180
0180
0240
0460
0820
1010
2008
F03E
ENDCHAR
STARTCHAR 0426
ENCODING 11320
SWIDTH 2000 0
DWIDTH 20 0
BBX 15 17 3 -3
BITMAP
F87C
2010
2010
2010
2010
2010
2010
2010
2010
2010
2010
2010
2010
FFF8
0004
0004
0002
ENDCHAR
STARTCHAR 0427
ENCODING 11321
SWIDTH 2000 0
DWIDTH 20 0
BBX 13 14 3 0
BITMAP
F8F8
2020
2020
2020
2020
2020
2020
2060
19A0
0620
0020
0020
0020
00F8
ENDCHAR
STARTCHAR 0428
ENCODING 11322
SWIDTH 2000 0
DWIDTH 20 0
BBX 18 14 1 0
BITMAP
FBE7C0
208100
208100
208100
208100
208100
208100
208100
208100
208100
208100
208100
208100
FFFFC0
ENDCHAR
STARTCHAR 0429
ENCODING 11323
SWIDTH 2000 0
DWIDTH 20 0
BBX 19 18 1 -4
BITMAP
FBE7C0
208100
208100
208100
208100
208100
208100
208100
208100
208100
208100
208100
208100
FFFF80
000040
000040
000040
000020
ENDCHAR
STARTCHAR 042A
ENCODING 11324
SWIDTH 2000 0
DWIDTH 20 0
BBX 14 14 3 0
BITMAP
FF00
8400
8400
0400
0400
0400
0400
07F0
0418
0404
0404
0404
0418
1FF0
ENDCHAR
STARTCHAR 042B
ENCODING 11325
SWIDTH 2000 0
DWIDTH 20 0
BBX 18 14 1 0
BITMAP
F807C0
200100
200100
200100
200100
200100
200100
3F8100
204100
202100
202100
202100
206100
FF87C0
ENDCHAR
STARTCHAR 042C
ENCODING 11326
SWIDTH 2000 0
DWIDTH 20 0
BBX 10 14 5 0
BITMAP
F800
2000
2000
2000
2000
2000
2000
3F80
20C0
2040
2040
2040
2080
FF00
ENDCHAR
STARTCHAR 042D
ENCODING 11327
SWIDTH 2000 0
DWIDTH 20 0
BBX 12 15 4 -1
BITMAP
8600
F9C0
C060
8020
8010
0010
0010
0FF0
0010
0010
0010
0020
8060
60C0
1F00
ENDCHAR
STARTCHAR 042E
ENCODING 11328
SWIDTH 2000 0
DWIDTH 20 0
BBX 18 15 1 -1
BITMAP
F83C00
20C300
218180
210080
230040
220040
3E0040
220040
220040
220040
210040
210080
208180
F8C300
003C00
ENDCHAR
STARTCHAR 042F
ENCODING 11329
SWIDTH 2000 0
DWIDTH 20 0
BBX 13 14 3 0
BITMAP
07F8
0C20
1020
1020
1020
1020
0C20
03E0
0620
0420
0820
1820
3020
E0F8
ENDCHAR
STARTCHAR 0430
ENCODING 11345
SWIDTH 2000 0
DWIDTH 20 0
BBX 9 9 5 0
BITMAP
3E00
4200
4200
0600
3A00
4200
C200
C200
7F80
ENDCHAR
STARTCHAR 0431
ENCODING 11346
SWIDTH 2000 0
DWIDTH 20 0
BBX 9 13 5 0
BITMAP
1F00
2000
4000
8000
FE00
C100
8080
8080
8080
8080
C180
6300
3E00
ENDCHAR
STARTCHAR 0432
ENCODING 11347
SWIDTH 2000 0
DWIDTH 20 0
BBX 9 9 5 0
BITMAP
FF00
2180
2080
2100
3F00
2180
2180
2180
7F00
ENDCHAR
STARTCHAR 0433
ENCODING 11348
SWIDTH 2000 0
DWIDTH 20 0
BBX 8 9 6 0
BITMAP
FF
21
21
20
20
20
20
20
F8
ENDCHAR
STARTCHAR 0434
ENCODING 11349
SWIDTH 2000 0
DWIDTH 20 0
BBX 11 11 4 -2
BITMAP
3FE0
0880
0880
0880
1080
1080
1080
2080
3F80
4060
8020
ENDCHAR
STARTCHAR 0435
ENCODING 11350
SWIDTH 2000 0
DWIDTH 20 0
BBX 8 10 6 -1
BITMAP
38
46
82
FF
80
80
81
C1
62
3C
ENDCHAR
STARTCHAR 0451
ENCODING 11351
SWIDTH 2000 0
DWIDTH 20 0
BBX 8 13 6 -1
BITMAP
24
24
00
38
46
82
FF
80
80
80
41
62
1C
ENDCHAR
STARTCHAR 0436
ENCODING 11352
SWIDTH 2000 0
DWIDTH 20 0
BBX 13 9 3 0
BITMAP
EF18
E238
1240
1280
1FC0
1240
2220
6230
C718
ENDCHAR
STARTCHAR 0437
ENCODING 11353
SWIDTH 2000 0
DWIDTH 20 0
BBX 8 10 6 -1
BITMAP
7C
42
02
04
0C
02
03
83
46
38
ENDCHAR
STARTCHAR 0438
ENCODING 11354
SWIDTH 2000 0
DWIDTH 20 0
BBX 10 9 5 0
BITMAP
FFC0
2100
2100
2700
2900
2900
3100
2100
F380
ENDCHAR
STARTCHAR 0439
ENCODING 11355
SWIDTH 2000 0
DWIDTH 20 0
BBX 10 12 5 0
BITMAP
6300
3300
1C00
FFC0
2100
2100
2700
2900
2900
3100
2100
FB80
ENDCHAR
STARTCHAR 043A
ENCODING 11356
SWIDTH 2000 0
DWIDTH 20 0
BBX 9 9 5 0
BITMAP
F980
2380
2400
2800
3C00
2400
2200
2300
7180
ENDCHAR
STARTCHAR 043B
ENCODING 11357
SWIDTH 2000 0
DWIDTH 20 0
BBX 11 9 4 0
BITMAP
3FE0
0880
0880
0880
0880
0880
0880
4880
F3E0
ENDCHAR
STARTCHAR 043C
ENCODING 11358
SWIDTH 2000 0
DWIDTH 20 0
BBX 14 9 3 0
BITMAP
E038
6030
5050
5050
4890
4490
4510
4210
E23C
ENDCHAR
STARTCHAR 043D
ENCODING 11359
SWIDTH 2000 0
DWIDTH 20 0
BBX 10 9 5 0
BITMAP
FFC0
2100
2100
2100
3F00
2100
2100
2100
F380
ENDCHAR
STARTCHAR 043E
ENCODING 11360
SWIDTH 2000 0
DWIDTH 20 0
BBX 8 9 6 0
BITMAP
3C
42
81
81
81
81
81
42
3C
ENDCHAR
STARTCHAR 043F
ENCODING 11361
SWIDTH 2000 0
DWIDTH 20 0
BBX 9 9 5 0
BITMAP
FF80
2100
2100
2100
2100
2100
2100
2100
F380
ENDCHAR
STARTCHAR 0440
ENCODING 11362
SWIDTH 2000 0
DWIDTH 20 0
BBX 10 13 5 -4
BITMAP
EF00
3080
2040
2040
2040
2040
2040
2080
3100
2E00
2000
2000
F800
ENDCHAR
STARTCHAR 0441
ENCODING 11363
SWIDTH 2000 0
DWIDTH 20 0
BBX 8 10 6 -1
BITMAP
1C
62
43
80
80
80
80
C1
62
3C
ENDCHAR
STARTCHAR 0442
ENCODING 11364
SWIDTH 2000 0
DWIDTH 20 0
BBX 9 9 5 0
BITMAP
FF80
8880
0800
0800
0800
0800
0800
0800
3E00
ENDCHAR
STARTCHAR 0443
ENCODING 11365
SWIDTH 2000 0
DWIDTH 20 0
BBX 10 13 5 -4
BITMAP
F1C0
6080
2100
3100
1200
1A00
0A00
0C00
0400
0800
0800
7000
6000
ENDCHAR
STARTCHAR 0444
ENCODING 11366
SWIDTH 2000 0
DWIDTH 20 0
BBX 12 17 4 -4
BITMAP
0E00
0200
0200
0200
1380
6E60
4210
8210
8210
8210
C210
4230
6760
3AC0
0200
0200
0F00
ENDCHAR
STARTCHAR 0445
ENCODING 11367
SWIDTH 2000 0
DWIDTH 20 0
BBX 8 9 6 0
BITMAP
E7
64
28
18
18
28
44
46
C7
ENDCHAR
STARTCHAR 0446
ENCODING 11368
SWIDTH 2000 0
DWIDTH 20 0
BBX 11 12 4 -3
BITMAP
FBE0
2080
2080
2080
2080
2080
2080
2080
FF80
0060
0020
0020
ENDCHAR
STARTCHAR 0447
ENCODING 11369
SWIDTH 2000 0
DWIDTH 20 0
BBX 10 9 5 0
BITMAP
FFC0
2100
2100
2100
2300
1D00
0100
0100
0380
ENDCHAR
STARTCHAR 0448
ENCODING 11370
SWIDTH 2000 0
DWIDTH 20 0
BBX 16 9 2 0
BITMAP
FBFF
2084
2084
2084
2084
2084
2084
2084
7FFE
ENDCHAR
STARTCHAR 0449
ENCODING 11371
SWIDTH 2000 0
DWIDTH 20 0
BBX 16 12 2 -3
BITMAP
FFDF
2104
2104
2104
2104
2104
2104
2104
7FFE
0001
0001
0001
ENDCHAR
STARTCHAR 044A
ENCODING 11372
SWIDTH 2000 0
DWIDTH 20 0
BBX 10 9 5 0
BITMAP
FC00
9000
1000
1000
1F80
10C0
1040
10C0
3F80
ENDCHAR
STARTCHAR 044B
ENCODING 11373
SWIDTH 2000 0
DWIDTH 20 0
BBX 14 10 3 -1
BITMAP
F87C
2010
2010
2010
3E10
2110
2110
2110
EE38
1000
ENDCHAR
STARTCHAR 044C
ENCODING 11374
SWIDTH 2000 0
DWIDTH 20 0
BBX 8 9 6 0
BITMAP
F8
20
20
20
3E
21
21
21
FE
ENDCHAR
STARTCHAR 044D
ENCODING 11375
SWIDTH 2000 0
DWIDTH 20 0
BBX 7 10 7 0
BITMAP
38
C4
02
02
3E
02
02
06
84
78
ENDCHAR
STARTCHAR 044E
ENCODING 11376
SWIDTH 2000 0
DWIDTH 20 0
BBX 15 10 2 -1
BITMAP
F8F8
2104
2204
2202
3E02
2202
2202
2104
7088
0070
ENDCHAR
STARTCHAR 044F
ENCODING 11377
SWIDTH 2000 0
DWIDTH 20 0
BBX 9 9 6 0
BITMAP
3F00
6200
4200
6200
1E00
1200
2200
6200
C780
ENDCHAR
STARTCHAR AC00
ENCODING 12321
SWIDTH 2000 0
DWIDTH 20 0
BBX 18 18 2 -3
BITMAP
003000
000C00
000C00
000C00
7F8800
018800
010800
020800
020FC0
040C00
080C00
180800
200800
400800
800800
000800
000800
000800
ENDCHAR
STARTCHAR AC01
ENCODING 12322
SWIDTH 2000 0
DWIDTH 20 0
BBX 17 18 2 -3
BITMAP
003000
000800
000800
FF8800
010800
020800
060980
040E00
080800
100800
600800
9FF800
000800
000800
000800
000800
000800
000800
ENDCHAR
STARTCHAR AC04
ENCODING 12323
SWIDTH 2000 0
DWIDTH 20 0
BBX 16 17 3 -2
BITMAP
0060
0010
0010
FF10
0210
0410
0C10
0810
101F
2010
4010
8010
1810
0800
0800
0818
0FF8
ENDCHAR
STARTCHAR AC07
ENCODING 12324
SWIDTH 2000 0
DWIDTH 20 0
BBX 17 17 2 -2
BITMAP
003000
000800
000800
FF8800
010800
020800
060F80
040800
080800
100800
600800
800C00
0FFC00
040000
040000
040000
07FC00
ENDCHAR
STARTCHAR AC08
ENCODING 12325
SWIDTH 2000 0
DWIDTH 20 0
BBX 17 17 2 -2
BITMAP
003000
000800
000800
FF8800
010800
030800
060F80
040800
080800
100800
600000
8FFC00
000800
0FF800
040000
040000
07FE00
ENDCHAR
STARTCHAR AC09
ENCODING 12326
SWIDTH 2000 0
DWIDTH 20 0
BBX 17 18 2 -3
BITMAP
001800
000800
7F8800
010800
020800
060F80
040800
080800
100800
200000
FF7C00
020400
020400
3F0400
100400
108400
1F0400
000400
ENDCHAR
STARTCHAR AC0A
ENCODING 12327
SWIDTH 2000 0
DWIDTH 20 0
BBX 17 18 2 -3
BITMAP
003000
000800
000800
7F8800
010800
030800
060F80
040800
080800
100800
7F0000
82FC00
024400
3E4400
104400
10C800
1F7C00
004000
ENDCHAR
STARTCHAR AC10
ENCODING 12328
SWIDTH 2000 0
DWIDTH 20 0
BBX 17 18 2 -3
BITMAP
002000
001800
000800
7F8800
010800
030800
060800
040F80
080800
100800
600800
8FF800
040800
040800
041000
041000
07F800
040000
ENDCHAR
STARTCHAR AC11
ENCODING 12329
SWIDTH 2000 0
DWIDTH 20 0
BBX 17 18 2 -3
BITMAP
003000
001800
000800
7F8800
010800
030800
060800
040F80
080800
100800
601000
8C0800
040800
07F800
040800
040800
07F800
040800
ENDCHAR
STARTCHAR AC12
ENCODING 12330
SWIDTH 2000 0
DWIDTH 20 0
BBX 17 18 2 -3
BITMAP
002000
001800
000800
FF8800
010800
030800
060800
040F80
080800
100800
621800
B10800
111800
1F1800
113400
112200
1F4200
110000
ENDCHAR
STARTCHAR AC13
ENCODING 12331
SWIDTH 2000 0
DWIDTH 20 0
BBX 17 18 2 -3
BITMAP
003800
000800
000800
7F8800
010800
030800
060F80
040800
080800
100800
608800
804000
00C000
00A000
011800
060C00
080600
300000
ENDCHAR
STARTCHAR AC14
ENCODING 12332
SWIDTH 2000 0
DWIDTH 20 0
BBX 17 18 2 -3
BITMAP
003000
001800
000800
7F8800
010800
030800
060800
040F80
080800
100800
603800
860800
061800
061000
092C00
104600
208200
410000
ENDCHAR
STARTCHAR AC15
ENCODING 12333
SWIDTH 2000 0
DWIDTH 20 0
BBX 17 18 2 -3
BITMAP
003000
000800
000800
7F8800
010800
030800
060F80
040800
080800
100800
604800
804000
01B000
020800
020800
020800
011000
00E000
ENDCHAR
STARTCHAR AC16
ENCODING 12334
SWIDTH 2000 0
DWIDTH 20 0
BBX 17 18 2 -3
BITMAP
003000
001800
000800
7F8800
010800
030800
060800
040F80
080800
100800
600800
807C00
1F8000
00C000
012000
021800
0C0C00
300000
ENDCHAR
STARTCHAR AC17
ENCODING 12335
SWIDTH 2000 0
DWIDTH 20 0
BBX 16 18 3 -3
BITMAP
0060
0010
0010
FF10
0210
0610
0C1F
0810
1010
63D0
8008
01FC
3F80
0180
0140
0230
0C0C
3004
ENDCHAR
STARTCHAR AC19
ENCODING 12336
SWIDTH 2000 0
DWIDTH 20 0
BBX 17 18 2 -3
BITMAP
003000
001800
000800
7F8800
010800
030800
060800
040F80
080800
100800
600800
8FF800
040000
040000
07F800
040000
040000
07FC00
ENDCHAR
STARTCHAR AC1A
ENCODING 12337
SWIDTH 2000 0
DWIDTH 20 0
BBX 17 18 2 -3
BITMAP
003000
001800
000800
7F8800
010800
030800
060800
040F80
080800
100800
600800
800800
1FFC00
041000
022000
022000
1FFE00
0C0000
ENDCHAR
STARTCHAR AC1B
ENCODING 12338
SWIDTH 2000 0
DWIDTH 20 0
BBX 17 18 2 -3
BITMAP
003000
000800
000800
7FC800
018800
010800
020980
040E00
080800
100800
61E800
800400
1FF800
006000
019000
031000
011000
00E000
ENDCHAR
STARTCHAR AC1C
ENCODING 12339
SWIDTH 2000 0
DWIDTH 20 0
BBX 14 17 2 -2
BITMAP
000C
00C4
0044
0044
FE44
0644
0444
0444
087C
0844
1044
2044
4044
8044
0044
0044
0004
ENDCHAR
STARTCHAR AC1D
ENCODING 12340
SWIDTH 2000 0
DWIDTH 20 0
BBX 13 18 3 -3
BITMAP
0018
0008
00C8
9E48
6448
0C48
0848
1878
3048
2048
4048
BFF8
0808
0008
0008
0008
0008
0008
ENDCHAR
STARTCHAR AC20
ENCODING 12341
SWIDTH 2000 0
DWIDTH 20 0
BBX 15 18 2 -3
BITMAP
000C
00C4
0024
0024
FF24
0224
0624
0424
083C
1024
2024
4024
8024
0C04
0400
0400
0404
07FE
ENDCHAR
STARTCHAR AC24
ENCODING 12342
SWIDTH 2000 0
DWIDTH 20 0
BBX 15 18 3 -3
BITMAP
0030
0188
0048
9E48
6448
0C48
0848
1878
3048
2048
4048
8FF8
0008
0010
0FF8
0400
0400
07FE
ENDCHAR
STARTCHAR AC2C
ENCODING 12343
SWIDTH 2000 0
DWIDTH 20 0
BBX 13 18 3 -3
BITMAP
0030
0188
0048
9E48
6448
0C48
0848
1878
3048
2048
4048
8FF8
0418
0410
0410
0410
07F8
0400
ENDCHAR
STARTCHAR AC2D
ENCODING 12344
SWIDTH 2000 0
DWIDTH 20 0
BBX 13 18 3 -3
BITMAP
0018
0188
0048
9E48
6448
0C48
0848
1878
3048
2048
4048
9C08
0408
07F8
0408
0408
07F8
0408
ENDCHAR
STARTCHAR AC2F
ENCODING 12345
SWIDTH 2000 0
DWIDTH 20 0
BBX 15 17 2 -2
BITMAP
000C
0064
0024
0324
3E24
0224
0424
0C3C
1824
1024
6084
8064
0040
00E0
0198
020C
0C02
ENDCHAR
STARTCHAR AC30
ENCODING 12346
SWIDTH 2000 0
DWIDTH 20 0
BBX 15 17 3 -2
BITMAP
0118
00C8
0048
FE48
0448
0C48
0878
1048
3048
4048
8C10
0618
0410
0E38
1924
1046
6082
ENDCHAR
STARTCHAR AC31
ENCODING 12347
SWIDTH 2000 0
DWIDTH 20 0
BBX 13 18 3 -3
BITMAP
0018
0188
0048
0E48
7448
0C48
0848
1878
1048
2048
4048
8048
01F0
0318
0208
0208
0318
00F0
ENDCHAR
STARTCHAR AC38
ENCODING 12348
SWIDTH 2000 0
DWIDTH 20 0
BBX 17 17 2 -2
BITMAP
003800
000C00
000C00
000C00
7F8C00
018C00
010F80
020800
020800
040800
080800
180F80
200C00
400800
800800
000800
000800
ENDCHAR
STARTCHAR AC39
ENCODING 12349
SWIDTH 2000 0
DWIDTH 20 0
BBX 17 18 2 -3
BITMAP
003800
000800
000800
FF8800
010B80
030C00
020800
040800
080B80
100C00
200000
FFF800
080800
000800
000800
000800
000800
000800
ENDCHAR
STARTCHAR AC3C
ENCODING 12350
SWIDTH 2000 0
DWIDTH 20 0
BBX 17 17 2 -2
BITMAP
003000
000800
000800
7F8800
018900
010E00
020800
060800
040800
080B80
100C00
600800
8C0800
040000
040000
040C00
07FE00
ENDCHAR
STARTCHAR AC40
ENCODING 12351
SWIDTH 2000 0
DWIDTH 20 0
BBX 17 18 2 -3
BITMAP
002000
001800
000800
FF8800
010800
030F80
020800
040800
080800
100F80
200800
CFF800
000800
000800
0FF800
040000
040000
07FC00
ENDCHAR
STARTCHAR AC4B
ENCODING 12352
SWIDTH 2000 0
DWIDTH 20 0
BBX 17 18 2 -3
BITMAP
003000
000800
000800
7F8800
010F80
020800
060800
040800
080F00
100800
20C800
C04800
00C000
01B000
030800
040400
080200
300000
ENDCHAR
STARTCHAR AC4D
ENCODING 12353
SWIDTH 2000 0
DWIDTH 20 0
BBX 16 17 2 -2
BITMAP
0030
0008
0008
FF88
0108
020F
0608
0408
0808
108F
2048
C3B0
0408
0408
0408
0210
01E0
ENDCHAR
STARTCHAR AC54
ENCODING 12354
SWIDTH 2000 0
DWIDTH 20 0
BBX 14 18 2 -3
BITMAP
000C
00C4
0044
0044
FE44
0244
047C
0444
0844
0844
1044
207C
4044
8044
0044
0044
0044
0004
ENDCHAR
STARTCHAR AC58
ENCODING 12355
SWIDTH 2000 0
DWIDTH 20 0
BBX 15 17 2 -2
BITMAP
000C
00C4
0044
0044
7E44
047C
0444
0844
1844
307C
6044
8044
0C44
0404
0400
0406
03FE
ENDCHAR
STARTCHAR AC5C
ENCODING 12356
SWIDTH 2000 0
DWIDTH 20 0
BBX 16 17 2 -2
BITMAP
0010
00CC
0024
4F24
3224
063C
0424
083C
1024
2024
47FE
8004
0004
07FC
0200
0200
03FF
ENDCHAR
STARTCHAR AC70
ENCODING 12357
SWIDTH 2000 0
DWIDTH 20 0
BBX 14 18 2 -3
BITMAP
001C
000C
0004
7F84
0184
0104
0304
0204
04FC
0C04
0804
1004
6004
8004
0004
0004
0004
0004
ENDCHAR
STARTCHAR AC71
ENCODING 12358
SWIDTH 2000 0
DWIDTH 20 0
BBX 14 18 2 -3
BITMAP
001C
0004
0084
3F84
0104
0204
067C
0404
0804
1004
2000
DFFC
0404
0004
0004
0004
0004
0004
ENDCHAR
STARTCHAR AC74
ENCODING 12359
SWIDTH 2000 0
DWIDTH 20 0
BBX 16 17 2 -2
BITMAP
0018
0004
0004
7F84
0184
0104
0204
06FC
0404
0804
1004
6004
8604
0204
0200
0202
03FF
ENDCHAR
STARTCHAR AC77
ENCODING 12360
SWIDTH 2000 0
DWIDTH 20 0
BBX 15 17 2 -2
BITMAP
001C
0004
0004
7FC4
0084
0184
01FC
0204
0404
0804
1004
200E
C7FC
0200
0200
0206
03FE
ENDCHAR
STARTCHAR AC78
ENCODING 12361
SWIDTH 2000 0
DWIDTH 20 0
BBX 15 18 3 -3
BITMAP
0030
0008
FF08
0308
0208
05F8
0C08
1808
3008
4008
8008
0FF8
0008
0008
0FF8
0400
0400
07FE
ENDCHAR
STARTCHAR AC7A
ENCODING 12362
SWIDTH 2000 0
DWIDTH 20 0
BBX 13 18 3 -3
BITMAP
0030
0008
0008
FF08
0308
0238
04C8
0C08
1808
3008
4008
FC00
04F8
7C88
2090
2690
38F8
0080
ENDCHAR
STARTCHAR AC80
ENCODING 12363
SWIDTH 2000 0
DWIDTH 20 0
BBX 13 18 3 -3
BITMAP
0030
0008
FF08
0308
0208
0408
0CF8
1808
3008
4008
8008
0FF8
0408
0408
0408
0408
07F8
0400
ENDCHAR
STARTCHAR AC81
ENCODING 12364
SWIDTH 2000 0
DWIDTH 20 0
BBX 13 18 3 -3
BITMAP
0030
0008
FF08
0308
0208
0408
0CF8
1808
3008
4008
8010
0C08
0408
07F8
0408
0408
07F8
0408
ENDCHAR
STARTCHAR AC83
ENCODING 12365
SWIDTH 2000 0
DWIDTH 20 0
BBX 14 18 3 -3
BITMAP
0030
0008
FF08
0308
0208
0408
0CF8
1808
3008
4008
8108
0080
0180
0140
0230
0C18
1804
2000
ENDCHAR
STARTCHAR AC84
ENCODING 12366
SWIDTH 2000 0
DWIDTH 20 0
BBX 14 17 3 -2
BITMAP
0030
0008
FF08
0208
0608
05F8
0808
1008
2008
4008
8C10
0410
0430
0B28
114C
2084
4100
ENDCHAR
STARTCHAR AC85
ENCODING 12367
SWIDTH 2000 0
DWIDTH 20 0
BBX 13 18 3 -3
BITMAP
0030
0008
FF08
0308
0208
0408
0CF8
1808
3008
4008
8008
0040
03B0
0408
0408
0408
0210
01E0
ENDCHAR
STARTCHAR AC86
ENCODING 12368
SWIDTH 2000 0
DWIDTH 20 0
BBX 15 18 2 -3
BITMAP
0018
0004
0084
3F84
0104
0204
067C
0404
0804
1004
200E
CFFE
0040
00E0
0090
030C
0406
1800
ENDCHAR
STARTCHAR AC89
ENCODING 12369
SWIDTH 2000 0
DWIDTH 20 0
BBX 14 18 3 -3
BITMAP
0030
0008
FF08
0208
0208
0408
09F8
1008
2008
4008
8008
0FF8
0400
0418
07F8
0400
0400
03FC
ENDCHAR
STARTCHAR AC8A
ENCODING 12370
SWIDTH 2000 0
DWIDTH 20 0
BBX 15 18 3 -3
BITMAP
0038
0008
0008
FF08
0308
0208
05F8
0C08
1808
3008
4018
BFF8
0830
0430
0620
0220
3FFE
1000
ENDCHAR
STARTCHAR AC8B
ENCODING 12371
SWIDTH 2000 0
DWIDTH 20 0
BBX 14 18 3 -3
BITMAP
0030
0008
0008
7F08
0208
0408
0CF8
1808
3008
4008
81E8
000C
1FF0
0040
03B0
0210
0230
01E0
ENDCHAR
STARTCHAR AC8C
ENCODING 12372
SWIDTH 2000 0
DWIDTH 20 0
BBX 14 18 2 -3
BITMAP
0018
000C
0064
0024
7F24
0224
0224
0424
07E4
0824
0824
1024
2024
4024
8024
0024
0024
0004
ENDCHAR
STARTCHAR AC90
ENCODING 12373
SWIDTH 2000 0
DWIDTH 20 0
BBX 15 17 2 -2
BITMAP
001C
0004
0064
0024
7F24
0224
0624
07E4
0C24
0824
1024
6024
8C24
0404
0400
0404
07FE
ENDCHAR
STARTCHAR AC94
ENCODING 12374
SWIDTH 2000 0
DWIDTH 20 0
BBX 15 18 3 -3
BITMAP
0038
0188
0048
8E48
7448
0448
0FC8
1848
1048
2048
4040
8FF8
0008
0008
0FF8
0400
0400
07FE
ENDCHAR
STARTCHAR AC9C
ENCODING 12375
SWIDTH 2000 0
DWIDTH 20 0
BBX 13 18 3 -3
BITMAP
0038
00C8
0048
FE48
0448
0448
0FC8
1848
1048
2048
4040
8FF8
0418
0410
0410
0410
07F8
0400
ENDCHAR
STARTCHAR AC9D
ENCODING 12376
SWIDTH 2000 0
DWIDTH 20 0
BBX 13 18 3 -3
BITMAP
0038
00C8
0048
FE48
0648
0448
0C48
0BC8
1048
2048
4040
9C08
0408
07F8
0408
0408
07F8
0408
ENDCHAR
STARTCHAR AC9F
ENCODING 12377
SWIDTH 2000 0
DWIDTH 20 0
BBX 15 18 3 -3
BITMAP
0038
0188
0048
8E48
7448
0448
0FC8
1848
1048
2048
4048
80C8
00C0
01C0
0330
060C
0806
3000
ENDCHAR
STARTCHAR ACA0
ENCODING 12378
SWIDTH 2000 0
DWIDTH 20 0
BBX 15 18 3 -3
BITMAP
0038
0188
0048
0648
7C48
0448
08C8
0F48
1048
2048
4048
8C18
0618
0410
0F28
1946
2082
4000
ENDCHAR
STARTCHAR ACA1
ENCODING 12379
SWIDTH 2000 0
DWIDTH 20 0
BBX 14 17 2 -2
BITMAP
001C
0064
0024
7F24
0324
0224
0424
0FE4
0824
1024
6024
80F0
030C
0204
0204
0108
00F0
ENDCHAR
STARTCHAR ACA8
ENCODING 12380
SWIDTH 2000 0
DWIDTH 20 0
BBX 14 17 2 -2
BITMAP
0018
0004
0004
7F84
0184
017C
0304
0204
0404
0CFC
1804
1004
6004
8004
0004
0004
0004
ENDCHAR
STARTCHAR ACA9
ENCODING 12381
SWIDTH 2000 0
DWIDTH 20 0
BBX 14 18 2 -3
BITMAP
0018
000C
7F84
0184
017C
0204
0604
0C04
08FC
3004
4004
8FFC
0404
0004
0004
0004
0004
0004
ENDCHAR
STARTCHAR ACAA
ENCODING 12382
SWIDTH 2000 0
DWIDTH 20 0
BBX 14 18 2 -3
BITMAP
0018
000C
0084
3F84
01FC
0204
0604
0404
08FC
1004
2004
FF7C
0104
0104
0104
0104
0104
0104
ENDCHAR
STARTCHAR ACAC
ENCODING 12383
SWIDTH 2000 0
DWIDTH 20 0
BBX 16 17 2 -2
BITMAP
0018
0004
0004
7F84
0184
013C
0204
0604
0404
08FC
1004
6004
8604
0200
0200
0202
03FF
ENDCHAR
STARTCHAR ACAF
ENCODING 12384
SWIDTH 2000 0
DWIDTH 20 0
BBX 16 17 2 -2
BITMAP
001C
0004
7F84
0104
01FC
0204
0404
0804
107C
2004
C006
07FC
0200
0200
0200
0206
01FF
ENDCHAR
STARTCHAR ACB0
ENCODING 12385
SWIDTH 2000 0
DWIDTH 20 0
BBX 16 18 1 -3
BITMAP
000C
0006
0002
7FC2
008E
0132
0302
0202
04FE
0802
1002
67FC
8004
0004
07FC
0200
0200
03FF
ENDCHAR
STARTCHAR ACB8
ENCODING 12386
SWIDTH 2000 0
DWIDTH 20 0
BBX 13 18 3 -3
BITMAP
0030
0018
0008
FF08
03F8
0208
0608
0C08
09F8
1008
2008
CFF8
0418
0410
0410
0410
07F8
0400
ENDCHAR
STARTCHAR ACB9
ENCODING 12387
SWIDTH 2000 0
DWIDTH 20 0
BBX 13 18 3 -3
BITMAP
0030
0018
FF08
0308
0218
0468
0C08
1808
31F8
4008
8018
0C08
0408
07F8
0408
0408
07F8
0408
ENDCHAR
STARTCHAR ACBB
ENCODING 12388
SWIDTH 2000 0
DWIDTH 20 0
BBX 15 18 2 -3
BITMAP
001C
0004
0004
FF84
0104
03FC
0604
0404
08FC
1004
6084
0064
0040
00E0
0190
030C
0402
1800
ENDCHAR
STARTCHAR ACBC
ENCODING 12389
SWIDTH 2000 0
DWIDTH 20 0
BBX 15 17 3 -2
BITMAP
0030
0018
0008
FF08
0308
0278
0408
0C08
1978
3088
4008
8C18
0410
0C10
1A28
3344
4086
ENDCHAR
STARTCHAR ACBD
ENCODING 12390
SWIDTH 2000 0
DWIDTH 20 0
BBX 13 18 3 -3
BITMAP
0030
0018
FF08
0308
0218
0468
0C08
1808
31F8
4008
8008
0048
01F0
0208
0208
0208
0118
00E0
ENDCHAR
STARTCHAR ACC1
ENCODING 12391
SWIDTH 2000 0
DWIDTH 20 0
BBX 14 18 3 -3
BITMAP
0030
0018
FF08
0308
0218
0468
0C08
1808
31F8
4008
8008
0FF8
0400
0418
07F8
0400
0400
07FC
ENDCHAR
STARTCHAR ACC4
ENCODING 12392
SWIDTH 2000 0
DWIDTH 20 0
BBX 12 17 4 -2
BITMAP
0060
0010
0190
0090
FC90
0890
0F90
1890
1090
2F90
2090
4090
8090
0090
0090
0090
0010
ENDCHAR
STARTCHAR ACC8
ENCODING 12393
SWIDTH 2000 0
DWIDTH 20 0
BBX 15 17 3 -2
BITMAP
0030
0188
0048
FE48
0448
07C8
0848
0848
17C8
2048
4048
8048
0C48
0408
0400
0404
07FE
ENDCHAR
STARTCHAR ACCC
ENCODING 12394
SWIDTH 2000 0
DWIDTH 20 0
BBX 15 17 2 -2
BITMAP
001C
00C4
0044
FE44
0644
07C4
0844
1FC4
1044
2000
4FFC
8008
0008
0FF8
0400
0404
07FE
ENDCHAR
STARTCHAR ACD5
ENCODING 12395
SWIDTH 2000 0
DWIDTH 20 0
BBX 13 18 3 -3
BITMAP
0038
0188
0048
FE48
0648
07C8
0C48
0848
13C8
2048
4040
8E08
0208
03F8
0208
0208
03F8
0208
ENDCHAR
STARTCHAR ACD7
ENCODING 12396
SWIDTH 2000 0
DWIDTH 20 0
BBX 15 18 2 -3
BITMAP
0018
006C
0024
7F24
0224
03E4
0424
0C24
09E4
1024
60A4
8064
0044
00E0
0198
0304
0402
0800
ENDCHAR
STARTCHAR ACE0
ENCODING 12397
SWIDTH 2000 0
DWIDTH 20 0
BBX 17 13 1 -1
BITMAP
1FFE00
000200
000600
000600
000400
010400
008400
008800
008000
008000
008100
FFFF80
200000
ENDCHAR
STARTCHAR ACE1
ENCODING 12398
SWIDTH 2000 0
DWIDTH 20 0
BBX 17 17 2 -3
BITMAP
000C00
1FF400
000C00
000800
018800
018000
010100
FFFF80
600000
000000
1FF800
000800
000800
000800
000800
000800
000800
ENDCHAR
STARTCHAR ACE4
ENCODING 12399
SWIDTH 2000 0
DWIDTH 20 0
BBX 17 15 2 -2
BITMAP
3FFE00
000400
000400
000C00
018800
018800
018000
01FF80
FF0000
000000
380000
080000
080000
080800
0FFC00
ENDCHAR
STARTCHAR ACE7
ENCODING 12400
SWIDTH 2000 0
DWIDTH 20 0
BBX 17 16 2 -2
BITMAP
000C00
1FF400
000C00
000800
018800
018000
010300
FFFF80
600000
000000
3FF800
080000
080000
080000
080800
0FFC00
ENDCHAR
STARTCHAR ACE8
ENCODING 12401
SWIDTH 2000 0
DWIDTH 20 0
BBX 17 17 2 -3
BITMAP
000C00
1FF400
000C00
000800
018800
018000
018000
FFFF80
600000
000000
3FF800
001000
001000
3FF800
080000
080000
0FFC00
ENDCHAR
STARTCHAR ACEA
ENCODING 12402
SWIDTH 2000 0
DWIDTH 20 0
BBX 17 17 2 -3
BITMAP
3FFC00
000400
000800
000800
018800
018000
018000
FFFF80
400000
000000
3E7E00
024400
364400
184400
10C400
1F7C00
004000
ENDCHAR
STARTCHAR ACEC
ENCODING 12403
SWIDTH 2000 0
DWIDTH 20 0
BBX 17 16 2 -2
BITMAP
000C00
1FF400
000C00
018800
018800
018000
01FF80
FF8000
600000
001800
1F0800
021800
3F1800
102600
114200
1E0000
ENDCHAR
STARTCHAR ACEF
ENCODING 12404
SWIDTH 2000 0
DWIDTH 20 0
BBX 17 16 2 -2
BITMAP
3FFC00
000C00
030800
018800
018000
01FF80
FF0000
607800
000000
1FFE00
022000
3E7800
108400
118400
1EC400
003800
ENDCHAR
STARTCHAR ACF0
ENCODING 12405
SWIDTH 2000 0
DWIDTH 20 0
BBX 17 17 2 -3
BITMAP
001C00
1FE400
000C00
000800
018800
018000
018000
FFFF80
600000
000000
1FF800
081000
081000
081000
081000
0FF000
080000
ENDCHAR
STARTCHAR ACF1
ENCODING 12406
SWIDTH 2000 0
DWIDTH 20 0
BBX 18 17 1 -3
BITMAP
000E00
0FF200
000600
000400
00C400
00C000
00C000
FFFFC0
200000
000000
0E1800
020800
03F800
020800
020800
03F800
020800
ENDCHAR
STARTCHAR ACF3
ENCODING 12407
SWIDTH 2000 0
DWIDTH 20 0
BBX 17 17 2 -3
BITMAP
007C00
1F8400
000C00
000800
018800
018000
018000
FFFF80
000000
000000
018000
018000
038000
066000
0C1800
100C00
600400
ENDCHAR
STARTCHAR ACF5
ENCODING 12408
SWIDTH 2000 0
DWIDTH 20 0
BBX 17 17 2 -3
BITMAP
000C00
1FF400
000C00
000800
018800
018000
018000
FFFF80
000000
000000
008000
076000
081000
081000
081000
042000
03C000
ENDCHAR
STARTCHAR ACF6
ENCODING 12409
SWIDTH 2000 0
DWIDTH 20 0
BBX 17 17 2 -3
BITMAP
000C00
1FF400
000C00
000800
018800
018000
010100
FFFF80
400000
000C00
3FFE00
018000
018000
036000
041800
180C00
200000
ENDCHAR
STARTCHAR ACFC
ENCODING 12410
SWIDTH 2000 0
DWIDTH 20 0
BBX 16 17 3 -2
BITMAP
0070
0010
0010
0010
FF90
0190
0190
0110
0913
091C
0870
0F90
F010
0010
0010
0010
0010
ENDCHAR
STARTCHAR ACFD
ENCODING 12411
SWIDTH 2000 0
DWIDTH 20 0
BBX 17 18 1 -3
BITMAP
001C00
000400
000400
3FC400
004400
0C4400
048400
048F80
87F400
780400
000000
0FFC00
020400
000400
000400
000400
000400
000400
ENDCHAR
STARTCHAR AD00
ENCODING 12412
SWIDTH 2000 0
DWIDTH 20 0
BBX 16 17 3 -2
BITMAP
0070
0010
0010
FF90
0110
0110
3110
1A13
103C
1FD0
E010
0010
3810
0800
0800
0808
0FFC
ENDCHAR
STARTCHAR AD04
ENCODING 12413
SWIDTH 2000 0
DWIDTH 20 0
BBX 18 17 1 -2
BITMAP
001C00
000400
3FE400
004400
004400
0C4400
0485C0
041E00
FFE400
300400
000000
07FC00
000800
000800
07FC00
020000
03FE00
ENDCHAR
STARTCHAR AD06
ENCODING 12414
SWIDTH 2000 0
DWIDTH 20 0
BBX 17 17 2 -2
BITMAP
003800
000800
000800
7FC800
008800
0C8800
088B80
087C00
FF8800
200800
000000
3E7C00
024400
3E4400
104400
1E7C00
004000
ENDCHAR
STARTCHAR AD0C
ENCODING 12577
SWIDTH 2000 0
DWIDTH 20 0
BBX 17 17 2 -2
BITMAP
003800
000800
7FC800
00C800
008800
0C8800
080F80
08F800
FF0800
000000
000000
0FF800
040800
040800
041000
07F800
040000
ENDCHAR
STARTCHAR AD0D
ENCODING 12578
SWIDTH 2000 0
DWIDTH 20 0
BBX 17 18 2 -3
BITMAP
003800
000800
7FC800
008800
008800
188800
090980
087E00
FF8800
201800
1C0800
040800
07F800
040800
040800
040800
07F800
040800
ENDCHAR
STARTCHAR AD0F
ENCODING 12579
SWIDTH 2000 0
DWIDTH 20 0
BBX 18 17 1 -2
BITMAP
001C00
000400
3FE400
006400
004400
0C4400
044400
0407C0
04FC00
FF0400
20C400
002000
006000
005000
008C00
010600
060300
ENDCHAR
STARTCHAR AD11
ENCODING 12580
SWIDTH 2000 0
DWIDTH 20 0
BBX 17 17 2 -2
BITMAP
003000
000800
7FC800
008800
008800
108800
090980
080E00
0BF800
FC0800
000800
004000
01F000
031800
020800
031800
01F000
ENDCHAR
STARTCHAR AD18
ENCODING 12581
SWIDTH 2000 0
DWIDTH 20 0
BBX 15 17 1 -2
BITMAP
000C
0062
0012
0012
3F92
0092
0192
1112
091E
0812
08F2
FF12
0012
0012
0012
0012
0002
ENDCHAR
STARTCHAR AD1C
ENCODING 12582
SWIDTH 2000 0
DWIDTH 20 0
BBX 15 17 2 -2
BITMAP
0008
00C4
0024
0024
FF24
0124
0324
1A24
1A3C
18E4
1F24
6024
0C24
0404
0400
0406
03FE
ENDCHAR
STARTCHAR AD20
ENCODING 12583
SWIDTH 2000 0
DWIDTH 20 0
BBX 15 18 2 -3
BITMAP
0018
0064
0024
FF24
0224
0224
1A24
083C
08E4
FF24
2024
0FFC
0008
0008
0FF8
0400
0400
07FE
ENDCHAR
STARTCHAR AD29
ENCODING 12584
SWIDTH 2000 0
DWIDTH 20 0
BBX 14 18 2 -3
BITMAP
001C
0064
0024
7F24
0124
0324
1A24
0A3C
08E4
FF24
002C
0604
0204
03FC
0204
0204
03FC
0204
ENDCHAR
STARTCHAR AD2C
ENCODING 12585
SWIDTH 2000 0
DWIDTH 20 0
BBX 16 18 2 -3
BITMAP
0018
00E4
0024
7F24
0324
0224
1A24
0A3C
08E4
FF24
0024
0C18
0208
0610
073C
0966
1083
6100
ENDCHAR
STARTCHAR AD2D
ENCODING 12586
SWIDTH 2000 0
DWIDTH 20 0
BBX 14 18 2 -3
BITMAP
000C
0064
0024
7F24
2124
0124
1A24
0A3C
09E4
FE24
2024
0024
00F8
018C
0104
0104
018C
0078
ENDCHAR
STARTCHAR AD34
ENCODING 12587
SWIDTH 2000 0
DWIDTH 20 0
BBX 14 17 2 -2
BITMAP
001C
0004
0004
7FE4
0044
0044
0044
0C84
0484
0404
047C
FF84
2004
0004
0004
0004
0004
ENDCHAR
STARTCHAR AD35
ENCODING 12588
SWIDTH 2000 0
DWIDTH 20 0
BBX 12 18 4 -3
BITMAP
0070
0010
FF90
0110
0110
3110
1110
1070
1F90
E010
0000
7FF0
1010
0010
0010
0010
0010
0010
ENDCHAR
STARTCHAR AD38
ENCODING 12589
SWIDTH 2000 0
DWIDTH 20 0
BBX 14 17 3 -2
BITMAP
0038
0008
0008
FF88
0088
0088
3908
0908
0878
0F88
F008
0008
3808
0800
0800
080C
07FC
ENDCHAR
STARTCHAR AD3C
ENCODING 12590
SWIDTH 2000 0
DWIDTH 20 0
BBX 15 17 2 -2
BITMAP
001C
0004
3FE4
0044
0044
0C44
0484
043C
FFC4
2000
0FF8
0008
0008
0FF8
0400
0400
07FE
ENDCHAR
STARTCHAR AD44
ENCODING 12591
SWIDTH 2000 0
DWIDTH 20 0
BBX 14 18 2 -3
BITMAP
001C
0004
3FE4
0044
0044
0C44
0484
043C
FFC4
0004
0000
0000
07FC
0204
0208
0208
03FC
0200
ENDCHAR
STARTCHAR AD45
ENCODING 12592
SWIDTH 2000 0
DWIDTH 20 0
BBX 15 18 1 -3
BITMAP
000E
0002
1FF2
0022
0022
0E22
0242
0206
87FA
7802
0004
0702
0102
01FE
0102
0102
01FE
0102
ENDCHAR
STARTCHAR AD47
ENCODING 12593
SWIDTH 2000 0
DWIDTH 20 0
BBX 14 18 3 -3
BITMAP
0038
0008
0008
FF88
0088
1088
0988
0908
0978
0F88
F008
0188
00C0
01C0
0330
0608
0804
3000
ENDCHAR
STARTCHAR AD49
ENCODING 12594
SWIDTH 2000 0
DWIDTH 20 0
BBX 14 17 2 -2
BITMAP
001C
0004
3FE4
0044
0044
0044
0484
0404
04FC
FF04
0024
00F8
0104
0104
0104
018C
0078
ENDCHAR
STARTCHAR AD50
ENCODING 12595
SWIDTH 2000 0
DWIDTH 20 0
BBX 18 12 1 0
BITMAP
1FFF00
000200
000200
000200
000200
006400
022400
022400
022000
022000
022080
FFFFC0
ENDCHAR
STARTCHAR AD54
ENCODING 12596
SWIDTH 2000 0
DWIDTH 20 0
BBX 18 14 1 -1
BITMAP
0FFF00
000200
000200
003400
061400
021000
021180
FFFFC0
200000
0C0000
040000
040000
040600
03FF00
ENDCHAR
STARTCHAR AD58
ENCODING 12597
SWIDTH 2000 0
DWIDTH 20 0
BBX 17 16 2 -2
BITMAP
3FFC00
000400
008C00
0E6800
064800
064000
FFFF80
000000
000000
1FF800
000800
000800
0FF800
080000
080000
07FC00
ENDCHAR
STARTCHAR AD61
ENCODING 12598
SWIDTH 2000 0
DWIDTH 20 0
BBX 17 15 2 -2
BITMAP
3FFC00
008400
0C6800
064800
064800
FFFF80
000000
007000
181000
081000
0FF000
081000
081000
0FF000
081000
ENDCHAR
STARTCHAR AD63
ENCODING 12599
SWIDTH 2000 0
DWIDTH 20 0
BBX 17 15 2 -2
BITMAP
3FFE00
000400
000400
006400
0C2800
042800
042100
FFFF80
410000
008000
018000
016000
021800
0C0C00
100600
ENDCHAR
STARTCHAR AD6C
ENCODING 12600
SWIDTH 2000 0
DWIDTH 20 0
BBX 17 15 2 -2
BITMAP
1FFC00
000800
000800
000800
001000
001000
FFFF80
008000
008000
008000
008000
008000
008000
008000
008000
ENDCHAR
STARTCHAR AD6D
ENCODING 12601
SWIDTH 2000 0
DWIDTH 20 0
BBX 17 16 2 -2
BITMAP
1FFC00
000C00
000800
000800
000800
001000
FFFF80
008000
008000
1FF800
000800
000800
000800
000800
000800
000800
ENDCHAR
STARTCHAR AD70
ENCODING 12602
SWIDTH 2000 0
DWIDTH 20 0
BBX 17 15 2 -2
BITMAP
1FFC00
000C00
000800
000800
000800
001000
FFFF80
008000
008000
008000
188000
088000
080000
080000
07FE00
ENDCHAR
STARTCHAR AD73
ENCODING 12603
SWIDTH 2000 0
DWIDTH 20 0
BBX 17 15 2 -2
BITMAP
3FFC00
000800
000800
000800
001000
FFFF80
018000
018000
018000
001800
1FF800
080000
080000
080800
0FFC00
ENDCHAR
STARTCHAR AD74
ENCODING 12604
SWIDTH 2000 0
DWIDTH 20 0
BBX 17 16 2 -2
BITMAP
1FFC00
000400
000C00
000800
000800
001000
FFFF80
008000
008000
008800
3FF800
000800
3FF800
080000
080000
0FFC00
ENDCHAR
STARTCHAR AD75
ENCODING 12605
SWIDTH 2000 0
DWIDTH 20 0
BBX 17 15 2 -2
BITMAP
1FFC00
000400
000C00
000800
000800
FFFF80
008000
008000
008000
1E3C00
020400
3E0400
100400
118400
1E0400
ENDCHAR
STARTCHAR AD76
ENCODING 12606
SWIDTH 2000 0
DWIDTH 20 0
BBX 17 15 2 -2
BITMAP
1FFC00
000400
000800
000800
000800
FFFF80
008000
008000
008000
1F7C00
024400
1F4400
104400
1F7C00
004000
ENDCHAR
STARTCHAR AD7B
ENCODING 12607
SWIDTH 2000 0
DWIDTH 20 0
BBX 17 16 2 -2
BITMAP
3FFC00
000C00
000800
000800
001000
FFFF80
008000
008800
007800
1F0000
02FC00
367800
188C00
108400
1E8400
007800
ENDCHAR
STARTCHAR AD7C
ENCODING 12608
SWIDTH 2000 0
DWIDTH 20 0
BBX 17 17 2 -3
BITMAP
1FFC00
000C00
000800
000800
000800
001000
FFFF80
208000
008000
008000
1FF800
081800
081000
081000
081000
0FF800
080000
ENDCHAR
STARTCHAR AD7D
ENCODING 12609
SWIDTH 2000 0
DWIDTH 20 0
BBX 17 16 2 -2
BITMAP
3FFC00
000C00
000800
000800
000800
001000
FFFF80
008000
008000
1CB000
041000
07F000
041000
041000
07F000
041000
ENDCHAR
STARTCHAR AD7F
ENCODING 12610
SWIDTH 2000 0
DWIDTH 20 0
BBX 17 16 2 -3
BITMAP
3FFC00
000C00
000800
000800
001000
001000
FFFF80
008000
008000
028000
018000
018000
034000
063800
080C00
300400
ENDCHAR
STARTCHAR AD81
ENCODING 12611
SWIDTH 2000 0
DWIDTH 20 0
BBX 17 16 2 -3
BITMAP
1FFC00
000C00
000800
000800
001000
FFFF80
208000
008000
008000
03E000
063000
041000
041000
041000
022000
01C000
ENDCHAR
STARTCHAR AD82
ENCODING 12612
SWIDTH 2000 0
DWIDTH 20 0
BBX 17 17 2 -3
BITMAP
1FFC00
000C00
000800
000800
000800
001000
FFFF80
008000
008000
008000
39FC00
068000
018000
016000
061800
080C00
300200
ENDCHAR
STARTCHAR AD88
ENCODING 12613
SWIDTH 2000 0
DWIDTH 20 0
BBX 14 17 2 -2
BITMAP
0018
0004
0004
3FE4
0044
0044
00C4
0084
0094
FFE4
3204
027C
0204
0204
0204
0204
0204
ENDCHAR
STARTCHAR AD89
ENCODING 12614
SWIDTH 2000 0
DWIDTH 20 0
BBX 13 17 3 -2
BITMAP
0030
0008
0788
3988
0108
0108
07C8
FC08
04F8
0408
0408
3FF8
0808
0008
0008
0008
0008
ENDCHAR
STARTCHAR AD8C
ENCODING 12615
SWIDTH 2000 0
DWIDTH 20 0
BBX 16 17 2 -2
BITMAP
0018
0004
0004
3FC4
00C4
0084
0084
00E4
FF04
04FC
0404
0404
0E04
0200
0200
0202
03FF
ENDCHAR
STARTCHAR AD90
ENCODING 12616
SWIDTH 2000 0
DWIDTH 20 0
BBX 15 17 2 -2
BITMAP
0018
0004
7FC4
0084
0084
0084
01C4
FE04
04FC
0404
0400
000C
03F4
0004
07FC
0200
03FE
ENDCHAR
STARTCHAR AD9C
ENCODING 12617
SWIDTH 2000 0
DWIDTH 20 0
BBX 15 18 3 -3
BITMAP
0030
0008
FF88
0108
0108
0208
0F88
F408
04F8
0408
0008
0618
0618
0410
0B28
1146
2082
4000
ENDCHAR
STARTCHAR AD9D
ENCODING 12618
SWIDTH 2000 0
DWIDTH 20 0
BBX 15 17 1 -2
BITMAP
000C
0002
0002
3FC2
00C2
0082
0082
83E2
7E3E
0202
0222
0272
038C
0104
0104
018C
0070
ENDCHAR
STARTCHAR ADA4
ENCODING 12619
SWIDTH 2000 0
DWIDTH 20 0
BBX 14 17 2 -2
BITMAP
001C
00C4
0024
0024
7FA4
0124
0124
0124
0264
0FA4
F7E4
0424
0424
0424
0424
0024
0004
ENDCHAR
STARTCHAR ADB7
ENCODING 12620
SWIDTH 2000 0
DWIDTH 20 0
BBX 16 18 2 -3
BITMAP
001C
0064
0024
7FA4
0124
0124
0124
0224
FFA4
04E4
0424
0464
0460
00C0
01B0
030C
0406
1801
ENDCHAR
STARTCHAR ADC0
ENCODING 12621
SWIDTH 2000 0
DWIDTH 20 0
BBX 13 17 3 -2
BITMAP
0030
0008
0008
7F88
0088
0188
0108
0108
0118
07E8
FC08
0408
0408
0408
0408
0408
0408
ENDCHAR
STARTCHAR ADC1
ENCODING 12622
SWIDTH 2000 0
DWIDTH 20 0
BBX 13 18 3 -3
BITMAP
0030
0008
7F88
0088
0108
0108
01F8
FE08
0408
0408
0408
0078
1F88
0008
0008
0008
0008
0008
ENDCHAR
STARTCHAR ADC4
ENCODING 12623
SWIDTH 2000 0
DWIDTH 20 0
BBX 15 17 3 -2
BITMAP
0038
0008
7F88
0088
0108
0108
0178
0788
FC08
0408
0408
0008
1C08
0400
0400
0404
07FE
ENDCHAR
STARTCHAR ADC8
ENCODING 12624
SWIDTH 2000 0
DWIDTH 20 0
BBX 14 17 3 -2
BITMAP
0030
0008
7FC8
0088
0088
0098
00E8
FF08
0408
0408
0FF8
0008
0010
0FF8
0400
040C
07FC
ENDCHAR
STARTCHAR ADD0
ENCODING 12625
SWIDTH 2000 0
DWIDTH 20 0
BBX 14 18 2 -3
BITMAP
0018
0004
3FC4
00C4
0084
0084
00FC
FF04
0204
0204
0004
07FC
0204
0204
0208
0208
03FC
0200
ENDCHAR
STARTCHAR ADD1
ENCODING 12626
SWIDTH 2000 0
DWIDTH 20 0
BBX 14 18 2 -3
BITMAP
0018
0004
3FC4
00C4
0084
0084
00FC
FFC4
2204
0204
0204
0E0C
0204
03FC
0204
0204
03FC
0204
ENDCHAR
STARTCHAR ADD3
ENCODING 12627
SWIDTH 2000 0
DWIDTH 20 0
BBX 15 17 2 -2
BITMAP
0008
0004
3FC4
0044
0084
0084
00FC
FF04
0204
0204
02C4
0064
0040
00A0
0118
0206
0C02
ENDCHAR
STARTCHAR ADDC
ENCODING 12628
SWIDTH 2000 0
DWIDTH 20 0
BBX 17 15 2 -2
BITMAP
1FFC00
000C00
000800
000800
000800
001000
FFFF80
241000
041000
041000
041000
041000
041000
041000
041000
ENDCHAR
STARTCHAR ADE0
ENCODING 12629
SWIDTH 2000 0
DWIDTH 20 0
BBX 16 15 2 -2
BITMAP
1FFC
0008
0008
0010
0010
0010
FFFF
0420
0420
0420
3420
1020
1020
1000
1FF8
ENDCHAR
STARTCHAR ADE4
ENCODING 12630
SWIDTH 2000 0
DWIDTH 20 0
BBX 16 15 2 -2
BITMAP
3FF8
0008
0018
0010
0010
FFFF
0420
0420
1FF0
0010
0010
1FF0
0800
0800
0FF8
ENDCHAR
STARTCHAR ADF8
ENCODING 12631
SWIDTH 2000 0
DWIDTH 20 0
BBX 18 11 1 0
BITMAP
1FFF00
000200
000200
000600
000400
000400
000400
000800
000800
FFFFC0
200000
ENDCHAR
STARTCHAR ADF9
ENCODING 12632
SWIDTH 2000 0
DWIDTH 20 0
BBX 17 15 2 -2
BITMAP
3FFC00
000400
000C00
000800
000800
FFFF80
400000
000000
1FF800
000800
000800
000800
000800
000800
000800
ENDCHAR
STARTCHAR ADFC
ENCODING 12633
SWIDTH 2000 0
DWIDTH 20 0
BBX 17 14 2 -1
BITMAP
1FFE00
000400
000400
000800
000800
000800
FFFF80
400000
000000
180000
080000
080000
080C00
07FC00
ENDCHAR
STARTCHAR ADFF
ENCODING 12634
SWIDTH 2000 0
DWIDTH 20 0
BBX 17 14 2 -1
BITMAP
1FFC00
000400
000800
000800
001000
FFFF80
400000
000000
001000
0FF800
080000
080000
080800
0FF800
ENDCHAR
STARTCHAR AE00
ENCODING 12635
SWIDTH 2000 0
DWIDTH 20 0
BBX 17 15 2 -2
BITMAP
1FFE00
000400
000400
000800
000800
FFFF80
200000
1BF800
040800
001000
1FF800
040000
040000
040000
03F800
ENDCHAR
STARTCHAR AE01
ENCODING 12636
SWIDTH 2000 0
DWIDTH 20 0
BBX 17 15 2 -2
BITMAP
1FFC00
000C00
000800
000800
001000
FFFF80
400000
000000
1F7C00
020400
3F0400
100400
108400
1F0400
000400
ENDCHAR
STARTCHAR AE08
ENCODING 12637
SWIDTH 2000 0
DWIDTH 20 0
BBX 17 15 2 -2
BITMAP
1FFC00
000400
000800
000800
000800
FFFF80
400000
000000
0FF800
040800
040800
040800
041000
07F800
040000
ENDCHAR
STARTCHAR AE09
ENCODING 12638
SWIDTH 2000 0
DWIDTH 20 0
BBX 17 15 2 -2
BITMAP
1FFC00
000C00
000800
000800
001000
FFFF80
000000
000000
1C1000
041000
07F000
041000
041000
07F000
041000
ENDCHAR
STARTCHAR AE0B
ENCODING 12639
SWIDTH 2000 0
DWIDTH 20 0
BBX 17 15 2 -2
BITMAP
1FFC00
000400
000C00
000800
000800
FFFF80
400000
000000
018000
018000
018000
036000
041800
080C00
300400
ENDCHAR
STARTCHAR AE0D
ENCODING 12640
SWIDTH 2000 0
DWIDTH 20 0
BBX 17 15 2 -2
BITMAP
1FFE00
000400
000C00
000800
000800
FFFF80
400000
000000
008000
03E000
063000
041000
041000
063000
01C000
ENDCHAR
STARTCHAR AE14
ENCODING 12641
SWIDTH 2000 0
DWIDTH 20 0
BBX 14 17 2 -2
BITMAP
0018
0004
0004
7FE4
0044
0044
0044
0084
0084
0004
007C
FF84
2004
0004
0004
0004
0004
ENDCHAR
STARTCHAR AE30
ENCODING 12642
SWIDTH 2000 0
DWIDTH 20 0
BBX 14 18 2 -3
BITMAP
0018
0004
0004
4384
3D84
0104
0304
0204
0404
0C04
1804
3004
4004
8004
0004
0004
0004
0004
ENDCHAR
STARTCHAR AE31
ENCODING 12643
SWIDTH 2000 0
DWIDTH 20 0
BBX 13 18 3 -3
BITMAP
0030
0008
0008
FF08
0308
0208
0408
0C08
1808
2008
4000
9FF8
0008
0008
0008
0008
0008
0008
ENDCHAR
STARTCHAR AE34
ENCODING 12644
SWIDTH 2000 0
DWIDTH 20 0
BBX 16 17 2 -2
BITMAP
001C
0004
0004
7F84
0184
0104
0204
0604
0404
0804
1004
6004
8604
0204
0200
0203
03FF
ENDCHAR
STARTCHAR AE37
ENCODING 12645
SWIDTH 2000 0
DWIDTH 20 0
BBX 14 16 3 -1
BITMAP
0038
0008
FF08
0308
0208
0408
0808
1808
2008
4008
BFF8
0800
0800
0800
080C
07FC
ENDCHAR
STARTCHAR AE38
ENCODING 12646
SWIDTH 2000 0
DWIDTH 20 0
BBX 14 17 3 -2
BITMAP
0030
0008
FF08
0308
0208
0408
0C08
1808
3008
4008
8FF8
0008
0008
0FF8
0400
0400
07FC
ENDCHAR
STARTCHAR AE3A
ENCODING 12647
SWIDTH 2000 0
DWIDTH 20 0
BBX 13 18 3 -3
BITMAP
0030
0008
FF08
0208
0608
0C08
0808
1008
6008
8008
7FF8
0488
0488
7C88
2090
20F8
2E80
3000
ENDCHAR
STARTCHAR AE40
ENCODING 12648
SWIDTH 2000 0
DWIDTH 20 0
BBX 13 17 3 -2
BITMAP
0030
0008
FF08
0308
0208
0408
0C08
1808
3008
4008
8000
07F8
0418
0418
0410
07F8
0400
ENDCHAR
STARTCHAR AE41
ENCODING 12649
SWIDTH 2000 0
DWIDTH 20 0
BBX 13 17 3 -2
BITMAP
0030
0008
FF08
0308
0208
0408
0C08
1808
3008
4010
8C08
0408
07F8
0408
0408
07F8
0408
ENDCHAR
STARTCHAR AE43
ENCODING 12650
SWIDTH 2000 0
DWIDTH 20 0
BBX 15 17 3 -2
BITMAP
0038
0008
FF08
0308
0208
0408
0C08
1808
3008
4008
8188
00C0
00C0
0120
0218
0404
1802
ENDCHAR
STARTCHAR AE45
ENCODING 12651
SWIDTH 2000 0
DWIDTH 20 0
BBX 14 17 2 -2
BITMAP
0018
000C
0084
3F84
0184
0104
0204
0404
0804
1004
2024
C1D8
0204
0204
0204
0108
00F0
ENDCHAR
STARTCHAR AE46
ENCODING 12652
SWIDTH 2000 0
DWIDTH 20 0
BBX 16 17 2 -2
BITMAP
0018
0004
0004
7F84
0184
0104
0204
0404
0804
1004
2006
CFF8
0040
00E0
0198
0206
0C03
ENDCHAR
STARTCHAR AE4A
ENCODING 12653
SWIDTH 2000 0
DWIDTH 20 0
BBX 15 17 3 -2
BITMAP
0038
0008
FF08
0308
0208
0408
0C08
1808
3008
4008
8008
1FF8
0830
0430
0220
0220
3FFE
ENDCHAR
STARTCHAR AE4C
ENCODING 12654
SWIDTH 2000 0
DWIDTH 20 0
BBX 17 18 2 -3
BITMAP
003000
000800
000800
080800
7FC800
084800
188800
108800
218980
610E00
430C00
820C00
040800
080800
100800
000800
000800
000800
ENDCHAR
STARTCHAR AE4D
ENCODING 12655
SWIDTH 2000 0
DWIDTH 20 0
BBX 17 18 2 -3
BITMAP
003000
000800
040800
3FE800
084800
088800
108F80
210800
420800
840800
080000
1FF800
000800
000800
000800
000800
000800
000800
ENDCHAR
STARTCHAR AE4E
ENCODING 12656
SWIDTH 2000 0
DWIDTH 20 0
BBX 17 18 2 -3
BITMAP
003000
000800
040800
3FE800
084800
088800
108F80
210800
420800
840800
080000
3EF800
020800
020800
020800
020800
020800
020800
ENDCHAR
STARTCHAR AE50
ENCODING 12657
SWIDTH 2000 0
DWIDTH 20 0
BBX 16 17 3 -2
BITMAP
0060
0018
0018
FFD0
1890
1190
2110
621F
8618
0410
0810
1010
0C10
0410
0400
0404
07FE
ENDCHAR
STARTCHAR AE54
ENCODING 12658
SWIDTH 2000 0
DWIDTH 20 0
BBX 17 17 2 -2
BITMAP
003000
000800
040800
3FE800
084800
088800
108F80
210800
420800
840800
080000
07FC00
000800
07FC00
020000
020600
03FE00
ENDCHAR
STARTCHAR AE56
ENCODING 12659
SWIDTH 2000 0
DWIDTH 20 0
BBX 16 18 3 -3
BITMAP
0060
0010
0010
FF90
1190
3110
6217
4218
8410
0010
FC00
09F8
0890
FC90
4090
4090
7CF8
6080
ENDCHAR
STARTCHAR AE5C
ENCODING 12660
SWIDTH 2000 0
DWIDTH 20 0
BBX 16 17 3 -2
BITMAP
0060
0010
0810
7FD0
1090
1110
211F
6210
4410
8810
1000
0FF8
0410
0410
0410
07F0
0400
ENDCHAR
STARTCHAR AE5D
ENCODING 12661
SWIDTH 2000 0
DWIDTH 20 0
BBX 16 17 3 -2
BITMAP
0060
0010
0810
7FD0
1090
1110
211F
6210
4410
8830
1C18
0410
07F0
0410
0410
07F0
0410
ENDCHAR
STARTCHAR AE5F
ENCODING 12662
SWIDTH 2000 0
DWIDTH 20 0
BBX 16 17 3 -2
BITMAP
0060
0018
0018
7FD0
1890
1190
2110
631F
4210
8610
0990
1190
0180
0240
0430
0818
300C
ENDCHAR
STARTCHAR AE60
ENCODING 12663
SWIDTH 2000 0
DWIDTH 20 0
BBX 17 17 2 -2
BITMAP
003000
000800
046800
3FE800
084800
088800
108F80
210800
420800
840800
0E1800
020800
061800
051400
08A200
10C300
600100
ENDCHAR
STARTCHAR AE61
ENCODING 12664
SWIDTH 2000 0
DWIDTH 20 0
BBX 16 18 3 -3
BITMAP
0060
0010
0810
7FD0
1090
1110
2117
6218
4410
8810
1090
0080
0360
0410
0410
0410
0220
01C0
ENDCHAR
STARTCHAR AE65
ENCODING 12665
SWIDTH 2000 0
DWIDTH 20 0
BBX 16 17 3 -2
BITMAP
0060
0010
0810
7FD0
1090
1110
211F
6210
4410
8810
1FF8
0400
0400
07F8
0400
0400
07FC
ENDCHAR
STARTCHAR AE68
ENCODING 12666
SWIDTH 2000 0
DWIDTH 20 0
BBX 14 17 2 -2
BITMAP
0008
0064
0024
0024
FFA4
1124
1124
2224
223C
4424
8424
0824
1024
0024
0024
0024
0004
ENDCHAR
STARTCHAR AE69
ENCODING 12667
SWIDTH 2000 0
DWIDTH 20 0
BBX 14 18 2 -3
BITMAP
0008
0064
0024
79A4
0FA4
1124
3124
223C
4424
8424
0824
1FFC
0404
0004
0004
0004
0004
0004
ENDCHAR
STARTCHAR AE6C
ENCODING 12668
SWIDTH 2000 0
DWIDTH 20 0
BBX 16 17 2 -2
BITMAP
0018
0064
0024
0024
7FA4
1124
1124
2224
423C
8424
0824
1024
0E24
0204
0200
0202
03FF
ENDCHAR
STARTCHAR AE70
ENCODING 12669
SWIDTH 2000 0
DWIDTH 20 0
BBX 16 17 2 -2
BITMAP
0018
0024
0024
7FA4
09A4
1124
223C
2224
C424
0824
1000
07FC
0004
03FC
0100
0100
01FF
ENDCHAR
STARTCHAR AE78
ENCODING 12670
SWIDTH 2000 0
DWIDTH 20 0
BBX 15 18 1 -3
BITMAP
000C
0062
0012
7CD2
0B92
0892
1112
311E
2212
C412
0812
13FE
0106
0104
0104
0104
01FE
0100
ENDCHAR
STARTCHAR AE79
ENCODING 12833
SWIDTH 2000 0
DWIDTH 20 0
BBX 14 18 2 -3
BITMAP
000C
0024
0024
7FA4
09A4
1124
223C
2224
C424
0824
1008
0304
0104
01FC
0104
0104
01FC
0104
ENDCHAR
STARTCHAR AE7B
ENCODING 12834
SWIDTH 2000 0
DWIDTH 20 0
BBX 15 18 2 -3
BITMAP
0018
0064
0024
0824
3FA4
1924
1124
223C
4224
8424
08C4
1064
0040
00E0
0198
0204
0402
0800
ENDCHAR
STARTCHAR AE7C
ENCODING 12835
SWIDTH 2000 0
DWIDTH 20 0
BBX 16 17 2 -2
BITMAP
0018
00C4
0024
7FA4
09A4
1124
1324
223C
4424
8424
0814
030C
0308
0318
0494
0822
3041
ENDCHAR
STARTCHAR AE7D
ENCODING 12836
SWIDTH 2000 0
DWIDTH 20 0
BBX 14 17 2 -2
BITMAP
0018
00C4
0024
7FA4
09A4
1124
1124
223C
4424
8424
0824
00F0
0188
0104
0104
0188
00F0
ENDCHAR
STARTCHAR AE84
ENCODING 12837
SWIDTH 2000 0
DWIDTH 20 0
BBX 17 18 2 -3
BITMAP
003800
000C00
000800
7FE800
044800
0C4900
08CF00
108800
318800
410800
820880
040F80
080800
000800
000800
000800
000800
000800
ENDCHAR
STARTCHAR AE85
ENCODING 12838
SWIDTH 2000 0
DWIDTH 20 0
BBX 17 18 2 -3
BITMAP
003800
000800
000800
FFC800
08CB80
108C00
310800
210800
420F80
840800
080000
3FF800
080800
000800
000800
000800
000800
000800
ENDCHAR
STARTCHAR AE8C
ENCODING 12839
SWIDTH 2000 0
DWIDTH 20 0
BBX 17 17 2 -2
BITMAP
003000
000800
FFC800
08C800
188F80
118800
210800
420900
840E00
080800
1FF800
000800
001000
1FF800
040000
040000
07FC00
ENDCHAR
STARTCHAR AEBC
ENCODING 12840
SWIDTH 2000 0
DWIDTH 20 0
BBX 13 17 3 -2
BITMAP
0030
0008
0008
FFC8
08C8
1888
1188
31F8
2308
4208
8408
0408
0808
0008
0008
0008
0008
ENDCHAR
STARTCHAR AEBD
ENCODING 12841
SWIDTH 2000 0
DWIDTH 20 0
BBX 14 18 2 -3
BITMAP
001C
0004
7CE4
0F44
0844
10FC
3184
2104
C204
0404
0000
0FFC
0004
0004
0004
0004
0004
0004
ENDCHAR
STARTCHAR AEBE
ENCODING 12842
SWIDTH 2000 0
DWIDTH 20 0
BBX 14 18 2 -3
BITMAP
001C
0004
7CE4
0F44
0844
10FC
3184
2104
C204
0404
0000
1F7C
0104
0104
0104
0104
0104
0004
ENDCHAR
STARTCHAR AEC0
ENCODING 12843
SWIDTH 2000 0
DWIDTH 20 0
BBX 16 17 2 -2
BITMAP
001C
0004
0004
7FE4
0844
0844
1084
30FC
4104
8204
0404
0804
0604
0200
0200
0202
01FF
ENDCHAR
STARTCHAR AEC4
ENCODING 12844
SWIDTH 2000 0
DWIDTH 20 0
BBX 15 17 2 -2
BITMAP
001C
0004
7CE4
0B44
08C4
10FC
2104
4304
8204
0404
0FFC
0004
0004
07FC
0200
0200
03FE
ENDCHAR
STARTCHAR AECC
ENCODING 12845
SWIDTH 2000 0
DWIDTH 20 0
BBX 13 17 3 -2
BITMAP
0038
0008
F9C8
1EC8
1088
31F8
2308
4208
8408
0808
1000
0FF8
0418
0410
0410
07F8
0400
ENDCHAR
STARTCHAR AECD
ENCODING 12846
SWIDTH 2000 0
DWIDTH 20 0
BBX 13 17 3 -2
BITMAP
0038
0008
F9C8
1EC8
1088
31F8
2308
4208
8408
0818
1C08
0408
07F8
0408
0408
07F8
0408
ENDCHAR
STARTCHAR AECF
ENCODING 12847
SWIDTH 2000 0
DWIDTH 20 0
BBX 15 18 2 -3
BITMAP
001C
0004
7FE4
0464
0844
08FC
10A4
2104
4204
8404
0884
1064
0060
00D0
0188
0206
0402
1800
ENDCHAR
STARTCHAR AED0
ENCODING 12848
SWIDTH 2000 0
DWIDTH 20 0
BBX 15 18 3 -3
BITMAP
0038
0008
1848
7FC8
1088
3188
2178
4208
8408
0808
1010
0608
0418
0E10
0928
1146
2082
4100
ENDCHAR
STARTCHAR AED1
ENCODING 12849
SWIDTH 2000 0
DWIDTH 20 0
BBX 13 17 3 -2
BITMAP
0038
0008
F9C8
1EC8
1088
31F8
2308
4208
8408
0808
1048
03F0
0408
0408
0408
0218
01E0
ENDCHAR
STARTCHAR AED8
ENCODING 12850
SWIDTH 2000 0
DWIDTH 20 0
BBX 14 18 2 -3
BITMAP
0018
00CC
0024
0024
7FA4
1124
1124
2224
23E4
4424
8424
0824
1024
2024
0024
0024
0004
0004
ENDCHAR
STARTCHAR AED9
ENCODING 12851
SWIDTH 2000 0
DWIDTH 20 0
BBX 14 18 2 -3
BITMAP
001C
00C4
0024
FFA4
1124
1324
23E4
4624
8424
0824
1024
1FFC
0404
0004
0004
0004
0004
0004
ENDCHAR
STARTCHAR AEDC
ENCODING 12852
SWIDTH 2000 0
DWIDTH 20 0
BBX 15 17 2 -2
BITMAP
001C
00C4
0024
1024
7F24
1124
2224
23E4
4424
8824
0824
1024
1C24
0400
0400
0404
07FE
ENDCHAR
STARTCHAR AEE8
ENCODING 12853
SWIDTH 2000 0
DWIDTH 20 0
BBX 14 18 2 -3
BITMAP
0018
00C4
0024
7FA4
1924
1124
23E4
6224
8424
0824
1024
07FC
0204
0204
0208
0208
03FC
0200
ENDCHAR
STARTCHAR AEEB
ENCODING 12854
SWIDTH 2000 0
DWIDTH 20 0
BBX 15 18 2 -3
BITMAP
0018
0044
0024
7FA4
1124
1324
23E4
4624
8424
0824
10A4
0064
00C0
00A0
0310
060C
0802
1000
ENDCHAR
STARTCHAR AEED
ENCODING 12855
SWIDTH 2000 0
DWIDTH 20 0
BBX 14 17 2 -2
BITMAP
0018
00C4
0024
FFA4
1124
1324
23E4
4224
8424
0824
1024
01F0
030C
0204
0204
0308
00F0
ENDCHAR
STARTCHAR AEF4
ENCODING 12856
SWIDTH 2000 0
DWIDTH 20 0
BBX 14 17 2 -2
BITMAP
0018
0004
0004
3CE4
0F44
0844
18BC
1084
2104
6104
827C
0404
0804
0004
0004
0004
0004
ENDCHAR
STARTCHAR AEF8
ENCODING 12857
SWIDTH 2000 0
DWIDTH 20 0
BBX 16 17 1 -2
BITMAP
000E
0002
0002
1FE2
047E
0842
1082
3182
417E
8202
0402
0002
0602
0200
0200
0202
03FF
ENDCHAR
STARTCHAR AEFC
ENCODING 12858
SWIDTH 2000 0
DWIDTH 20 0
BBX 15 17 2 -2
BITMAP
0018
0004
7CE4
0F44
08FC
1084
3184
417C
8204
0404
0FFC
0004
0004
07FC
0200
0200
03FE
ENDCHAR
STARTCHAR AF07
ENCODING 12859
SWIDTH 2000 0
DWIDTH 20 0
BBX 15 18 2 -3
BITMAP
001C
0004
4C64
37C4
087C
08C4
1084
217C
4204
8404
0884
1064
0040
00E0
0198
030C
0406
1800
ENDCHAR
STARTCHAR AF08
ENCODING 12860
SWIDTH 2000 0
DWIDTH 20 0
BBX 15 18 3 -3
BITMAP
0038
0008
FFC8
1888
10F8
2108
6308
4208
8478
0808
1030
0618
0410
0E10
0928
1144
2086
0100
ENDCHAR
STARTCHAR AF0D
ENCODING 12861
SWIDTH 2000 0
DWIDTH 20 0
BBX 16 17 2 -2
BITMAP
001C
0004
7CE4
0F44
08FC
1084
3184
6104
823C
0404
0804
07FE
0204
03FC
0200
0202
03FF
ENDCHAR
STARTCHAR AF10
ENCODING 12862
SWIDTH 2000 0
DWIDTH 20 0
BBX 14 18 2 -3
BITMAP
0018
00CC
0024
0024
7FA4
1124
11E4
2224
2224
45E4
8424
0824
1024
2024
0024
0024
0004
0004
ENDCHAR
STARTCHAR AF2C
ENCODING 12863
SWIDTH 2000 0
DWIDTH 20 0
BBX 19 13 0 0
BITMAP
7F7F00
030300
030200
020200
020200
060600
05C400
044400
004000
004000
004080
FFFFE0
200000
ENDCHAR
STARTCHAR AF2D
ENCODING 12864
SWIDTH 2000 0
DWIDTH 20 0
BBX 17 17 2 -3
BITMAP
06FC00
7C0C00
040800
040800
088800
089000
008300
FFFF80
000000
000000
3FF800
080800
000800
000800
000800
000800
000800
ENDCHAR
STARTCHAR AF30
ENCODING 12865
SWIDTH 2000 0
DWIDTH 20 0
BBX 18 14 1 -1
BITMAP
7F7E00
020200
020600
020400
04C400
044000
004180
FFFFC0
200000
1C0000
040000
040000
040200
03FF00
ENDCHAR
STARTCHAR AF32
ENCODING 12866
SWIDTH 2000 0
DWIDTH 20 0
BBX 18 16 1 -2
BITMAP
037F00
1F0200
020200
020600
02C400
044400
004000
FFFFC0
000000
103800
090F00
08F000
082E00
08C200
0F6200
003C00
ENDCHAR
STARTCHAR AF34
ENCODING 12867
SWIDTH 2000 0
DWIDTH 20 0
BBX 17 16 2 -2
BITMAP
06FC00
7C0C00
040800
040800
098800
089000
008300
FFFF80
000000
1FF800
001000
001000
1FF800
080000
080000
0FFC00
ENDCHAR
STARTCHAR AF3C
ENCODING 12868
SWIDTH 2000 0
DWIDTH 20 0
BBX 18 16 1 -2
BITMAP
007F00
3F0200
020200
020400
02C400
044000
004180
FFFFC0
200000
000000
0FF800
040800
040800
040800
07F800
040000
ENDCHAR
STARTCHAR AF3D
ENCODING 12869
SWIDTH 2000 0
DWIDTH 20 0
BBX 17 16 2 -2
BITMAP
03FC00
1E0400
020C00
020800
058800
048000
008300
FFFF80
000000
1C3000
041000
07F000
041000
041000
07F000
041000
ENDCHAR
STARTCHAR AF3F
ENCODING 12870
SWIDTH 2000 0
DWIDTH 20 0
BBX 17 16 2 -2
BITMAP
067E00
3E0400
040400
058400
088800
088800
008300
FFFF80
200000
030000
008000
018000
036000
061800
0C0C00
300400
ENDCHAR
STARTCHAR AF41
ENCODING 12871
SWIDTH 2000 0
DWIDTH 20 0
BBX 18 16 1 -2
BITMAP
007E00
1F0600
030400
020400
02C400
044800
044180
FFFFC0
200000
004000
01B000
020800
020800
020800
031800
00F000
ENDCHAR
STARTCHAR AF42
ENCODING 12872
SWIDTH 2000 0
DWIDTH 20 0
BBX 17 17 2 -3
BITMAP
7E7E00
060400
040400
040800
058800
008000
008000
FFFF80
000000
000800
3FFC00
008000
018000
036000
041800
180C00
600000
ENDCHAR
STARTCHAR AF43
ENCODING 12873
SWIDTH 2000 0
DWIDTH 20 0
BBX 17 17 2 -3
BITMAP
7EFE00
366400
040400
058C00
088800
088000
FFFF80
000000
03C000
000000
01FC00
3F8000
018000
034000
063000
0C0C00
300400
ENDCHAR
STARTCHAR AF48
ENCODING 12874
SWIDTH 2000 0
DWIDTH 20 0
BBX 17 18 2 -3
BITMAP
003000
000800
000800
FBC800
184800
184800
104800
168800
128800
220F80
023800
0FC800
780800
000800
000800
000800
000800
000800
ENDCHAR
STARTCHAR AF49
ENCODING 12875
SWIDTH 2000 0
DWIDTH 20 0
BBX 17 18 2 -3
BITMAP
003000
000800
006800
39E800
084800
084800
144800
120F80
020800
027800
FF8800
000000
1FF800
000800
000800
000800
000800
000800
ENDCHAR
STARTCHAR AF50
ENCODING 12876
SWIDTH 2000 0
DWIDTH 20 0
BBX 17 17 2 -2
BITMAP
003000
001800
0FE800
386800
084800
0E4800
124980
120E00
02F800
FF0800
000000
0FF800
000800
0FF800
020000
020000
03FE00
ENDCHAR
STARTCHAR AF5C
ENCODING 12877
SWIDTH 2000 0
DWIDTH 20 0
BBX 17 18 2 -3
BITMAP
003000
000800
0BE800
384800
084800
0C4800
128800
120F80
027800
FF8800
000800
061800
030800
020800
059400
08A200
104300
600000
ENDCHAR
STARTCHAR AF5D
ENCODING 12878
SWIDTH 2000 0
DWIDTH 20 0
BBX 17 17 2 -2
BITMAP
003000
000800
006800
39E800
084800
0C4800
124800
120F80
023800
FFC800
204800
00E800
031800
020800
020800
031800
00F000
ENDCHAR
STARTCHAR AF64
ENCODING 12879
SWIDTH 2000 0
DWIDTH 20 0
BBX 15 17 2 -2
BITMAP
0018
0064
0014
7F94
1094
1094
1094
1D14
251C
2414
04D6
FF14
0014
0014
0014
0014
0004
ENDCHAR
ENDFONT
